  0
SECTION
  2
HEADER
  9
$ACADVER
  1
AC1024
  9
$ACADMAINTVER
 70
6
  9
$DWGCODEPAGE
  3
ANSI_1252
  9
$LASTSAVEDBY
  1
ezdxf
  9
$INSBASE
 10
0.0
 20
0.0
 30
0.0
  9
$EXTMIN
 10
1e+20
 20
1e+20
 30
1e+20
  9
$EXTMAX
 10
-1e+20
 20
-1e+20
 30
-1e+20
  9
$LIMMIN
 10
0.0
 20
0.0
  9
$LIMMAX
 10
420.0
 20
297.0
  9
$ORTHOMODE
 70
0
  9
$REGENMODE
 70
1
  9
$FILLMODE
 70
1
  9
$QTEXTMODE
 70
0
  9
$MIRRTEXT
 70
1
  9
$LTSCALE
 40
1.0
  9
$ATTMODE
 70
1
  9
$TEXTSIZE
 40
2.5
  9
$TRACEWID
 40
1.0
  9
$TEXTSTYLE
  7
OpenSans
  9
$CLAYER
  8
0
  9
$CELTYPE
  6
ByLayer
  9
$CECOLOR
 62
256
  9
$CELTSCALE
 40
1.0
  9
$DISPSILH
 70
0
  9
$DIMSCALE
 40
1.0
  9
$DIMASZ
 40
0.175
  9
$DIMEXO
 40
0.125
  9
$DIMDLI
 40
3.75
  9
$DIMRND
 40
0.0
  9
$DIMDLE
 40
0.0
  9
$DIMEXE
 40
0.375
  9
$DIMTP
 40
0.0
  9
$DIMTM
 40
0.0
  9
$DIMTXT
 40
0.25
  9
$DIMCEN
 40
2.5
  9
$DIMTSZ
 40
0.0
  9
$DIMTOL
 70
0
  9
$DIMLIM
 70
0
  9
$DIMTIH
 70
0
  9
$DIMTOH
 70
0
  9
$DIMSE1
 70
0
  9
$DIMSE2
 70
0
  9
$DIMTAD
 70
1
  9
$DIMZIN
 70
12
  9
$DIMBLK
  1
ARCHTICK
  9
$DIMASO
 70
1
  9
$DIMSHO
 70
1
  9
$DIMPOST
  1

  9
$DIMAPOST
  1

  9
$DIMALT
 70
0
  9
$DIMALTD
 70
3
  9
$DIMALTF
 40
0.03937007874
  9
$DIMLFAC
 40
100.0
  9
$DIMTOFL
 70
1
  9
$DIMTVP
 40
0.0
  9
$DIMTIX
 70
0
  9
$DIMSOXD
 70
0
  9
$DIMSAH
 70
0
  9
$DIMBLK1
  1

  9
$DIMBLK2
  1

  9
$DIMSTYLE
  2
EZDXF
  9
$DIMCLRD
 70
0
  9
$DIMCLRE
 70
0
  9
$DIMCLRT
 70
0
  9
$DIMTFAC
 40
0.5
  9
$DIMGAP
 40
0.1
  9
$DIMJUST
 70
0
  9
$DIMSD1
 70
0
  9
$DIMSD2
 70
0
  9
$DIMTOLJ
 70
0
  9
$DIMTZIN
 70
8
  9
$DIMALTZ
 70
0
  9
$DIMALTTZ
 70
0
  9
$DIMUPT
 70
1
  9
$DIMDEC
 70
2
  9
$DIMTDEC
 70
2
  9
$DIMALTU
 70
2
  9
$DIMALTTD
 70
3
  9
$DIMTXSTY
  7
OpenSansCondensed-Light
  9
$DIMAUNIT
 70
0
  9
$DIMADEC
 70
2
  9
$DIMALTRND
 40
0.0
  9
$DIMAZIN
 70
3
  9
$DIMDSEP
 70
46
  9
$DIMATFIT
 70
3
  9
$DIMFRAC
 70
0
  9
$DIMLDRBLK
  1

  9
$DIMLUNIT
 70
2
  9
$DIMLWD
 70
-2
  9
$DIMLWE
 70
-2
  9
$DIMTMOVE
 70
2
  9
$DIMFXL
 40
1.0
  9
$DIMFXLON
 70
0
  9
$DIMJOGANG
 40
0.785398163397
  9
$DIMTFILL
 70
0
  9
$DIMTFILLCLR
 70
0
  9
$DIMARCSYM
 70
0
  9
$DIMLTYPE
  6

  9
$DIMLTEX1
  6

  9
$DIMLTEX2
  6

  9
$DIMTXTDIRECTION
 70
0
  9
$LUNITS
 70
2
  9
$LUPREC
 70
4
  9
$SKETCHINC
 40
1.0
  9
$FILLETRAD
 40
10.0
  9
$AUNITS
 70
0
  9
$AUPREC
 70
2
  9
$MENU
  1
.
  9
$ELEVATION
 40
0.0
  9
$PELEVATION
 40
0.0
  9
$THICKNESS
 40
0.0
  9
$LIMCHECK
 70
0
  9
$CHAMFERA
 40
0.0
  9
$CHAMFERB
 40
0.0
  9
$CHAMFERC
 40
0.0
  9
$CHAMFERD
 40
0.0
  9
$SKPOLY
 70
0
  9
$TDCREATE
 40
2461314.4789236113
  9
$TDUCREATE
 40
2458532.153996898
  9
$TDUPDATE
 40
2461314.4789236113
  9
$TDUUPDATE
 40
2458532.1544311
  9
$TDINDWG
 40
0.0
  9
$TDUSRTIMER
 40
0.0
  9
$USRTIMER
 70
1
  9
$ANGBASE
 50
0.0
  9
$ANGDIR
 70
0
  9
$PDMODE
 70
0
  9
$PDSIZE
 40
0.0
  9
$PLINEWID
 40
0.0
  9
$SPLFRAME
 70
0
  9
$SPLINETYPE
 70
6
  9
$SPLINESEGS
 70
8
  9
$HANDSEED
  5
94
  9
$SURFTAB1
 70
6
  9
$SURFTAB2
 70
6
  9
$SURFTYPE
 70
6
  9
$SURFU
 70
6
  9
$SURFV
 70
6
  9
$UCSBASE
  2

  9
$UCSNAME
  2

  9
$UCSORG
 10
0.0
 20
0.0
 30
0.0
  9
$UCSXDIR
 10
1.0
 20
0.0
 30
0.0
  9
$UCSYDIR
 10
0.0
 20
1.0
 30
0.0
  9
$UCSORTHOREF
  2

  9
$UCSORTHOVIEW
 70
0
  9
$UCSORGTOP
 10
0.0
 20
0.0
 30
0.0
  9
$UCSORGBOTTOM
 10
0.0
 20
0.0
 30
0.0
  9
$UCSORGLEFT
 10
0.0
 20
0.0
 30
0.0
  9
$UCSORGRIGHT
 10
0.0
 20
0.0
 30
0.0
  9
$UCSORGFRONT
 10
0.0
 20
0.0
 30
0.0
  9
$UCSORGBACK
 10
0.0
 20
0.0
 30
0.0
  9
$PUCSBASE
  2

  9
$PUCSNAME
  2

  9
$PUCSORG
 10
0.0
 20
0.0
 30
0.0
  9
$PUCSXDIR
 10
1.0
 20
0.0
 30
0.0
  9
$PUCSYDIR
 10
0.0
 20
1.0
 30
0.0
  9
$PUCSORTHOREF
  2

  9
$PUCSORTHOVIEW
 70
0
  9
$PUCSORGTOP
 10
0.0
 20
0.0
 30
0.0
  9
$PUCSORGBOTTOM
 10
0.0
 20
0.0
 30
0.0
  9
$PUCSORGLEFT
 10
0.0
 20
0.0
 30
0.0
  9
$PUCSORGRIGHT
 10
0.0
 20
0.0
 30
0.0
  9
$PUCSORGFRONT
 10
0.0
 20
0.0
 30
0.0
  9
$PUCSORGBACK
 10
0.0
 20
0.0
 30
0.0
  9
$USERI1
 70
0
  9
$USERI2
 70
0
  9
$USERI3
 70
0
  9
$USERI4
 70
0
  9
$USERI5
 70
0
  9
$USERR1
 40
0.0
  9
$USERR2
 40
0.0
  9
$USERR3
 40
0.0
  9
$USERR4
 40
0.0
  9
$USERR5
 40
0.0
  9
$WORLDVIEW
 70
1
  9
$SHADEDGE
 70
3
  9
$SHADEDIF
 70
70
  9
$TILEMODE
 70
1
  9
$MAXACTVP
 70
64
  9
$PINSBASE
 10
0.0
 20
0.0
 30
0.0
  9
$PLIMCHECK
 70
0
  9
$PEXTMIN
 10
1e+20
 20
1e+20
 30
1e+20
  9
$PEXTMAX
 10
-1e+20
 20
-1e+20
 30
-1e+20
  9
$PLIMMIN
 10
0.0
 20
0.0
  9
$PLIMMAX
 10
420.0
 20
297.0
  9
$UNITMODE
 70
0
  9
$VISRETAIN
 70
1
  9
$PLINEGEN
 70
0
  9
$PSLTSCALE
 70
1
  9
$TREEDEPTH
 70
3020
  9
$CMLSTYLE
  2
Standard
  9
$CMLJUST
 70
0
  9
$CMLSCALE
 40
20.0
  9
$PROXYGRAPHICS
 70
1
  9
$MEASUREMENT
 70
1
  9
$CELWEIGHT
370
-1
  9
$ENDCAPS
280
0
  9
$JOINSTYLE
280
0
  9
$LWDISPLAY
290
0
  9
$INSUNITS
 70
4
  9
$HYPERLINKBASE
  1

  9
$STYLESHEET
  1

  9
$XEDIT
290
1
  9
$CEPSNTYPE
380
0
  9
$PSTYLEMODE
290
1
  9
$FINGERPRINTGUID
  2
{A7F886C5-E2A2-4FF2-868E-7A108695F80C}
  9
$VERSIONGUID
  2
{BAE45144-9840-4007-B0D5-BCC29EA57EA9}
  9
$EXTNAMES
290
1
  9
$PSVPSCALE
 40
0.0
  9
$OLESTARTUP
290
0
  9
$SORTENTS
280
127
  9
$INDEXCTL
280
0
  9
$HIDETEXT
280
1
  9
$XCLIPFRAME
280
1
  9
$HALOGAP
280
0
  9
$OBSCOLOR
 70
257
  9
$OBSLTYPE
280
0
  9
$INTERSECTIONDISPLAY
280
0
  9
$INTERSECTIONCOLOR
 70
257
  9
$DIMASSOC
280
2
  9
$PROJECTNAME
  1

  9
$CAMERADISPLAY
290
0
  9
$LENSLENGTH
 40
50.0
  9
$CAMERAHEIGHT
 40
0.0
  9
$STEPSPERSEC
 40
24.0
  9
$STEPSIZE
 40
100.0
  9
$3DDWFPREC
 40
2.0
  9
$PSOLWIDTH
 40
0.005
  9
$PSOLHEIGHT
 40
0.08
  9
$LOFTANG1
 40
1.570796326795
  9
$LOFTANG2
 40
1.570796326795
  9
$LOFTMAG1
 40
0.0
  9
$LOFTMAG2
 40
0.0
  9
$LOFTPARAM
 70
7
  9
$LOFTNORMALS
280
1
  9
$LATITUDE
 40
37.795
  9
$LONGITUDE
 40
-122.394
  9
$NORTHDIRECTION
 40
0.0
  9
$TIMEZONE
 70
-8000
  9
$LIGHTGLYPHDISPLAY
280
1
  9
$TILEMODELIGHTSYNCH
280
1
  9
$CMATERIAL
347
20
  9
$SOLIDHIST
280
0
  9
$SHOWHIST
280
1
  9
$DWFFRAME
280
2
  9
$DGNFRAME
280
2
  9
$REALWORLDSCALE
290
1
  9
$INTERFERECOLOR
 62
256
  9
$CSHADOW
280
0
  9
$SHADOWPLANELOCATION
 40
0.0
  0
ENDSEC
  0
SECTION
  2
CLASSES
  0
CLASS
  1
ACDBDICTIONARYWDFLT
  2
AcDbDictionaryWithDefault
  3
ObjectDBX Classes
 90
0
 91
0
280
0
281
0
  0
CLASS
  1
SUN
  2
AcDbSun
  3
SCENEOE
 90
1153
 91
0
280
0
281
0
  0
CLASS
  1
VISUALSTYLE
  2
AcDbVisualStyle
  3
ObjectDBX Classes
 90
4095
 91
0
280
0
281
0
  0
CLASS
  1
MATERIAL
  2
AcDbMaterial
  3
ObjectDBX Classes
 90
1153
 91
0
280
0
281
0
  0
CLASS
  1
SCALE
  2
AcDbScale
  3
ObjectDBX Classes
 90
1153
 91
0
280
0
281
0
  0
CLASS
  1
TABLESTYLE
  2
AcDbTableStyle
  3
ObjectDBX Classes
 90
4095
 91
0
280
0
281
0
  0
CLASS
  1
MLEADERSTYLE
  2
AcDbMLeaderStyle
  3
ACDB_MLEADERSTYLE_CLASS
 90
4095
 91
0
280
0
281
0
  0
CLASS
  1
DICTIONARYVAR
  2
AcDbDictionaryVar
  3
ObjectDBX Classes
 90
0
 91
0
280
0
281
0
  0
CLASS
  1
CELLSTYLEMAP
  2
AcDbCellStyleMap
  3
ObjectDBX Classes
 90
1152
 91
0
280
0
281
0
  0
CLASS
  1
MENTALRAYRENDERSETTINGS
  2
AcDbMentalRayRenderSettings
  3
SCENEOE
 90
1024
 91
0
280
0
281
0
  0
CLASS
  1
ACDBDETAILVIEWSTYLE
  2
AcDbDetailViewStyle
  3
ObjectDBX Classes
 90
1025
 91
0
280
0
281
0
  0
CLASS
  1
ACDBSECTIONVIEWSTYLE
  2
AcDbSectionViewStyle
  3
ObjectDBX Classes
 90
1025
 91
0
280
0
281
0
  0
CLASS
  1
RASTERVARIABLES
  2
AcDbRasterVariables
  3
ISM
 90
0
 91
0
280
0
281
0
  0
CLASS
  1
ACDBPLACEHOLDER
  2
AcDbPlaceHolder
  3
ObjectDBX Classes
 90
0
 91
0
280
0
281
0
  0
CLASS
  1
LAYOUT
  2
AcDbLayout
  3
ObjectDBX Classes
 90
0
 91
0
280
0
281
0
  0
ENDSEC
  0
SECTION
  2
TABLES
  0
TABLE
  2
VPORT
  5
8
330
0
100
AcDbSymbolTable
 70
1
  0
VPORT
  5
23
330
8
100
AcDbSymbolTableRecord
100
AcDbViewportTableRecord
  2
*Active
 70
0
 10
0.0
 20
0.0
 11
1.0
 21
1.0
 12
0.0
 22
0.0
 13
0.0
 23
0.0
 14
0.5
 24
0.5
 15
0.5
 25
0.5
 16
0.0
 26
0.0
 36
1.0
 17
0.0
 27
0.0
 37
0.0
 40
1000.0
 41
1.34
 42
50.0
 43
0.0
 44
0.0
 50
0.0
 51
0.0
 71
0
 72
1000
 73
1
 74
3
 75
0
 76
0
 77
0
 78
0
281
0
 65
0
146
0.0
  0
ENDTAB
  0
TABLE
  2
LTYPE
  5
2
330
0
100
AcDbSymbolTable
 70
21
  0
LTYPE
  5
24
330
2
100
AcDbSymbolTableRecord
100
AcDbLinetypeTableRecord
  2
ByBlock
 70
0
  3

 72
65
 73
0
 40
0.0
  0
LTYPE
  5
25
330
2
100
AcDbSymbolTableRecord
100
AcDbLinetypeTableRecord
  2
ByLayer
 70
0
  3

 72
65
 73
0
 40
0.0
  0
LTYPE
  5
26
330
2
100
AcDbSymbolTableRecord
100
AcDbLinetypeTableRecord
  2
Continuous
 70
0
  3

 72
65
 73
0
 40
0.0
  0
LTYPE
  5
2F
330
2
100
AcDbSymbolTableRecord
100
AcDbLinetypeTableRecord
  2
CENTER
 70
0
  3
Center ____ _ ____ _ ____ _ ____ _ ____ _ ____
 72
65
 73
4
 40
5.08
 49
3.175
 74
0
 49
-0.635
 74
0
 49
0.635
 74
0
 49
-0.635
 74
0
  0
LTYPE
  5
30
330
2
100
AcDbSymbolTableRecord
100
AcDbLinetypeTableRecord
  2
CENTERX2
 70
0
  3
Center (2x) ________  __  ________  __  ________
 72
65
 73
4
 40
8.89
 49
6.35
 74
0
 49
-0.635
 74
0
 49
1.27
 74
0
 49
-0.635
 74
0
  0
LTYPE
  5
31
330
2
100
AcDbSymbolTableRecord
100
AcDbLinetypeTableRecord
  2
CENTER2
 70
0
  3
Center (.5x) ____ _ ____ _ ____ _ ____ _ ____
 72
65
 73
4
 40
2.54
 49
1.587
 74
0
 49
-0.318
 74
0
 49
0.318
 74
0
 49
-0.318
 74
0
  0
LTYPE
  5
32
330
2
100
AcDbSymbolTableRecord
100
AcDbLinetypeTableRecord
  2
DASHED
 70
0
  3
Dashed __ __ __ __ __ __ __ __ __ __ __ __ __ _
 72
65
 73
2
 40
1.524
 49
1.27
 74
0
 49
-0.254
 74
0
  0
LTYPE
  5
33
330
2
100
AcDbSymbolTableRecord
100
AcDbLinetypeTableRecord
  2
DASHEDX2
 70
0
  3
Dashed (2x) ____  ____  ____  ____  ____  ____
 72
65
 73
2
 40
3.048
 49
2.54
 74
0
 49
-0.508
 74
0
  0
LTYPE
  5
34
330
2
100
AcDbSymbolTableRecord
100
AcDbLinetypeTableRecord
  2
DASHED2
 70
0
  3
Dashed (.5x) _ _ _ _ _ _ _ _ _ _ _ _ _ _
 72
65
 73
2
 40
0.762
 49
0.635
 74
0
 49
-0.127
 74
0
  0
LTYPE
  5
35
330
2
100
AcDbSymbolTableRecord
100
AcDbLinetypeTableRecord
  2
PHANTOM
 70
0
  3
Phantom ______  __  __  ______  __  __  ______
 72
65
 73
6
 40
6.35
 49
3.175
 74
0
 49
-0.635
 74
0
 49
0.635
 74
0
 49
-0.635
 74
0
 49
0.635
 74
0
 49
-0.635
 74
0
  0
LTYPE
  5
36
330
2
100
AcDbSymbolTableRecord
100
AcDbLinetypeTableRecord
  2
PHANTOMX2
 70
0
  3
Phantom (2x)____________    ____    ____    ____________
 72
65
 73
6
 40
10.795
 49
6.35
 74
0
 49
-0.635
 74
0
 49
1.27
 74
0
 49
-0.635
 74
0
 49
1.27
 74
0
 49
-0.635
 74
0
  0
LTYPE
  5
37
330
2
100
AcDbSymbolTableRecord
100
AcDbLinetypeTableRecord
  2
PHANTOM2
 70
0
  3
Phantom (.5x) ___ _ _ ___ _ _ ___ _ _ ___ _ _ ___
 72
65
 73
6
 40
3.175
 49
1.587
 74
0
 49
-0.318
 74
0
 49
0.318
 74
0
 49
-0.318
 74
0
 49
0.318
 74
0
 49
-0.318
 74
0
  0
LTYPE
  5
38
330
2
100
AcDbSymbolTableRecord
100
AcDbLinetypeTableRecord
  2
DASHDOT
 70
0
  3
Dash dot __ . __ . __ . __ . __ . __ . __ . __
 72
65
 73
4
 40
3.556
 49
2.54
 74
0
 49
-0.508
 74
0
 49
0.0
 74
0
 49
-0.508
 74
0
  0
LTYPE
  5
39
330
2
100
AcDbSymbolTableRecord
100
AcDbLinetypeTableRecord
  2
DASHDOTX2
 70
0
  3
Dash dot (2x) ____  .  ____  .  ____  .  ____
 72
65
 73
4
 40
6.096
 49
5.08
 74
0
 49
-0.508
 74
0
 49
0.0
 74
0
 49
-0.508
 74
0
  0
LTYPE
  5
3A
330
2
100
AcDbSymbolTableRecord
100
AcDbLinetypeTableRecord
  2
DASHDOT2
 70
0
  3
Dash dot (.5x) _ . _ . _ . _ . _ . _ . _ . _
 72
65
 73
4
 40
1.778
 49
1.27
 74
0
 49
-0.254
 74
0
 49
0.0
 74
0
 49
-0.254
 74
0
  0
LTYPE
  5
3B
330
2
100
AcDbSymbolTableRecord
100
AcDbLinetypeTableRecord
  2
DOT
 70
0
  3
Dot .  .  .  .  .  .  .  .  .  .  .  .  .  .  .  .
 72
65
 73
2
 40
0.508
 49
0.0
 74
0
 49
-0.508
 74
0
  0
LTYPE
  5
3C
330
2
100
AcDbSymbolTableRecord
100
AcDbLinetypeTableRecord
  2
DOTX2
 70
0
  3
Dot (2x) .    .    .    .    .    .    .    . 
 72
65
 73
2
 40
1.016
 49
0.0
 74
0
 49
-1.016
 74
0
  0
LTYPE
  5
3D
330
2
100
AcDbSymbolTableRecord
100
AcDbLinetypeTableRecord
  2
DOT2
 70
0
  3
Dot (.5) . . . . . . . . . . . . . . . . . . . 
 72
65
 73
2
 40
0.254
 49
0.0
 74
0
 49
-0.254
 74
0
  0
LTYPE
  5
3E
330
2
100
AcDbSymbolTableRecord
100
AcDbLinetypeTableRecord
  2
DIVIDE
 70
0
  3
Divide __ . . __ . . __ . . __ . . __ . . __
 72
65
 73
6
 40
4.064
 49
2.54
 74
0
 49
-0.508
 74
0
 49
0.0
 74
0
 49
-0.508
 74
0
 49
0.0
 74
0
 49
-0.508
 74
0
  0
LTYPE
  5
3F
330
2
100
AcDbSymbolTableRecord
100
AcDbLinetypeTableRecord
  2
DIVIDEX2
 70
0
  3
Divide (2x) ____  . .  ____  . .  ____  . .  ____
 72
65
 73
6
 40
6.604
 49
5.08
 74
0
 49
-0.508
 74
0
 49
0.0
 74
0
 49
-0.508
 74
0
 49
0.0
 74
0
 49
-0.508
 74
0
  0
LTYPE
  5
40
330
2
100
AcDbSymbolTableRecord
100
AcDbLinetypeTableRecord
  2
DIVIDE2
 70
0
  3
Divide(.5x) _ . _ . _ . _ . _ . _ . _ . _
 72
65
 73
6
 40
2.032
 49
1.27
 74
0
 49
-0.254
 74
0
 49
0.0
 74
0
 49
-0.254
 74
0
 49
0.0
 74
0
 49
-0.254
 74
0
  0
ENDTAB
  0
TABLE
  2
LAYER
  5
1
330
0
100
AcDbSymbolTable
 70
4
  0
LAYER
  5
27
330
1
100
AcDbSymbolTableRecord
100
AcDbLayerTableRecord
  2
0
 70
0
 62
7
  6
Continuous
370
-3
390
13
347
21
  0
LAYER
  5
28
330
1
100
AcDbSymbolTableRecord
100
AcDbLayerTableRecord
  2
Defpoints
 70
0
 62
7
  6
Continuous
290
0
370
-3
390
13
347
21
  0
LAYER
  5
8A
330
1
100
AcDbSymbolTableRecord
100
AcDbLayerTableRecord
  2
CORTE
 70
0
 62
1
  6
Continuous
370
-3
390
13
347
21
  0
LAYER
  5
8B
330
1
100
AcDbSymbolTableRecord
100
AcDbLayerTableRecord
  2
NOTAS
 70
0
 62
3
  6
Continuous
370
-3
390
13
347
21
  0
ENDTAB
  0
TABLE
  2
STYLE
  5
5
330
0
100
AcDbSymbolTable
 70
26
  0
STYLE
  5
29
330
5
100
AcDbSymbolTableRecord
100
AcDbTextStyleTableRecord
  2
Standard
 70
0
 40
0.0
 41
1.0
 50
0.0
 71
0
 42
2.5
  3
txt
  4

  0
STYLE
  5
41
330
5
100
AcDbSymbolTableRecord
100
AcDbTextStyleTableRecord
  2
OpenSans-Light
 70
0
 40
0.0
 41
1.0
 50
0.0
 71
0
 42
2.5
  3
OpenSans-Light.ttf
  4

  0
STYLE
  5
42
330
5
100
AcDbSymbolTableRecord
100
AcDbTextStyleTableRecord
  2
OpenSans-Light-Italic
 70
0
 40
0.0
 41
1.0
 50
0.0
 71
0
 42
2.5
  3
OpenSans-LightItalic.ttf
  4

  0
STYLE
  5
43
330
5
100
AcDbSymbolTableRecord
100
AcDbTextStyleTableRecord
  2
OpenSans
 70
0
 40
0.0
 41
1.0
 50
0.0
 71
0
 42
2.5
  3
OpenSans-Regular.ttf
  4

  0
STYLE
  5
44
330
5
100
AcDbSymbolTableRecord
100
AcDbTextStyleTableRecord
  2
OpenSans-Italic
 70
0
 40
0.0
 41
1.0
 50
0.0
 71
0
 42
2.5
  3
OpenSans-Italic.ttf
  4

  0
STYLE
  5
45
330
5
100
AcDbSymbolTableRecord
100
AcDbTextStyleTableRecord
  2
OpenSans-SemiBold
 70
0
 40
0.0
 41
1.0
 50
0.0
 71
0
 42
2.5
  3
OpenSans-SemiBold.ttf
  4

  0
STYLE
  5
46
330
5
100
AcDbSymbolTableRecord
100
AcDbTextStyleTableRecord
  2
OpenSans-SemiBoldItalic
 70
0
 40
0.0
 41
1.0
 50
0.0
 71
0
 42
2.5
  3
OpenSans-SemiBoldItalic.ttf
  4

  0
STYLE
  5
47
330
5
100
AcDbSymbolTableRecord
100
AcDbTextStyleTableRecord
  2
OpenSans-Bold
 70
0
 40
0.0
 41
1.0
 50
0.0
 71
0
 42
2.5
  3
OpenSans-Bold.ttf
  4

  0
STYLE
  5
48
330
5
100
AcDbSymbolTableRecord
100
AcDbTextStyleTableRecord
  2
OpenSans-BoldItalic
 70
0
 40
0.0
 41
1.0
 50
0.0
 71
0
 42
2.5
  3
OpenSans-BoldItalic.ttf
  4

  0
STYLE
  5
49
330
5
100
AcDbSymbolTableRecord
100
AcDbTextStyleTableRecord
  2
OpenSans-ExtraBold
 70
0
 40
0.0
 41
1.0
 50
0.0
 71
0
 42
2.5
  3
OpenSans-ExtraBold.ttf
  4

  0
STYLE
  5
4A
330
5
100
AcDbSymbolTableRecord
100
AcDbTextStyleTableRecord
  2
OpenSans-ExtraBoldItalic
 70
0
 40
0.0
 41
1.0
 50
0.0
 71
0
 42
2.5
  3
OpenSans-ExtraBoldItalic.ttf
  4

  0
STYLE
  5
4B
330
5
100
AcDbSymbolTableRecord
100
AcDbTextStyleTableRecord
  2
OpenSansCondensed-Bold
 70
0
 40
0.0
 41
1.0
 50
0.0
 71
0
 42
2.5
  3
OpenSansCondensed-Bold.ttf
  4

  0
STYLE
  5
4C
330
5
100
AcDbSymbolTableRecord
100
AcDbTextStyleTableRecord
  2
OpenSansCondensed-Light
 70
0
 40
0.0
 41
1.0
 50
0.0
 71
0
 42
2.5
  3
OpenSansCondensed-Light.ttf
  4

  0
STYLE
  5
4D
330
5
100
AcDbSymbolTableRecord
100
AcDbTextStyleTableRecord
  2
OpenSansCondensed-Italic
 70
0
 40
0.0
 41
1.0
 50
0.0
 71
0
 42
2.5
  3
OpenSansCondensed-LightItalic.ttf
  4

  0
STYLE
  5
4E
330
5
100
AcDbSymbolTableRecord
100
AcDbTextStyleTableRecord
  2
LiberationSans
 70
0
 40
0.0
 41
1.0
 50
0.0
 71
0
 42
2.5
  3
LiberationSans-Regular.ttf
  4

  0
STYLE
  5
4F
330
5
100
AcDbSymbolTableRecord
100
AcDbTextStyleTableRecord
  2
LiberationSans-Bold
 70
0
 40
0.0
 41
1.0
 50
0.0
 71
0
 42
2.5
  3
LiberationSans-Bold.ttf
  4

  0
STYLE
  5
50
330
5
100
AcDbSymbolTableRecord
100
AcDbTextStyleTableRecord
  2
LiberationSans-BoldItalic
 70
0
 40
0.0
 41
1.0
 50
0.0
 71
0
 42
2.5
  3
LiberationSans-BoldItalic.ttf
  4

  0
STYLE
  5
51
330
5
100
AcDbSymbolTableRecord
100
AcDbTextStyleTableRecord
  2
LiberationSans-Italic
 70
0
 40
0.0
 41
1.0
 50
0.0
 71
0
 42
2.5
  3
LiberationSans-Italic.ttf
  4

  0
STYLE
  5
52
330
5
100
AcDbSymbolTableRecord
100
AcDbTextStyleTableRecord
  2
LiberationSerif
 70
0
 40
0.0
 41
1.0
 50
0.0
 71
0
 42
2.5
  3
LiberationSerif-Regular.ttf
  4

  0
STYLE
  5
53
330
5
100
AcDbSymbolTableRecord
100
AcDbTextStyleTableRecord
  2
LiberationSerif-Bold
 70
0
 40
0.0
 41
1.0
 50
0.0
 71
0
 42
2.5
  3
LiberationSerif-Bold.ttf
  4

  0
STYLE
  5
54
330
5
100
AcDbSymbolTableRecord
100
AcDbTextStyleTableRecord
  2
LiberationSerif-BoldItalic
 70
0
 40
0.0
 41
1.0
 50
0.0
 71
0
 42
2.5
  3
LiberationSerif-BoldItalic.ttf
  4

  0
STYLE
  5
55
330
5
100
AcDbSymbolTableRecord
100
AcDbTextStyleTableRecord
  2
LiberationSerif-Italic
 70
0
 40
0.0
 41
1.0
 50
0.0
 71
0
 42
2.5
  3
LiberationSerif-Italic.ttf
  4

  0
STYLE
  5
56
330
5
100
AcDbSymbolTableRecord
100
AcDbTextStyleTableRecord
  2
LiberationMono
 70
0
 40
0.0
 41
1.0
 50
0.0
 71
0
 42
2.5
  3
LiberationMono-Regular.ttf
  4

  0
STYLE
  5
57
330
5
100
AcDbSymbolTableRecord
100
AcDbTextStyleTableRecord
  2
LiberationMono-Bold
 70
0
 40
0.0
 41
1.0
 50
0.0
 71
0
 42
2.5
  3
LiberationMono-Bold.ttf
  4

  0
STYLE
  5
58
330
5
100
AcDbSymbolTableRecord
100
AcDbTextStyleTableRecord
  2
LiberationMono-BoldItalic
 70
0
 40
0.0
 41
1.0
 50
0.0
 71
0
 42
2.5
  3
LiberationMono-BoldItalic.ttf
  4

  0
STYLE
  5
59
330
5
100
AcDbSymbolTableRecord
100
AcDbTextStyleTableRecord
  2
LiberationMono-Italic
 70
0
 40
0.0
 41
1.0
 50
0.0
 71
0
 42
2.5
  3
LiberationMono-Italic.ttf
  4

  0
ENDTAB
  0
TABLE
  2
VIEW
  5
7
330
0
100
AcDbSymbolTable
 70
0
  0
ENDTAB
  0
TABLE
  2
UCS
  5
6
330
0
100
AcDbSymbolTable
 70
0
  0
ENDTAB
  0
TABLE
  2
APPID
  5
3
330
0
100
AcDbSymbolTable
 70
3
  0
APPID
  5
2A
330
3
100
AcDbSymbolTableRecord
100
AcDbRegAppTableRecord
  2
ACAD
 70
0
  0
APPID
  5
91
330
3
100
AcDbSymbolTableRecord
100
AcDbRegAppTableRecord
  2
HATCHBACKGROUNDCOLOR
 70
0
  0
APPID
  5
92
330
3
100
AcDbSymbolTableRecord
100
AcDbRegAppTableRecord
  2
EZDXF
 70
0
  0
ENDTAB
  0
TABLE
  2
DIMSTYLE
  5
4
330
0
100
AcDbSymbolTable
 70
12
100
AcDbDimStyleTable
  0
DIMSTYLE
105
2B
330
4
100
AcDbSymbolTableRecord
100
AcDbDimStyleTableRecord
  2
Standard
 70
0
 40
1.0
 41
2.5
 42
0.625
 43
3.75
 44
1.25
 45
0.0
 46
0.0
 47
0.0
 48
0.0
 49
2.5
140
2.5
141
2.5
142
0.0
143
0.03937007874
144
1.0
145
0.0
146
1.0
147
0.625
148
0.0
 69
0
 70
0
 71
0
 72
0
 73
0
 74
0
 75
0
 76
0
 77
1
 78
8
 79
3
170
0
171
3
172
1
173
0
174
0
175
0
176
0
177
0
178
0
179
2
271
2
272
2
273
2
274
3
275
0
276
0
277
2
278
44
279
0
280
0
281
0
282
0
283
0
284
8
285
0
286
0
288
0
289
3
290
0
371
-2
372
-2
  0
DIMSTYLE
105
73
330
4
100
AcDbSymbolTableRecord
100
AcDbDimStyleTableRecord
  2
EZDXF
 70
0
 40
1.0
 41
0.175
 42
0.125
 43
3.75
 44
0.375
 45
0.0
 46
0.0
 47
0.0
 48
0.0
 49
2.5
140
0.25
141
2.5
142
0.0
143
0.03937007874
144
100.0
145
0.0
146
0.5
147
0.1
148
0.0
 69
0
 70
0
 71
0
 72
0
 73
0
 74
0
 75
0
 76
0
 77
1
 78
12
 79
3
170
0
171
3
172
1
173
0
174
0
175
0
176
0
177
0
178
0
179
2
271
2
272
2
273
2
274
3
275
0
276
0
277
2
278
46
279
2
280
0
281
0
282
0
283
0
284
8
285
0
286
0
288
1
289
3
290
0
340
4C
342
74
371
-2
372
-2
  0
DIMSTYLE
105
7C
330
4
100
AcDbSymbolTableRecord
100
AcDbDimStyleTableRecord
  2
EZ_M_100_H25_CM
 70
0
 40
1.0
 41
0.25
 42
0.125
 43
3.75
 44
0.375
 45
0.0
 46
0.0
 47
0.0
 48
0.0
 49
2.5
140
0.25
141
2.5
142
0.125
143
0.03937007874
144
100.0
145
0.0
146
0.5
147
0.1
148
0.0
 69
0
 70
0
 71
0
 72
0
 73
0
 74
0
 75
0
 76
0
 77
1
 78
12
 79
3
170
0
171
3
172
1
173
0
174
0
175
0
176
0
177
0
178
0
179
2
271
2
272
2
273
2
274
3
275
0
276
0
277
2
278
46
279
2
280
0
281
0
282
0
283
0
284
8
285
0
286
0
288
1
289
3
290
0
340
4C
371
-2
372
-2
  0
DIMSTYLE
105
7D
330
4
100
AcDbSymbolTableRecord
100
AcDbDimStyleTableRecord
  2
EZ_M_50_H25_CM
 70
0
 40
1.0
 41
0.125
 42
0.0625
 43
3.75
 44
0.1875
 45
0.0
 46
0.0
 47
0.0
 48
0.0
 49
2.5
140
0.125
141
2.5
142
0.0625
143
0.03937007874
144
100.0
145
0.0
146
0.5
147
0.05
148
0.0
 69
0
 70
0
 71
0
 72
0
 73
0
 74
0
 75
0
 76
0
 77
1
 78
12
 79
3
170
0
171
3
172
1
173
0
174
0
175
0
176
0
177
0
178
0
179
2
271
2
272
2
273
2
274
3
275
0
276
0
277
2
278
46
279
2
280
0
281
0
282
0
283
0
284
8
285
0
286
0
288
1
289
3
290
0
340
4C
371
-2
372
-2
  0
DIMSTYLE
105
7E
330
4
100
AcDbSymbolTableRecord
100
AcDbDimStyleTableRecord
  2
EZ_M_25_H25_CM
 70
0
 40
1.0
 41
0.0625
 42
0.03125
 43
3.75
 44
0.09375
 45
0.0
 46
0.0
 47
0.0
 48
0.0
 49
2.5
140
0.0625
141
2.5
142
0.03125
143
0.03937007874
144
100.0
145
0.0
146
0.5
147
0.025
148
0.0
 69
0
 70
0
 71
0
 72
0
 73
0
 74
0
 75
0
 76
0
 77
1
 78
12
 79
3
170
0
171
3
172
1
173
0
174
0
175
0
176
0
177
0
178
0
179
2
271
2
272
2
273
2
274
3
275
0
276
0
277
2
278
46
279
2
280
0
281
0
282
0
283
0
284
8
285
0
286
0
288
1
289
3
290
0
340
4C
371
-2
372
-2
  0
DIMSTYLE
105
7F
330
4
100
AcDbSymbolTableRecord
100
AcDbDimStyleTableRecord
  2
EZ_M_20_H25_CM
 70
0
 40
1.0
 41
0.05
 42
0.025
 43
3.75
 44
0.07500000000000001
 45
0.0
 46
0.0
 47
0.0
 48
0.0
 49
2.5
140
0.05
141
2.5
142
0.025
143
0.03937007874
144
100.0
145
0.0
146
0.5
147
0.020000000000000004
148
0.0
 69
0
 70
0
 71
0
 72
0
 73
0
 74
0
 75
0
 76
0
 77
1
 78
12
 79
3
170
0
171
3
172
1
173
0
174
0
175
0
176
0
177
0
178
0
179
2
271
2
272
2
273
2
274
3
275
0
276
0
277
2
278
46
279
2
280
0
281
0
282
0
283
0
284
8
285
0
286
0
288
1
289
3
290
0
340
4C
371
-2
372
-2
  0
DIMSTYLE
105
80
330
4
100
AcDbSymbolTableRecord
100
AcDbDimStyleTableRecord
  2
EZ_M_10_H25_CM
 70
0
 40
1.0
 41
0.025
 42
0.0125
 43
3.75
 44
0.037500000000000006
 45
0.0
 46
0.0
 47
0.0
 48
0.0
 49
2.5
140
0.025
141
2.5
142
0.0125
143
0.03937007874
144
100.0
145
0.0
146
0.5
147
0.010000000000000002
148
0.0
 69
0
 70
0
 71
0
 72
0
 73
0
 74
0
 75
0
 76
0
 77
1
 78
12
 79
3
170
0
171
3
172
1
173
0
174
0
175
0
176
0
177
0
178
0
179
2
271
2
272
2
273
2
274
3
275
0
276
0
277
2
278
46
279
2
280
0
281
0
282
0
283
0
284
8
285
0
286
0
288
1
289
3
290
0
340
4C
371
-2
372
-2
  0
DIMSTYLE
105
81
330
4
100
AcDbSymbolTableRecord
100
AcDbDimStyleTableRecord
  2
EZ_M_5_H25_CM
 70
0
 40
1.0
 41
0.0125
 42
0.00625
 43
3.75
 44
0.018750000000000003
 45
0.0
 46
0.0
 47
0.0
 48
0.0
 49
2.5
140
0.0125
141
2.5
142
0.00625
143
0.03937007874
144
100.0
145
0.0
146
0.5
147
0.005000000000000001
148
0.0
 69
0
 70
0
 71
0
 72
0
 73
0
 74
0
 75
0
 76
0
 77
1
 78
12
 79
3
170
0
171
3
172
1
173
0
174
0
175
0
176
0
177
0
178
0
179
2
271
2
272
2
273
2
274
3
275
0
276
0
277
2
278
46
279
2
280
0
281
0
282
0
283
0
284
8
285
0
286
0
288
1
289
3
290
0
340
4C
371
-2
372
-2
  0
DIMSTYLE
105
82
330
4
100
AcDbSymbolTableRecord
100
AcDbDimStyleTableRecord
  2
EZ_M_1_H25_CM
 70
0
 40
1.0
 41
0.0025
 42
0.00125
 43
3.75
 44
0.00375
 45
0.0
 46
0.0
 47
0.0
 48
0.0
 49
2.5
140
0.0025
141
2.5
142
0.00125
143
0.03937007874
144
100.0
145
0.0
146
0.5
147
0.001
148
0.0
 69
0
 70
0
 71
0
 72
0
 73
0
 74
0
 75
0
 76
0
 77
1
 78
12
 79
3
170
0
171
3
172
1
173
0
174
0
175
0
176
0
177
0
178
0
179
2
271
2
272
2
273
2
274
3
275
0
276
0
277
2
278
46
279
2
280
0
281
0
282
0
283
0
284
8
285
0
286
0
288
1
289
3
290
0
340
4C
371
-2
372
-2
  0
DIMSTYLE
105
83
330
4
100
AcDbSymbolTableRecord
100
AcDbDimStyleTableRecord
  2
EZ_RADIUS
 70
0
 40
1.0
 41
0.25
 42
0.125
 43
3.75
 44
0.375
 45
0.0
 46
0.0
 47
0.0
 48
0.0
 49
2.5
140
0.25
141
0.0
142
0.0
143
0.03937007874
144
100.0
145
0.0
146
0.5
147
0.1
148
0.0
 69
0
 70
0
 71
0
 72
0
 73
0
 74
0
 75
0
 76
0
 77
1
 78
12
 79
3
170
0
171
3
172
0
173
0
174
0
175
0
176
0
177
0
178
0
179
2
271
2
272
2
273
2
274
3
275
0
276
0
277
2
278
46
279
1
280
0
281
0
282
0
283
0
284
8
285
0
286
0
288
1
289
3
290
0
340
4C
342
84
371
-2
372
-2
  0
DIMSTYLE
105
88
330
4
100
AcDbSymbolTableRecord
100
AcDbDimStyleTableRecord
  2
EZ_RADIUS_INSIDE
 70
0
 40
1.0
 41
0.25
 42
0.125
 43
3.75
 44
0.375
 45
0.0
 46
0.0
 47
0.0
 48
0.0
 49
2.5
140
0.25
141
0.0
142
0.0
143
0.03937007874
144
100.0
145
0.0
146
0.5
147
0.1
148
0.0
 69
0
 70
0
 71
0
 72
0
 73
0
 74
0
 75
0
 76
0
 77
0
 78
12
 79
3
170
0
171
3
172
0
173
0
174
1
175
0
176
0
177
0
178
0
179
2
271
2
272
2
273
2
274
3
275
0
276
0
277
2
278
46
279
0
280
0
281
0
282
0
283
0
284
8
285
0
286
0
288
1
289
0
290
0
340
4C
342
84
371
-2
372
-2
  0
DIMSTYLE
105
89
330
4
100
AcDbSymbolTableRecord
100
AcDbDimStyleTableRecord
  2
EZ_CURVED
 70
0
 40
1.0
 41
0.25
 42
0.125
 43
3.75
 44
0.375
 45
0.0
 46
0.0
 47
0.0
 48
0.0
 49
2.5
140
0.25
141
2.5
142
0.0
143
0.03937007874
144
100.0
145
0.0
146
0.5
147
0.1
148
0.0
 69
0
 70
0
 71
0
 72
0
 73
0
 74
0
 75
0
 76
0
 77
1
 78
12
 79
2
 90
2
170
0
171
3
172
1
173
0
174
0
175
0
176
0
177
0
178
0
179
2
271
2
272
2
273
2
274
3
275
0
276
0
277
2
278
46
279
2
280
0
281
0
282
0
283
0
284
8
285
0
286
0
288
1
289
3
290
0
340
4C
371
-2
372
-2
  0
ENDTAB
  0
TABLE
  2
BLOCK_RECORD
  5
9
330
0
100
AcDbSymbolTable
 70
5
  0
BLOCK_RECORD
  5
17
330
9
100
AcDbSymbolTableRecord
100
AcDbBlockTableRecord
  2
*Model_Space
340
1A
 70
0
280
1
281
0
  0
BLOCK_RECORD
  5
1B
330
9
100
AcDbSymbolTableRecord
100
AcDbBlockTableRecord
  2
*Paper_Space
340
1E
 70
0
280
1
281
0
  0
BLOCK_RECORD
  5
74
330
9
100
AcDbSymbolTableRecord
100
AcDbBlockTableRecord
  2
_ARCHTICK
340
0
 70
0
280
1
281
0
  0
BLOCK_RECORD
  5
78
330
9
100
AcDbSymbolTableRecord
100
AcDbBlockTableRecord
  2
_CLOSEDFILLED
340
0
 70
0
280
1
281
0
  0
BLOCK_RECORD
  5
84
330
9
100
AcDbSymbolTableRecord
100
AcDbBlockTableRecord
  2
_CLOSEDBLANK
340
0
 70
0
280
1
281
0
  0
ENDTAB
  0
ENDSEC
  0
SECTION
  2
BLOCKS
  0
BLOCK
  5
18
330
17
100
AcDbEntity
  8
0
100
AcDbBlockBegin
  2
*Model_Space
 70
0
 10
0.0
 20
0.0
 30
0.0
  3
*Model_Space
  1

  0
ENDBLK
  5
19
330
17
100
AcDbEntity
  8
0
100
AcDbBlockEnd
  0
BLOCK
  5
1C
330
1B
100
AcDbEntity
  8
0
100
AcDbBlockBegin
  2
*Paper_Space
 70
0
 10
0.0
 20
0.0
 30
0.0
  3
*Paper_Space
  1

  0
ENDBLK
  5
1D
330
1B
100
AcDbEntity
  8
0
100
AcDbBlockEnd
  0
BLOCK
  5
75
330
74
100
AcDbEntity
  8
0
100
AcDbBlockBegin
  2
_ARCHTICK
 70
0
 10
0.0
 20
0.0
 30
0.0
  3
_ARCHTICK
  1

  0
LWPOLYLINE
  5
77
330
74
100
AcDbEntity
  8
0
  6
BYBLOCK
 62
0
100
AcDbPolyline
 90
2
 70
0
 43
0.15
 10
-0.5
 20
-0.5
 10
0.5
 20
0.5
  0
ENDBLK
  5
76
330
74
100
AcDbEntity
  8
0
100
AcDbBlockEnd
  0
BLOCK
  5
79
330
78
100
AcDbEntity
  8
0
100
AcDbBlockBegin
  2
_CLOSEDFILLED
 70
0
 10
0.0
 20
0.0
 30
0.0
  3
_CLOSEDFILLED
  1

  0
SOLID
  5
7B
330
78
100
AcDbEntity
  8
0
  6
BYBLOCK
 62
0
100
AcDbTrace
 10
-1.0
 20
0.16439898372402537
 30
0.0
 11
0.0
 21
0.0
 31
0.0
 12
-1.0
 22
-0.16439898372402537
 32
0.0
 13
-1.0
 23
-0.16439898372402537
 33
0.0
  0
ENDBLK
  5
7A
330
78
100
AcDbEntity
  8
0
100
AcDbBlockEnd
  0
BLOCK
  5
85
330
84
100
AcDbEntity
  8
0
100
AcDbBlockBegin
  2
_CLOSEDBLANK
 70
0
 10
0.0
 20
0.0
 30
0.0
  3
_CLOSEDBLANK
  1

  0
LWPOLYLINE
  5
87
330
84
100
AcDbEntity
  8
0
  6
BYBLOCK
 62
0
100
AcDbPolyline
 90
3
 70
1
 10
-1.0
 20
0.16439898372402537
 10
0.0
 20
0.0
 10
-1.0
 20
-0.16439898372402537
  0
ENDBLK
  5
86
330
84
100
AcDbEntity
  8
0
100
AcDbBlockEnd
  0
ENDSEC
  0
SECTION
  2
ENTITIES
  0
LWPOLYLINE
  5
8C
330
17
100
AcDbEntity
  8
CORTE
100
AcDbPolyline
 90
723
 70
1
 10
12.930983151896543
 20
-11.794706258576126
 10
12.823566772516054
 20
-11.632801814617164
 10
12.732387281729684
 20
-11.461227842253042
 10
12.658307258707787
 20
-11.28160747113123
 10
12.602027517682227
 20
-11.095639951701171
 10
12.564080478080935
 20
-10.905084579910302
 10
12.544825127716344
 20
-10.711744053855345
 10
12.544443626677298
 20
-10.51744741983968
 10
12.56293958405228
 20
-10.32403276917005
 10
12.600138023786585
 20
-10.133329849385909
 10
12.65568703999647
 20
-9.94714275442231
 10
12.729061126080568
 20
-9.767232857462242
 10
12.819566146134495
 20
-9.59530214793683
 10
12.953120002765342
 20
-9.39227553460962
 10
12.953307315476682
 20
-9.392018900057186
 10
12.96243632474295
 20
-9.379408597976303
 10
13.03026797400346
 20
-9.284937864171996
 10
13.039826681800506
 20
-9.271508762034292
 10
13.106349454785528
 20
-9.1772304419644
 10
13.115797158774924
 20
-9.163723015551412
 10
13.181540655066984
 20
-9.068899634172343
 10
13.190876713490548
 20
-9.055314801008734
 10
13.25583646730335
 20
-8.95995279942845
 10
13.265060245986808
 20
-8.946291482296756
 10
13.329231844772092
 20
-8.85039733820966
 10
13.338342717167883
 20
-8.836660465088015
 10
13.401721801914388
 20
-8.740240692336092
 10
13.410719149144521
 20
-8.726429196334749
 10
13.473301414674626
 20
-8.629490344464251
 10
13.482184625572458
 20
-8.615605163762595
 10
13.543965820834373
 20
-8.518153817579567
 10
13.552734291986328
 20
-8.504195895362058
 10
13.61371022034269
 20
-8.40623867448528
 10
13.622363356129169
 20
-8.392208958877532
 10
13.68252987564272
 20
-8.293752517287906
 10
13.691067088278514
 20
-8.279651961292332
 10
13.750420111992607
 20
-8.180702986882256
 10
13.758840821566906
 20
-8.166532548313217
 10
13.817376317784069
 20
-8.06709776243074
 10
13.82567995229977
 20
-8.052858403849608
 10
13.88339394485449
 20
-7.952944560843662
 10
13.891579940267173
 20
-7.938637249493252
 10
13.948468508797045
 20
-7.8382511362530485
 10
13.956536309053128
 20
-7.823876843992164
 10
14.012595589264393
 20
-7.723025279487512
 10
14.020544646339026
 20
-7.708584982724723
 10
14.075770830269477
 20
-7.607274817542085
 10
14.083600604203731
 20
-7.592769497169484
 10
14.13798994048117
 20
-7.491007613047012
 10
14.145699899418691
 20
-7.476438254373608
 10
14.19924869351574
 20
-7.3742315637337175
 10
14.206838313738949
 20
-7.359599156418379
 10
14.25954292822448
 20
-7.256954601897289
 10
14.267011694189994
 20
-7.242260139881815
 10
14.31886854897511
 20
-7.139184693860109
 10
14.326215953348989
 20
-7.124429175301273
 10
14.377221525931825
 20
-7.020929839427085
 10
14.384447069623814
 20
-7.006114266629254
 10
14.434597895327059
 20
-6.902198071346171
 10
14.441701087524681
 20
-6.887323450692845
 10
14.490993759732337
 20
-6.7829974547594745
 10
14.497974117933937
 20
-6.768064796645545
 10
14.546405288321866
 20
-6.663336086657848
 10
14.553262338369857
 20
-6.648346405419967
 10
14.600828717133616
 20
-6.5432220953289795
 10
14.607561993246225
 20
-6.528176409177636
 10
14.654260349324716
 20
-6.422663639805879
 10
14.660869394127872
 20
-6.407562970755707
 10
14.706696555421809
 20
-6.3016689093143725
 10
14.713180919980166
 20
-6.286514283114822
 10
14.758133773569057
 20
-6.1802461227135135
 10
14.764493017416443
 20
-6.165038568779289
 10
14.80856850976875
 20
-6.058403527940381
 10
14.814802200938153
 20
-6.043144079281342
 10
14.857997338119516
 20
-5.936149401447748
 10
14.864105053172374
 20
-5.920839094598886
 10
14.906416901048637
 20
-5.813492047642844
 10
14.912398225103624
 20
-5.7981319225938055
 10
14.95382390954
 20
-5.690439798323579
 10
14.959678436301228
 20
-5.6750308984479645
 10
15.000215143357831
 20
-5.567001012111765
 10
15.00594247514235
 20
-5.551544384096529
 10
15.04558745126547
 20
-5.443184073885252
 10
15.05118719903047
 20
-5.42768076765909
 10
15.089937751239017
 20
-5.318997394209428
 10
15.09540953460806
 20
-5.303448462871983
 10
15.133263030676932
 20
-5.194449408765274
 10
15.138606477965874
 20
-5.17885590851539
 10
15.175560346604978
 20
-5.069548577775507
 10
15.180775094847242
 20
-5.053911567839387
 10
15.21682682587545
 20
-4.944303385431797
 10
15.221912520846656
 20
-4.928623927991148
 10
15.25705966536301
 20
-4.818722339316538
 10
15.262015961605018
 20
-4.803001499436452
 10
15.296256132154602
 20
-4.692813969826407
 10
15.301082692998985
 20
-4.6770528153829956
 10
15.334413563735424
 20
-4.5665868295918886
 10
15.339110061326359
 20
-4.550786431199724
 10
15.371529368169622
 20
-4.440049492896887
 10
15.37609548348616
 20
-4.424210923836202
 10
15.407601024276213
 20
-4.313210555096707
 10
15.412036447153902
 20
-4.297334891240705
 10
15.442626081800949
 20
-4.1860786320321415
 10
15.446930510952953
 20
-4.170166951773726
 10
15.476602161581757
 20
-4.058662359447756
 10
15.480775304619376
 20
-4.04271574362606
 10
15.509526955711367
 20
-3.9309703924015444
 10
15.513568529163669
 20
-3.9149899242293946
 10
15.541398227693483
 20
-3.8030114046793164
 10
15.545307957026868
 20
-3.7869981696684523
 10
15.572213812594775
 20
-3.6747940882051564
 10
15.575991432231405
 20
-3.6587491740933715
 10
15.601971617192024
 20
-3.5463271524507607
 10
15.605616870527939
 20
-3.530251649127702
 10
15.63066962011449
 20
-3.417619323842991
 10
15.63418225953704
 20
-3.4015143232760843
 10
15.658305871980726
 20
-3.2886793451732257
 10
15.66168565888539
 20
-3.2725459413335747
 10
15.684878495531619
 20
-3.1595159750007427
 10
15.688125200338169
 20
-3.143355263788933
 10
15.710385685757208
 20
-3.030137987061009
 10
15.713499087925381
 20
-3.0139510662323885
 10
15.734825710020077
 20
-2.900554169665918
 10
15.737805598064503
 20
-2.884342138756211
 10
15.758196908172339
 20
-2.7707733251103144
 10
15.761043079676899
 20
-2.7545372853610246
 10
15.78049769266882
 20
-2.640804269072044
 10
15.783209954300423
 20
-2.624545323355484
 10
15.801726548674756
 20
-2.5106558300138424
 10
15.804304716196476
 20
-2.494375082758179
 10
15.821882034168752
 20
-2.3803368485832332
 10
15.824325932452325
 20
-2.364035405697634
 10
15.840962780040694
 20
-2.2498561770123207
 10
15.843272243078422
 20
-2.233535145811676
 10
15.858967490184726
 20
-2.1192226785165955
 10
15.86114236110072
 20
-2.102883167646582
 10
15.875894941587404
 20
-1.9884452266920785
 10
15.87793507264831
 20
-1.9720883460534424
 10
15.89174398441053
 20
-1.8575327049144732
 10
15.893649237035513
 20
-1.8411595655878397
 10
15.90651354206955
 20
-1.7264940057333242
 10
15.908283786839702
 20
-1.7101057199039258
 10
15.920202611306626
 20
-1.595338030268421
 10
15.9218377279738
 20
-1.5789357111501248
 10
15.93281026225848
 20
-1.4640736876079559
 10
15.934310139753412
 20
-1.4476584493680396
 10
15.94433563851995
 20
-1.332709894199674
 10
15.945700174959839
 20
-1.3162828518828615
 10
15.954777957201998
 20
-1.2012555732467323
 10
15.956007059897395
 20
-1.184817842699699
 10
15.96413650898482
 20
-1.0697196541024345
 10
15.965230094445957
 20
-1.0532723518977536
 10
15.972410658166167
 20
-0.9381110716620586
 10
15.973368652108606
 20
-0.9216553150224923
 10
15.979599842704417
 20
-0.806438765757239
 10
15.980422180054093
 20
-0.7899756724800187
 10
15.98570357425682
 20
-0.6747116805479546
 10
15.98639019915449
 20
-0.6582423689283178
 10
15.990721438212653
 20
-0.5429387639148492
 10
15.991272304017652
 20
-0.5264643526707973
 10
15.99465309372134
 20
-0.4111289668528458
 10
15.995068163014778
 20
-0.3946505750485512
 10
15.997498273715689
 20
-0.2792912428605823
 10
15.997777518302978
 20
-0.2628099898308079
 10
15.999256784929955
 20
-0.14743454733517017
 10
15.999400185842733
 20
-0.13095155260870434
 10
15.99992850791301
 20
-0.015567836961054921
 10
15.999936055410421
 20
0.0009157798146649269
 10
15.999513397036443
 20
0.11629993089601566
 10
15.999385090605807
 20
0.1327830500314384
 10
15.998011480497672
 20
0.24815979879857583
 10
15.997747328854512
 20
0.2646413006380048
 10
15.995422860318001
 20
0.38000280984659834
 10
15.99502288140546
 20
0.3964815748440512
 10
15.991747712335725
 20
0.5118200082843745
 10
15.991211933323331
 20
0.5282949170800165
 10
15.986986286194174
 20
0.6436024401091952
 10
15.98631474347602
 20
0.6600723736048512
 10
15.981138905324721
 20
0.7753411536811655
 10
15.98033164451697
 20
0.7918049931167609
 10
15.974205966924876
 20
0.9070272003290322
 10
15.973263042862671
 20
0.923483827358462
 10
15.966187941931233
 20
1.038651634959851
 10
15.965109418664968
 20
1.0550999317269474
 10
15.957085374987573
 20
1.1702055166648104
 10
15.95587132577856
 20
1.1866443658790766
 10
15.946898884407775
 20
1.3016799093283786
 10
15.945549391723233
 20
1.3181081943413777
 10
15.93562916213384
 20
1.4330658822345241
 10
15.934144317641332
 20
1.4494824871151586
 10
15.923276973688926
 20
1.5643545106730445
 10
15.921656878250111
 20
1.5807583202836637
 10
15.909843158125337
 20
1.695536876546039
 10
15.908087921789102
 20
1.7119267766183248
 10
15.895328627967512
 20
1.8266040689737597
 10
15.893438369962556
 20
1.842978946183871
 10
15.879734369149988
 20
1.9575471849004533
 10
15.877709217876644
 20
1.9739059269453754
 10
15.8630614409506
 20
2.0883573296975184
 10
15.860901533972159
 20
2.104698825370197
 10
15.845310975918238
 20
2.2190256177701113
 10
15.84301645995164
 20
2.235348757034667
 10
15.826484179796301
 20
2.349543173157813
 10
15.824055210702063
 20
2.365846847225747
 10
15.80658233144042
 20
2.479901130140202
 10
15.804019074212155
 20
2.4961842315449156
 10
15.785606782731815
 20
2.6100906338375167
 10
15.782909411484985
 20
2.626352056509889
 10
15.763558958485264
 20
2.740102840813458
 10
15.760727656445338
 20
2.756341480156993
 10
15.740440356352863
 20
2.8699289196726245
 10
15.737475315842843
 20
2.886143672638685
 10
15.716252546721341
 20
2.99956005166591
 10
15.713153969148836
 20
3.0157498168278543
 10
15.690997172606268
 20
3.128987431284625
 10
15.687765268449619
 20
3.1451511089136717
 10
15.664675949540102
 20
3.258202266860504
 10
15.661310938334237
 20
3.274338758999661
 10
15.637290665455522
 20
3.387195781163632
 10
15.633792775776948
 20
3.4033039917027064
 10
15.608843180564342
 20
3.515959211996785
 10
15.605212650015712
 20
3.532038046746476
 10
15.579335427230617
 20
3.644483812793256
 10
15.57557250242448
 20
3.6605321795598873
 10
15.548769409840158
 20
3.7727608532073673
 10
15.544874346382283
 20
3.7887776618668254
 10
15.51714720466334
 20
3.9007816197120904
 10
15.513120267135367
 20
3.916765782283759
 10
15.484470959715177
 20
4.028537416186227
 10
15.480312421656544
 20
4.044487846907337
 10
15.450742894608707
 20
4.156019564508041
 10
15.446453038498207
 20
4.171935179906871
 10
15.415965300404247
 20
4.283219405144605
 10
15.411544417640703
 20
4.299099124114581
 10
15.380140539454056
 20
4.410128297738852
 10
15.375588930336649
 20
4.4259710416115645
 10
15.343271045241783
 20
4.536737621696906
 10
15.338589018949609
 20
4.552542314315539
 10
15.305359322216907
 20
4.663038776774553
 10
15.300547196787846
 20
4.678804344567389
 10
15.266407945625081
 20
4.78902318365974
 10
15.261466047934466
 20
4.804748555712213
 10
15.226419561332698
 20
4.914682284557169
 10
15.221348227070878
 20
4.930366392685367
 10
15.185396885647679
 20
5.04000754376786
 10
15.180196459297271
 20
5.055649322590889
 10
15.14334270513444
 20
5.164990448270613
 10
15.138013539947023
 20
5.180588835282692
 10
15.100259876424806
 20
5.289622508299638
 10
15.094802334396814
 20
5.305176443942614
 10
15.056151326024473
 20
5.413895257919805
 10
15.050565777872647
 20
5.42940368565497
 10
15.011020050113228
 20
5.537800255604539
 10
15.00530687524946
 20
5.553262121984372
 10
14.964869114342253
 20
5.6613290848068925
 10
14.959028700847723
 20
5.676743339546821
 10
14.91770165362561
 20
5.784473354532015
 10
14.911734398224581
 20
5.799838950581377
 10
14.869520871927087
 20
5.907224699907718
 10
14.86342717995981
 20
5.922540593521251
 10
14.820330042042897
 20
6.029574782751754
 10
14.814110327438144
 20
6.044839933560329
 10
14.770132505379271
 20
6.1515152921384955
 10
14.763787190626205
 20
6.1667286632198
 10
14.71893167172522
 20
6.27303794496409
 10
14.71246118784467
 20
6.288198502913159
 10
14.666731019021281
 20
6.394134486508241
 10
14.660135805536612
 20
6.409241201507274
 10
14.613534093123404
 20
6.514796690994661
 10
14.606814598030347
 20
6.529848536883733
 10
14.559344507560922
 20
6.635016362152446
 10
14.552501187297487
 20
6.650012316498391
 10
14.504165943293087
 20
6.754785333768353
 10
14.497199262708357
 20
6.7697243779347005
 10
14.448002148457098
 20
6.874095470245823
 10
14.440912580779726
 20
6.888976589461811
 10
14.390856938114842
 20
6.9929386671546725
 10
14.383644964920844
 20
7.007760850584322
 10
14.332734193992778
 20
7.111306851783662
 10
14.325400305172888
 20
7.126069092594289
 10
14.273637864219056
 20
7.2291919836871905
 10
14.26618255794542
 20
7.243893279117862
 10
14.213571963054891
 20
7.34658605523239
 10
14.205995745747241
 20
7.361225406662015
 10
14.152540570622051
 20
7.4634810921427235
 10
14.144843956913265
 20
7.478057505157966
 10
14.090547832625216
 20
7.579869154040584
 10
14.082731345326398
 20
7.594381638503325
 10
14.027597960071489
 20
7.695742334984539
 10
14.019662130136489
 20
7.710189905099089
 10
13.963695228983115
 20
7.811092764008714
 10
13.955640595472321
 20
7.825474438389026
 10
13.89884398010774
 20
7.925912605656077
 10
13.890671090151688
 20
7.940227407392006
 10
13.833048618623327
 20
8.040194060511123
 10
13.824758027385307
 20
8.054441017235186
 10
13.766313613839134
 20
8.153929365729287
 10
13.757905884477626
 20
8.168107509682459
 10
13.69864349889176
 20
8.267110795564893
 10
13.690119202522116
 20
8.281219163662456
 10
13.63004287043752
 20
8.379730661895428
 10
13.621402586093213
 20
8.393768295792315
 10
13.560516388340126
 20
8.491781314743916
 10
13.551760702933397
 20
8.505747260899842
 10
13.490068775354114
 20
8.603255142798625
 10
13.481198283636036
 20
8.617148452542976
 10
13.418704816803828
 20
8.714144573930414
 10
13.40972012132399
 20
8.727964303526548
 10
13.346429360259283
 20
8.82444207570564
 10
13.337331071324968
 20
8.838187286414824
 10
13.27324731520547
 20
8.934140155900051
 10
13.264036050839909
 20
8.947809914045685
 10
13.199163652709808
 20
9.04323136300622
 10
13.1898400386104
 20
9.056824740036932
 10
13.124183405084496
 20
9.151708286739684
 10
13.114748074580342
 20
9.165224359292372
 10
13.048311665544277
 20
9.259563558542933
 10
13.038765259552953
 20
9.27300140850578
 10
12.971110388864485
 20
9.367408300384874
 10
12.96190171266928
 20
9.38015216510915
 10
12.952082707467282
 20
9.393628757949338
 10
12.818769881539174
 20
9.596647088151496
 10
12.728446348122382
 20
9.768547554553562
 10
12.655239900348246
 20
9.948405629274816
 10
12.599842293528788
 20
10.134521765589758
 10
12.562777000526761
 20
10.325137281990745
 10
12.544394265263374
 20
10.518450980632055
 10
12.544867793131449
 20
10.71263616752717
 10
12.564193109587718
 20
10.905857913668752
 10
12.602187602434464
 20
11.096290393964141
 10
12.658492247391004
 20
11.282134140144795
 10
12.732575000649389
 20
11.461633044619989
 10
12.823735826356867
 20
11.63309095459928
 10
12.931113311518443
 20
11.79488769967939
 10
13.053692805812865
 20
11.945494401444813
 10
13.224572980714097
 20
12.118088485296843
 10
73.67568809871231
 20
67.51132977203456
 10
73.86694372782972
 20
67.66983493935993
 10
74.03168141051339
 20
67.78075048303795
 10
74.20661866934026
 20
67.8747596176976
 10
74.39002631121399
 20
67.95093309620346
 10
74.58009141628924
 20
68.00851797058962
 10
74.77493525804543
 20
68.04694503468515
 10
74.97263187383578
 20
68.06583445051619
 10
75.17122710234779
 20
68.06499950287018
 10
75.36875789979999
 20
68.04444844491012
 10
75.5632717439358
 20
68.0043844165948
 10
75.75284593401837
 20
67.94520343671205
 10
75.9356065960486
 20
67.86749048837267
 10
76.10974720534898
 20
67.77201373665866
 10
76.27354644342243
 20
67.65971693558252
 10
76.42538521257856
 20
67.53171009941173
 10
76.5984642017632
 20
67.35353527728269
 10
76.8748048577205
 20
67.03919851816165
 10
76.89105329830582
 20
67.0205616400459
 10
77.424713499268
 20
66.4033395201353
 10
77.44080778770655
 20
66.38456935958526
 10
77.96936287980651
 20
65.76296991458908
 10
77.98530192285097
 20
65.74406774661783
 10
78.50871600270321
 20
65.11813320018464
 10
78.5244987176599
 20
65.09910030876253
 10
79.04273623109573
 20
64.46887317901195
 10
79.05836154588357
 20
64.44971085699656
 10
79.57138729036454
 20
63.815233953633
 10
79.5868541435962
 20
63.79594350267142
 10
80.09463327061272
 20
63.157259924066985
 10
80.10994061166615
 20
63.13784265450813
 10
80.61243862908411
 20
62.49499578480062
 10
80.62758541817139
 20
62.475453015609084
 10
81.12476819259975
 20
61.8284865217244
 10
81.13975340083942
 20
61.80881958038888
 10
81.63158715993626
 20
61.15777740909022
 10
81.64640976942061
 20
61.137987631536866
 10
82.13286110418973
 20
60.48291400643635
 10
82.14752010805445
 20
60.4630027369373
 10
82.62855597511023
 20
59.80394215549819
 10
82.64305037761048
 20
59.78391074656987
 10
83.11863810142744
 20
59.12090797707724
 10
83.13296691799233
 20
59.10075778940648
 10
83.60307419312285
 20
58.4338578679287
 10
83.6172364504371
 20
58.4135902702598
 10
84.0818313437089
 20
57.74283849758505
 10
84.09582607976222
 20
57.72245486665031
 10
84.55487703244381
 20
57.047896805214506
 10
84.5687032966125
 20
57.027398525617656
 10
85.02217912655503
 20
56.34907999641244
 10
85.03583597965593
 20
56.328468460549786
 10
85.48370588341596
 20
55.646435540003225
 10
85.49719239777572
 20
55.62571214796106
 10
85.9394259527071
 20
54.940011164808396
 10
85.95274121222118
 20
54.91917732427382
 10
86.38930837853843
 20
54.22985485641546
 10
86.40245147873635
 20
54.2089119825763
 10
86.83332260155821
 20
53.51601485390906
 10
86.84629264966152
 20
53.49496436936324
 10
87.27143846102835
 20
52.798539646594755
 10
87.28423457601549
 20
52.77738298124682
 10
87.703626196863
 20
52.077477970721915
 10
87.71624750952797
 20
52.05621656168768
 10
88.12985645166954
 20
51.35287880614116
 10
88.14230210467633
 20
51.33151409765809
 10
88.55010027272667
 20
50.62479137300373
 10
88.5623694206744
 20
50.603324816321084
 10
88.96432911395227
 20
49.89326512841669
 10
88.97642092343163
 20
49.871698181698356
 10
89.37251483785192
 20
49.15834976306704
 10
89.38442848749945
 20
49.13668389129648
 10
89.77462971742152
 20
48.42009519786134
 10
89.78636439797106
 20
48.398331872750056
 10
90.17064643803837
 20
47.67855158052072
 10
90.1822013523822
 20
47.65669228039746
 10
90.56053809930636
 20
46.933769282193644
 10
90.571912462549
 20
46.91181549190421
 10
90.94427821688957
 20
46.18579889402241
 10
90.95547125640103
 20
46.16375210482901
 10
91.32184072431254
 20
45.43469122370472
 10
91.33285167977952
 20
45.41255293318681
 10
91.69319997472986
 20
44.68049729204337
 10
91.70402809820568
 20
44.65826900399968
 10
92.0583307426644
 20
43.92326832948922
 10
92.06897529862276
 20
43.90095155382957
 10
92.41720822572557
 20
43.16305577265099
 10
92.42766849110764
 20
43.14065202529985
 10
92.76980804629332
 20
42.39991126080322
 10
92.78008331056083
 20
42.37742206358816
 10
93.11610625316905
 20
41.63388663238911
 10
93.12619581835256
 20
41.6113135129372
 10
93.45607932320992
 20
40.86503392148346
 10
93.46598250395098
 20
40.842378413129026
 10
93.78970416292266
 20
40.09340535426673
 10
93.79942028652258
 20
40.07066899594255
 10
94.11695811003598
 20
39.31905334546895
 10
94.12648651650079
 20
39.29623768160376
 10
94.4378189350294
 20
38.542030494833845
 10
94.44715897712139
 20
38.51913707523129
 10
94.75226484265525
 20
37.762389583518335
 10
94.76141588593048
 20
37.739419963266776
 10
95.06027447341825
 20
36.980183570508224
 10
95.06923589626672
 20
36.95713930988289
 10
95.36182690501384
 20
36.19546558905245
 10
95.37059809871069
 20
36.1723482533869
 10
95.65690165376743
 20
35.40828894300827
 10
95.66548202250893
 20
35.385100102601385
 10
95.94547867600856
 20
34.61870710326549
 10
95.95386763695406
 20
34.595448333270646
 10
96.2275383694475
 20
33.82677370407364
 10
96.23573535275496
 20
33.80344658440332
 10
96.50306157449918
 20
33.032542539418806
 10
96.51106602336826
 20
33.00914865462526
 10
96.77202957557938
 20
32.23606755938589
 10
96.77984094628782
 20
32.212608498557394
 10
97.0344241023866
 20
31.437402866462676
 10
97.04204186432935
 20
31.413880223109135
 10
97.2902273311399
 20
30.636602711874165
 10
97.29765096686093
 20
30.613018083831694
 10
97.53942188578253
 20
29.833721491919647
 10
97.54665089101553
 20
29.810076481224236
 10
97.7819908391747
 20
29.02881374423789
 10
97.78902472287025
 20
29.005109957039803
 10
98.01791771422995
 20
28.221934144146587
 10
98.0247559985953
 20
28.198173190580192
 10
98.2471864850474
 20
27.413137500884858
 10
98.25382870557573
 20
27.389320994969573
 10
98.46978157799079
 20
26.602478753922213
 10
98.47622728349154
 20
26.578608313457895
 10
98.68568787274712
 20
25.79001296922567
 10
98.69193662538163
 20
25.766090215664374
 10
98.8948907033628
 20
24.97579533548475
 10
98.90094207866791
 20
24.951821893843167
 10
99.09737585922538
 20
24.159881160417815
 10
99.10322944614822
 20
24.135858659144407
 10
99.29312958604352
 20
23.342325866958216
 10
99.298784986965
 20
23.31825593783961
 10
99.4821385867694
 20
22.523184989536983
 10
99.48759541753299
 20
22.499069267580058
 10
99.66439002251172
 20
21.702514170269787
 10
99.66964791244845
 20
21.678354293595653
 10
99.83987151339963
 20
20.8803691552126
 10
99.84493010535336
 20
20.856166764945193
 10
100.00857113942712
 20
20.056805790560112
 10
100.01343008978264
 20
20.032562530696318
 10
100.17047744126536
 20
19.231880018839718
 10
100.17513641996577
 20
19.207597536166485
 10
100.3255794210367
 20
18.40564787513211
 10
100.33003811161034
 20
18.381327819091748
 10
100.47386654306345
 20
17.578165483257266
 10
100.47812464264243
 20
17.553809505851277
 10
100.61532873458484
 20
16.749489051953983
 10
100.61938595392719
 20
16.725098807622544
 10
100.74995638643804
 20
15.919674871081051
 10
100.75381244994757
 20
15.895252016589323
 10
100.87774035371501
 20
15.088779307768966
 10
100.88139499945942
 20
15.064325502097397
 10
100.99867195638002
 20
14.256858802612598
 10
101.00212493610866
 20
14.232375706845062
 10
101.11274297986192
 20
13.423969865821435
 10
101.11599405902287
 20
13.399459143030809
 10
101.21994567560925
 20
12.590169073400636
 10
101.22299463336526
 20
12.565632388535333
 10
101.3202727616206
 20
11.755513063277919
 10
101.32311939086334
 20
11.730952083055662
 10
101.41371742293617
 20
10.920058531479938
 10
101.4163615303013
 20
10.8954749242664
 10
101.50027331210049
 20
10.083862228283325
 10
101.5027147179806
 20
10.059257663980151
 10
101.57993454959478
 20
9.246980954351425
 10
101.58217308815229
 20
9.222357104274765
 10
101.65269572423799
 20
8.409471556856955
 10
101.65473124341389
 20
8.384830093650736
 10
101.7185518935504
 20
7.571390925661828
 10
101.72038425507779
 20
7.546733523149197
 10
101.77749858409291
 20
6.7327959894134715
 10
101.7791276635038
 20
6.708124322513109
 10
101.82953179176849
 20
5.893743711708953
 10
101.83095747840376
 20
5.869059456303348
 10
101.8746479820958
 20
5.054291087201461
 10
101.87587017911235
 20
5.029595920025986
 10
101.91284409044863
 20
4.214495137736829
 10
101.91386271482563
 20
4.189790736274726
 10
101.94411752226348
 20
3.37441290849682
 10
101.94493250480856
 20
3.349700950850142
 10
101.96846615321694
 20
2.534101464099283
 10
101.96907743857052
 20
2.5093836288827185
 10
101.98588832936967
 20
1.6936178847176022
 10
101.98629587600843
 20
1.6688958509634853
 10
101.99638286727783
 20
0.8530192622508931
 10
101.99658664751838
 20
0.8282947092490347
 10
101.9999490540747
 20
0.012362696382489711
 10
101.9999490540747
 20
-0.012362696382489541
 10
101.99658664751838
 20
-0.8282947092490233
 10
101.99638286727783
 20
-0.8530192622508835
 10
101.98629587600843
 20
-1.668895850963488
 10
101.98588832936967
 20
-1.6936178847176018
 10
101.96907743857052
 20
-2.5093836288827287
 10
101.96846615321694
 20
-2.5341014640992783
 10
101.94493250480856
 20
-3.3497009508501407
 10
101.94411752226348
 20
-3.374412908496818
 10
101.91386271482563
 20
-4.18979073627473
 10
101.91284409044863
 20
-4.214495137736836
 10
101.87587017911237
 20
-5.029595920025909
 10
101.8746479820958
 20
-5.054291087201532
 10
101.83095747840375
 20
-5.869059456303702
 10
101.8295317917685
 20
-5.893743711708575
 10
101.77912766350381
 20
-6.708124322512947
 10
101.77749858409297
 20
-6.732795989412561
 10
101.72038425507756
 20
-7.546733523151939
 10
101.7185518935505
 20
-7.571390925660518
 10
101.65473124341396
 20
-8.384830093649722
 10
101.65269572423793
 20
-8.409471556857634
 10
101.5821730881524
 20
-9.222357104273453
 10
101.57993454959464
 20
-9.246980954352834
 10
101.50271471798088
 20
-10.059257663977242
 10
101.50027331210022
 20
-10.083862228285964
 10
101.416361530301
 20
-10.895474924269191
 10
101.41371742293632
 20
-10.920058531478716
 10
101.3231193908635
 20
-11.730952083054481
 10
101.32027276162084
 20
-11.755513063275949
 10
101.22299463336513
 20
-12.565632388536214
 10
101.21994567560948
 20
-12.590169073398636
 10
101.11599405902231
 20
-13.39945914303497
 10
101.11274297986192
 20
-13.423969865821404
 10
101.00212493610886
 20
-14.232375706843667
 10
100.99867195638025
 20
-14.256858802610957
 10
100.88139499945902
 20
-15.064325502100058
 10
100.8777403537151
 20
-15.08877930776832
 10
100.75381244994753
 20
-15.89525201658953
 10
100.7499563864384
 20
-15.919674871078746
 10
100.61938595392691
 20
-16.725098807624253
 10
100.61532873458478
 20
-16.74948905195437
 10
100.47812464264243
 20
-17.55380950585119
 10
100.47386654306347
 20
-17.578165483257028
 10
100.33003811161021
 20
-18.38132781909244
 10
100.32557942103652
 20
-18.405647875133084
 10
100.17513641996631
 20
-19.207597536163576
 10
100.17047744126533
 20
-19.23188001883982
 10
100.0134300897822
 20
-20.032562530698566
 10
100.00857113942693
 20
-20.05680579056102
 10
99.84493010535343
 20
-20.856166764944803
 10
99.83987151340004
 20
-20.88036915521062
 10
99.66964791244725
 20
-21.678354293601174
 10
99.66439002251137
 20
-21.702514170271456
 10
99.48759541753313
 20
-22.49906926757951
 10
99.48213858676989
 20
-22.523184989534855
 10
99.29878498696444
 20
-23.318255937842007
 10
99.29312958604322
 20
-23.342325866959502
 10
99.10322944614872
 20
-24.13585865914244
 10
99.09737585922582
 20
-24.159881160416028
 10
98.90094207866787
 20
-24.951821893843356
 10
98.8948907033622
 20
-24.975795335487156
 10
98.69193662538159
 20
-25.76609021566463
 10
98.68568787274809
 20
-25.790012969222094
 10
98.47622728349155
 20
-26.57860831345784
 10
98.4697815779912
 20
-26.602478753920686
 10
98.25382870557505
 20
-27.389320994972053
 10
98.24718648504711
 20
-27.413137500885853
 10
98.02475599859578
 20
-28.198173190578455
 10
98.01791771423082
 20
-28.22193414414349
 10
97.78902472286953
 20
-29.005109957042215
 10
97.78199083917377
 20
-29.028813744241003
 10
97.5466508910152
 20
-29.810076481225316
 10
97.53942188578199
 20
-29.8337214919214
 10
97.29765096686103
 20
-30.61301808383136
 10
97.29022733113968
 20
-30.636602711874932
 10
97.04204186433019
 20
-31.413880223106577
 10
97.03442410238696
 20
-31.437402866461536
 10
96.77984094628759
 20
-32.21260849855804
 10
96.77202957557917
 20
-32.236067559386484
 10
96.5110660233682
 20
-33.0091486546254
 10
96.50306157449891
 20
-33.03254253941959
 10
96.23573535275523
 20
-33.803446584402565
 10
96.2275383694485
 20
-33.826773704070845
 10
95.95386763695441
 20
-34.595448333269616
 10
95.94547867600775
 20
-34.61870710326767
 10
95.66548202250966
 20
-35.385100102599374
 10
95.65690165376638
 20
-35.40828894301114
 10
95.37059809871205
 20
-36.17234825338322
 10
95.36182690501384
 20
-36.19546558905235
 10
95.06923589626594
 20
-36.95713930988485
 10
95.06027447341673
 20
-36.98018357051211
 10
94.76141588593084
 20
-37.73941996326587
 10
94.75226484265707
 20
-37.76238958351379
 10
94.44715897712089
 20
-38.51913707523248
 10
94.43781893502984
 20
-38.54203049483273
 10
94.12648651649991
 20
-39.296237681605824
 10
94.11695811003683
 20
-39.31905334546688
 10
93.79942028652125
 20
-40.07066899594569
 10
93.78970416292488
 20
-40.093405354261556
 10
93.46598250394987
 20
-40.842378413131534
 10
93.45607932321026
 20
-40.865033921482656
 10
93.12619581835077
 20
-41.61131351294127
 10
93.11610625316858
 20
-41.63388663239022
 10
92.78008331056294
 20
-42.377422063583566
 10
92.7698080462931
 20
-42.39991126080373
 10
92.42766849110848
 20
-43.140652025298046
 10
92.4172082257253
 20
-43.163055772651575
 10
92.06897529862204
 20
-43.90095155383109
 10
92.05833074266448
 20
-43.92326832948904
 10
91.70402809820428
 20
-44.658269004002626
 10
91.69319997473015
 20
-44.68049729204283
 10
91.33285167978072
 20
-45.412552933184394
 10
91.32184072431235
 20
-45.43469122370508
 10
90.95547125640101
 20
-46.163752104829015
 10
90.94427821688959
 20
-46.18579889402238
 10
90.57191246254968
 20
-46.91181549190285
 10
90.56053809930668
 20
-46.93376928219296
 10
90.1822013523815
 20
-47.65669228039878
 10
90.17064643803938
 20
-47.67855158051882
 10
89.7863643979704
 20
-48.398331872751264
 10
89.77462971742268
 20
-48.42009519785921
 10
89.38442848749862
 20
-49.136683891297984
 10
89.37251483785147
 20
-49.15834976306788
 10
88.97642092343247
 20
-49.87169818169689
 10
88.96432911395232
 20
-49.89326512841664
 10
88.56236942067481
 20
-50.60332481632033
 10
88.5501002727273
 20
-50.6247913730026
 10
88.14230210467714
 20
-51.33151409765668
 10
88.12985645166957
 20
-51.35287880614108
 10
87.716247509527
 20
-52.05621656168935
 10
87.70362619686367
 20
-52.07747797072079
 10
87.28423457601447
 20
-52.777382981248515
 10
87.27143846102808
 20
-52.79853964659521
 10
86.84629264966054
 20
-53.49496436936486
 10
86.83332260155933
 20
-53.516014853907265
 10
86.40245147873598
 20
-54.2089119825769
 10
86.38930837853911
 20
-54.22985485641437
 10
85.95274121222172
 20
-54.91917732427298
 10
85.93942595270691
 20
-54.940011164808695
 10
85.49719239777524
 20
-55.6257121479618
 10
85.48370588341577
 20
-55.64643554000352
 10
85.0358359796567
 20
-56.32846846054861
 10
85.02217912655493
 20
-56.349079996412584
 10
84.5687032966112
 20
-57.02739852561961
 10
84.55487703244394
 20
-57.04789680521433
 10
84.09582607976294
 20
-57.72245486664926
 10
84.08183134370886
 20
-57.74283849758511
 10
83.61723645043588
 20
-58.41359027026156
 10
83.60307419312448
 20
-58.43385786792637
 10
83.13296691799277
 20
-59.10075778940584
 10
83.11863810142647
 20
-59.120907977078566
 10
82.64305037760911
 20
-59.783910746571785
 10
82.62855597511135
 20
-59.80394215549663
 10
82.14752010805408
 20
-60.4630027369378
 10
82.13286110419124
 20
-60.482914006434314
 10
81.64640976942098
 20
-61.13798763153638
 10
81.63158715993812
 20
-61.157777409087736
 10
81.13975340083807
 20
-61.80881958039068
 10
81.12476819260264
 20
-61.828486521720585
 10
80.62758541817009
 20
-62.475453015610746
 10
80.6124386290839
 20
-62.49499578480089
 10
80.10994061166532
 20
-63.13784265450915
 10
80.094633270611
 20
-63.15725992406917
 10
79.58685414359965
 20
-63.795943502667086
 10
79.57138729036342
 20
-63.81523395363436
 10
79.05836154588503
 20
-64.44971085699474
 10
79.04273623109589
 20
-64.46887317901174
 10
78.52449871765911
 20
-65.09910030876348
 10
78.50871600270153
 20
-65.11813320018668
 10
77.98530192285268
 20
-65.74406774661581
 10
77.96936287980563
 20
-65.76296991459013
 10
77.44080778770584
 20
-66.38456935958608
 10
77.42471349927048
 20
-66.40333952013242
 10
76.89105329830397
 20
-67.020561640048
 10
76.8748048577171
 20
-67.03919851816558
 10
76.59846420176335
 20
-67.35353527728255
 10
76.42538521257856
 20
-67.53171009941174
 10
76.27354644342233
 20
-67.65971693558261
 10
76.10974720534907
 20
-67.77201373665862
 10
75.93560659604861
 20
-67.86749048837265
 10
75.7528459340184
 20
-67.94520343671203
 10
75.56327174393569
 20
-68.00438441659483
 10
75.36875789979992
 20
-68.04444844491013
 10
75.17122710234781
 20
-68.0649995028702
 10
74.9726318738358
 20
-68.06583445051619
 10
74.77493525804542
 20
-68.04694503468515
 10
74.58009141628922
 20
-68.00851797058962
 10
74.39002631121397
 20
-67.95093309620344
 10
74.20661866934032
 20
-67.87475961769763
 10
74.03168141051329
 20
-67.7807504830379
 10
73.86694372782975
 20
-67.66983493935994
 10
73.67568809871237
 20
-67.51132977203461
 10
13.224593594916549
 20
-12.118107374733178
 10
13.053620235961663
 20
-11.945409520468031
 10
12.930983151896543
 20
-11.794706258576126
  0
LWPOLYLINE
  5
8D
330
17
100
AcDbEntity
  8
CORTE
100
AcDbPolyline
 90
129
 70
1
 10
82.31157667384969
 20
-45.74025457812666
 10
82.29565489957503
 20
-45.611164242693285
 10
82.27341814123692
 20
-45.48301064665725
 10
82.2449199691339
 20
-45.35610252325634
 10
82.21022903785871
 20
-45.230745605275665
 10
82.16942892090337
 20
-45.10724188851061
 10
82.12261790932327
 20
-44.9858889042325
 10
82.06990877494549
 20
-44.86697900240974
 10
82.0114284986915
 20
-44.750798647411095
 10
81.94731796466908
 20
-44.63762772788795
 10
81.8777316207701
 20
-44.52773888249805
 10
81.80283710659207
 20
-44.421396843095046
 10
81.72281484957962
 20
-44.318857796966334
 10
81.63785763035901
 20
-44.220368769655394
 10
81.54817011831271
 20
-44.126167029855644
 10
81.45396837851295
 20
-44.036479517809354
 10
81.35547935120202
 20
-43.95152229858874
 10
81.25294030507331
 20
-43.87150004157628
 10
81.1465982656703
 20
-43.79660552739825
 10
81.0367094202804
 20
-43.72701918349927
 10
80.92353850075726
 20
-43.662908649476854
 10
80.80735814575861
 20
-43.604428373222866
 10
80.68844824393585
 20
-43.55171923884508
 10
80.56709525965775
 20
-43.50490822726499
 10
80.44359154289269
 20
-43.46410811030964
 10
80.31823462491201
 20
-43.42941717903445
 10
80.1913265015111
 20
-43.40091900693143
 10
80.06317290547507
 20
-43.37868224859332
 10
79.9340825700417
 20
-43.36276047431867
 10
79.80436648513601
 20
-43.35319204105629
 10
79.67433714816836
 20
-43.349999999999994
 10
79.54430781120071
 20
-43.35319204105629
 10
79.41459172629503
 20
-43.36276047431867
 10
79.28550139086165
 20
-43.37868224859332
 10
79.15734779482563
 20
-43.40091900693143
 10
79.03043967142472
 20
-43.42941717903445
 10
78.90508275344403
 20
-43.46410811030964
 10
78.78157903667898
 20
-43.50490822726499
 10
78.66022605240087
 20
-43.55171923884508
 10
78.54131615057811
 20
-43.604428373222866
 10
78.42513579557946
 20
-43.662908649476854
 10
78.31196487605632
 20
-43.72701918349927
 10
78.20207603066642
 20
-43.79660552739825
 10
78.09573399126342
 20
-43.87150004157628
 10
77.9931949451347
 20
-43.95152229858874
 10
77.89470591782376
 20
-44.036479517809354
 10
77.80050417802401
 20
-44.126167029855644
 10
77.71081666597772
 20
-44.220368769655394
 10
77.6258594467571
 20
-44.318857796966334
 10
77.54583718974466
 20
-44.421396843095046
 10
77.47094267556662
 20
-44.52773888249805
 10
77.40135633166764
 20
-44.63762772788795
 10
77.33724579764522
 20
-44.7507986474111
 10
77.27876552139124
 20
-44.86697900240975
 10
77.22605638701346
 20
-44.9858889042325
 10
77.17924537543335
 20
-45.10724188851061
 10
77.13844525847801
 20
-45.230745605275665
 10
77.10375432720282
 20
-45.35610252325635
 10
77.07525615509981
 20
-45.483010646657256
 10
77.0530193967617
 20
-45.611164242693285
 10
77.03709762248704
 20
-45.74025457812666
 10
77.02752918922465
 20
-45.86997066303233
 10
77.02433714816836
 20
-45.99999999999999
 10
77.02752918922465
 20
-46.13002933696765
 10
77.03709762248704
 20
-46.259745421873326
 10
77.0530193967617
 20
-46.3888357573067
 10
77.07525615509981
 20
-46.51698935334274
 10
77.10375432720282
 20
-46.64389747674364
 10
77.13844525847801
 20
-46.76925439472432
 10
77.17924537543335
 20
-46.89275811148938
 10
77.22605638701346
 20
-47.01411109576748
 10
77.27876552139124
 20
-47.13302099759024
 10
77.33724579764522
 20
-47.249201352588884
 10
77.40135633166764
 20
-47.36237227211203
 10
77.47094267556662
 20
-47.47226111750194
 10
77.54583718974466
 20
-47.57860315690494
 10
77.6258594467571
 20
-47.68114220303365
 10
77.71081666597772
 20
-47.77963123034459
 10
77.80050417802401
 20
-47.87383297014434
 10
77.89470591782376
 20
-47.96352048219063
 10
77.9931949451347
 20
-48.048477701411244
 10
78.09573399126342
 20
-48.1284999584237
 10
78.20207603066642
 20
-48.20339447260174
 10
78.31196487605632
 20
-48.27298081650071
 10
78.42513579557946
 20
-48.33709135052313
 10
78.54131615057811
 20
-48.39557162677712
 10
78.66022605240087
 20
-48.448280761154905
 10
78.78157903667898
 20
-48.495091772734995
 10
78.90508275344403
 20
-48.53589188969035
 10
79.03043967142472
 20
-48.570582820965534
 10
79.15734779482563
 20
-48.599080993068554
 10
79.28550139086165
 20
-48.621317751406664
 10
79.41459172629503
 20
-48.637239525681316
 10
79.54430781120071
 20
-48.6468079589437
 10
79.67433714816836
 20
-48.64999999999999
 10
79.80436648513601
 20
-48.6468079589437
 10
79.9340825700417
 20
-48.637239525681316
 10
80.06317290547507
 20
-48.621317751406664
 10
80.1913265015111
 20
-48.599080993068554
 10
80.31823462491201
 20
-48.570582820965534
 10
80.44359154289269
 20
-48.53589188969035
 10
80.56709525965775
 20
-48.495091772734995
 10
80.68844824393585
 20
-48.448280761154905
 10
80.80735814575861
 20
-48.39557162677712
 10
80.92353850075726
 20
-48.33709135052313
 10
81.0367094202804
 20
-48.27298081650071
 10
81.1465982656703
 20
-48.20339447260174
 10
81.25294030507331
 20
-48.1284999584237
 10
81.35547935120202
 20
-48.048477701411244
 10
81.45396837851295
 20
-47.96352048219063
 10
81.54817011831271
 20
-47.87383297014434
 10
81.63785763035901
 20
-47.77963123034459
 10
81.72281484957962
 20
-47.68114220303365
 10
81.80283710659207
 20
-47.57860315690494
 10
81.8777316207701
 20
-47.47226111750194
 10
81.94731796466908
 20
-47.36237227211203
 10
82.0114284986915
 20
-47.249201352588884
 10
82.06990877494549
 20
-47.13302099759024
 10
82.12261790932327
 20
-47.01411109576748
 10
82.16942892090337
 20
-46.89275811148938
 10
82.21022903785871
 20
-46.76925439472432
 10
82.2449199691339
 20
-46.64389747674364
 10
82.27341814123692
 20
-46.51698935334273
 10
82.29565489957503
 20
-46.3888357573067
 10
82.31157667384969
 20
-46.259745421873326
 10
82.32114510711207
 20
-46.13002933696765
 10
82.32433714816837
 20
-45.99999999999999
 10
82.32114510711207
 20
-45.86997066303233
 10
82.31157667384969
 20
-45.74025457812666
  0
LWPOLYLINE
  5
8E
330
17
100
AcDbEntity
  8
CORTE
100
AcDbPolyline
 90
129
 70
1
 10
82.32114510711207
 20
46.13002933696765
 10
82.31157667384969
 20
46.259745421873326
 10
82.29565489957503
 20
46.3888357573067
 10
82.27341814123692
 20
46.51698935334274
 10
82.2449199691339
 20
46.643897476743646
 10
82.21022903785871
 20
46.76925439472432
 10
82.16942892090337
 20
46.89275811148938
 10
82.12261790932327
 20
47.01411109576748
 10
82.06990877494549
 20
47.13302099759024
 10
82.0114284986915
 20
47.24920135258889
 10
81.94731796466908
 20
47.36237227211203
 10
81.8777316207701
 20
47.47226111750194
 10
81.80283710659207
 20
47.57860315690494
 10
81.72281484957962
 20
47.68114220303365
 10
81.63785763035901
 20
47.77963123034459
 10
81.54817011831271
 20
47.87383297014434
 10
81.45396837851295
 20
47.96352048219063
 10
81.35547935120202
 20
48.048477701411244
 10
81.25294030507331
 20
48.1284999584237
 10
81.1465982656703
 20
48.20339447260174
 10
81.0367094202804
 20
48.27298081650071
 10
80.92353850075726
 20
48.33709135052313
 10
80.80735814575861
 20
48.39557162677712
 10
80.68844824393585
 20
48.448280761154905
 10
80.56709525965775
 20
48.495091772734995
 10
80.44359154289269
 20
48.53589188969035
 10
80.31823462491201
 20
48.570582820965534
 10
80.1913265015111
 20
48.599080993068554
 10
80.06317290547507
 20
48.621317751406664
 10
79.9340825700417
 20
48.637239525681316
 10
79.80436648513601
 20
48.6468079589437
 10
79.67433714816836
 20
48.64999999999999
 10
79.54430781120071
 20
48.6468079589437
 10
79.41459172629503
 20
48.637239525681316
 10
79.28550139086165
 20
48.621317751406664
 10
79.15734779482563
 20
48.599080993068554
 10
79.03043967142472
 20
48.570582820965534
 10
78.90508275344403
 20
48.53589188969035
 10
78.78157903667898
 20
48.495091772734995
 10
78.66022605240087
 20
48.448280761154905
 10
78.54131615057811
 20
48.39557162677712
 10
78.42513579557946
 20
48.33709135052313
 10
78.31196487605632
 20
48.27298081650071
 10
78.20207603066642
 20
48.20339447260174
 10
78.09573399126342
 20
48.1284999584237
 10
77.9931949451347
 20
48.048477701411244
 10
77.89470591782376
 20
47.96352048219063
 10
77.80050417802401
 20
47.87383297014434
 10
77.71081666597772
 20
47.77963123034459
 10
77.6258594467571
 20
47.68114220303365
 10
77.54583718974466
 20
47.57860315690494
 10
77.47094267556662
 20
47.47226111750194
 10
77.40135633166764
 20
47.36237227211203
 10
77.33724579764522
 20
47.249201352588884
 10
77.27876552139124
 20
47.133020997590236
 10
77.22605638701346
 20
47.01411109576748
 10
77.17924537543335
 20
46.89275811148938
 10
77.13844525847801
 20
46.76925439472432
 10
77.10375432720282
 20
46.64389747674364
 10
77.07525615509981
 20
46.51698935334273
 10
77.0530193967617
 20
46.3888357573067
 10
77.03709762248704
 20
46.259745421873326
 10
77.02752918922465
 20
46.13002933696765
 10
77.02433714816836
 20
45.99999999999999
 10
77.02752918922465
 20
45.86997066303233
 10
77.03709762248704
 20
45.74025457812666
 10
77.0530193967617
 20
45.611164242693285
 10
77.07525615509981
 20
45.48301064665725
 10
77.10375432720282
 20
45.35610252325635
 10
77.13844525847801
 20
45.230745605275665
 10
77.17924537543335
 20
45.10724188851061
 10
77.22605638701346
 20
44.9858889042325
 10
77.27876552139124
 20
44.86697900240974
 10
77.33724579764522
 20
44.7507986474111
 10
77.40135633166764
 20
44.63762772788795
 10
77.47094267556662
 20
44.52773888249805
 10
77.54583718974466
 20
44.421396843095046
 10
77.6258594467571
 20
44.318857796966334
 10
77.71081666597772
 20
44.220368769655394
 10
77.80050417802401
 20
44.126167029855644
 10
77.89470591782376
 20
44.036479517809354
 10
77.9931949451347
 20
43.95152229858874
 10
78.09573399126342
 20
43.87150004157628
 10
78.20207603066642
 20
43.79660552739825
 10
78.31196487605632
 20
43.72701918349927
 10
78.42513579557946
 20
43.662908649476854
 10
78.54131615057811
 20
43.604428373222866
 10
78.66022605240087
 20
43.55171923884508
 10
78.78157903667898
 20
43.50490822726499
 10
78.90508275344403
 20
43.46410811030964
 10
79.03043967142472
 20
43.42941717903445
 10
79.15734779482563
 20
43.40091900693143
 10
79.28550139086165
 20
43.37868224859332
 10
79.41459172629503
 20
43.36276047431867
 10
79.54430781120071
 20
43.35319204105629
 10
79.67433714816836
 20
43.349999999999994
 10
79.80436648513601
 20
43.35319204105629
 10
79.9340825700417
 20
43.36276047431867
 10
80.06317290547507
 20
43.37868224859332
 10
80.1913265015111
 20
43.40091900693143
 10
80.31823462491201
 20
43.42941717903445
 10
80.44359154289269
 20
43.46410811030964
 10
80.56709525965775
 20
43.50490822726499
 10
80.68844824393585
 20
43.55171923884508
 10
80.80735814575861
 20
43.604428373222866
 10
80.92353850075726
 20
43.662908649476854
 10
81.0367094202804
 20
43.72701918349927
 10
81.1465982656703
 20
43.79660552739825
 10
81.25294030507331
 20
43.87150004157628
 10
81.35547935120202
 20
43.95152229858874
 10
81.45396837851295
 20
44.036479517809354
 10
81.54817011831271
 20
44.126167029855644
 10
81.63785763035901
 20
44.220368769655394
 10
81.72281484957962
 20
44.318857796966334
 10
81.80283710659207
 20
44.421396843095046
 10
81.8777316207701
 20
44.52773888249805
 10
81.94731796466908
 20
44.63762772788795
 10
82.0114284986915
 20
44.7507986474111
 10
82.06990877494549
 20
44.86697900240974
 10
82.12261790932327
 20
44.9858889042325
 10
82.16942892090337
 20
45.10724188851061
 10
82.21022903785871
 20
45.230745605275665
 10
82.2449199691339
 20
45.35610252325635
 10
82.27341814123692
 20
45.483010646657256
 10
82.29565489957503
 20
45.611164242693285
 10
82.31157667384969
 20
45.74025457812666
 10
82.32114510711207
 20
45.86997066303233
 10
82.32433714816837
 20
45.99999999999999
 10
82.32114510711207
 20
46.13002933696765
  0
TEXT
  5
8F
330
17
100
AcDbEntity
  8
NOTAS
100
AcDbText
 10
12.544394265263374
 20
-78.06583445051619
 30
0.0
 40
3.5
  1
ESTATOR - aluminio 1 mm - cortar 2x(juegos) unidades
 11
12.544394265263374
 21
-78.06583445051619
 31
0.0
100
AcDbText
  0
TEXT
  5
90
330
17
100
AcDbEntity
  8
NOTAS
100
AcDbText
 10
12.544394265263374
 20
-84.06583445051619
 30
0.0
 40
3.5
  1
R int 16.0 / R ext 102.0; varillas M5 a R92.0 +-30.0 grados
 11
12.544394265263374
 21
-84.06583445051619
 31
0.0
100
AcDbText
  0
ENDSEC
  0
SECTION
  2
OBJECTS
  0
DICTIONARY
  5
A
330
0
100
AcDbDictionary
281
1
  3
ACAD_COLOR
350
B
  3
ACAD_GROUP
350
C
  3
ACAD_LAYOUT
350
D
  3
ACAD_MATERIAL
350
E
  3
ACAD_MLEADERSTYLE
350
F
  3
ACAD_MLINESTYLE
350
10
  3
ACAD_PLOTSETTINGS
350
11
  3
ACAD_PLOTSTYLENAME
350
12
  3
ACAD_SCALELIST
350
14
  3
ACAD_TABLESTYLE
350
15
  3
ACAD_VISUALSTYLE
350
16
  3
EZDXF_META
350
2D
  0
DICTIONARY
  5
B
330
A
100
AcDbDictionary
281
1
  0
DICTIONARY
  5
C
330
A
100
AcDbDictionary
281
1
  0
DICTIONARY
  5
D
330
A
100
AcDbDictionary
281
1
  3
Model
350
1A
  3
Layout1
350
1E
  0
DICTIONARY
  5
E
330
A
100
AcDbDictionary
281
1
  3
ByBlock
350
1F
  3
ByLayer
350
20
  3
Global
350
21
  0
DICTIONARY
  5
F
330
A
100
AcDbDictionary
281
1
  3
Standard
350
2C
  0
DICTIONARY
  5
10
330
A
100
AcDbDictionary
281
1
  3
Standard
350
22
  0
DICTIONARY
  5
11
330
A
100
AcDbDictionary
281
1
  0
ACDBDICTIONARYWDFLT
  5
12
330
A
100
AcDbDictionary
281
1
  3
Normal
350
13
100
AcDbDictionaryWithDefault
340
13
  0
ACDBPLACEHOLDER
  5
13
330
12
  0
DICTIONARY
  5
14
330
A
100
AcDbDictionary
281
1
  0
DICTIONARY
  5
15
330
A
100
AcDbDictionary
281
1
  0
DICTIONARY
  5
16
330
A
100
AcDbDictionary
281
1
  3
2dWireframe
350
5A
  3
Basic
350
5B
  3
Brighten
350
5C
  3
ColorChange
350
5D
  3
Conceptual
350
5E
  3
Dim
350
5F
  3
EdgeColorOff
350
60
  3
Facepattern
350
61
  3
Flat
350
62
  3
FlatWithEdges
350
63
  3
Gouraud
350
64
  3
GouraudWithEdges
350
65
  3
Hidden
350
66
  3
JitterOff
350
67
  3
Linepattern
350
68
  3
Modeling
350
69
  3
OverhangOff
350
6A
  3
Realistic
350
6B
  3
Shaded
350
6C
  3
Shaded with edges
350
6D
  3
Shades of Gray
350
6E
  3
Sketchy
350
6F
  3
Thicken
350
70
  3
Wireframe
350
71
  3
X-Ray
350
72
  0
LAYOUT
  5
1A
330
D
100
AcDbPlotSettings
  1

  4
A3
  6

 40
7.5
 41
20.0
 42
7.5
 43
20.0
 44
420.0
 45
297.0
 46
0.0
 47
0.0
 48
0.0
 49
0.0
140
0.0
141
0.0
142
1.0
143
1.0
 70
1024
 72
1
 73
0
 74
5
  7

 75
16
 76
0
 77
2
 78
300
147
1.0
148
0.0
149
0.0
100
AcDbLayout
  1
Model
 70
1
 71
0
 10
0.0
 20
0.0
 11
420.0
 21
297.0
 12
0.0
 22
0.0
 32
0.0
 14
1e+20
 24
1e+20
 34
1e+20
 15
-1e+20
 25
-1e+20
 35
-1e+20
146
0.0
 13
0.0
 23
0.0
 33
0.0
 16
1.0
 26
0.0
 36
0.0
 17
0.0
 27
1.0
 37
0.0
 76
1
330
17
  0
LAYOUT
  5
1E
330
D
100
AcDbPlotSettings
  1

  4
A3
  6

 40
7.5
 41
20.0
 42
7.5
 43
20.0
 44
420.0
 45
297.0
 46
0.0
 47
0.0
 48
0.0
 49
0.0
140
0.0
141
0.0
142
1.0
143
1.0
 70
0
 72
1
 73
0
 74
5
  7

 75
16
 76
0
 77
2
 78
300
147
1.0
148
0.0
149
0.0
100
AcDbLayout
  1
Layout1
 70
1
 71
1
 10
0.0
 20
0.0
 11
420.0
 21
297.0
 12
0.0
 22
0.0
 32
0.0
 14
1e+20
 24
1e+20
 34
1e+20
 15
-1e+20
 25
-1e+20
 35
-1e+20
146
0.0
 13
0.0
 23
0.0
 33
0.0
 16
1.0
 26
0.0
 36
0.0
 17
0.0
 27
1.0
 37
0.0
 76
1
330
1B
  0
MATERIAL
  5
1F
102
{ACAD_REACTORS
330
E
102
}
330
E
100
AcDbMaterial
  1
ByBlock
  2

 70
0
 40
1.0
 71
1
 41
1.0
 91
-1023410177
 42
1.0
 72
1
  3

 73
1
 74
1
 75
1
 44
0.5
 73
0
 45
1.0
 46
1.0
 77
1
  4

 78
1
 79
1
170
1
 48
1.0
171
1
  6

172
1
173
1
174
1
140
1.0
141
1.0
175
1
  7

176
1
177
1
178
1
143
1.0
179
1
  8

270
1
271
1
272
1
145
1.0
146
1.0
273
1
  9

274
1
275
1
276
1
 42
1.0
 72
1
  3

 73
1
 74
1
 75
1
 94
63
  0
MATERIAL
  5
20
102
{ACAD_REACTORS
330
E
102
}
330
E
100
AcDbMaterial
  1
ByLayer
  2

 70
0
 40
1.0
 71
1
 41
1.0
 91
-1023410177
 42
1.0
 72
1
  3

 73
1
 74
1
 75
1
 44
0.5
 73
0
 45
1.0
 46
1.0
 77
1
  4

 78
1
 79
1
170
1
 48
1.0
171
1
  6

172
1
173
1
174
1
140
1.0
141
1.0
175
1
  7

176
1
177
1
178
1
143
1.0
179
1
  8

270
1
271
1
272
1
145
1.0
146
1.0
273
1
  9

274
1
275
1
276
1
 42
1.0
 72
1
  3

 73
1
 74
1
 75
1
 94
63
  0
MATERIAL
  5
21
102
{ACAD_REACTORS
330
E
102
}
330
E
100
AcDbMaterial
  1
Global
  2

 70
0
 40
1.0
 71
1
 41
1.0
 91
-1023410177
 42
1.0
 72
1
  3

 73
1
 74
1
 75
1
 44
0.5
 73
0
 45
1.0
 46
1.0
 77
1
  4

 78
1
 79
1
170
1
 48
1.0
171
1
  6

172
1
173
1
174
1
140
1.0
141
1.0
175
1
  7

176
1
177
1
178
1
143
1.0
179
1
  8

270
1
271
1
272
1
145
1.0
146
1.0
273
1
  9

274
1
275
1
276
1
 42
1.0
 72
1
  3

 73
1
 74
1
 75
1
 94
63
  0
MLINESTYLE
  5
22
102
{ACAD_REACTORS
330
10
102
}
330
10
100
AcDbMlineStyle
  2
Standard
 70
0
  3

 62
256
 51
90.0
 52
90.0
 71
2
 49
0.5
 62
256
  6
BYLAYER
 49
-0.5
 62
256
  6
BYLAYER
  0
MLEADERSTYLE
  5
2C
102
{ACAD_REACTORS
330
F
102
}
330
F
100
AcDbMLeaderStyle
179
2
170
2
171
1
172
0
 90
2
 40
0.0
 41
0.0
173
1
 91
-1056964608
 92
-2
290
1
 42
2.0
291
1
 43
8.0
  3
Standard
 44
4.0
300

342
29
174
1
175
1
176
0
178
1
 93
-1056964608
 45
4.0
292
0
297
0
 46
4.0
 94
-1056964608
 47
1.0
 49
1.0
140
1.0
294
1
141
0.0
177
0
142
1.0
295
0
296
0
143
3.75
271
0
272
9
273
9
  0
DICTIONARY
  5
2D
330
A
100
AcDbDictionary
280
1
281
1
  3
CREATED_BY_EZDXF
350
2E
  3
WRITTEN_BY_EZDXF
350
93
  0
DICTIONARYVAR
  5
2E
330
2D
100
DictionaryVariables
280
0
  1
1.4.4 @ 2026-09-30T09:29:39.465607+00:00
  0
VISUALSTYLE
  5
5A
102
{ACAD_REACTORS
330
16
102
}
330
16
100
AcDbVisualStyle
  2
2dWireframe
 70
4
 90
0
 40
0.6
 62
7
290
0
291
0
  0
VISUALSTYLE
  5
5B
102
{ACAD_REACTORS
330
16
102
}
330
16
100
AcDbVisualStyle
  2
Basic
 70
7
 90
1
 40
0.6
 62
7
290
0
291
1
  0
VISUALSTYLE
  5
5C
102
{ACAD_REACTORS
330
16
102
}
330
16
100
AcDbVisualStyle
  2
Brighten
 70
12
 90
2
 40
0.6
 62
7
290
0
291
1
  0
VISUALSTYLE
  5
5D
102
{ACAD_REACTORS
330
16
102
}
330
16
100
AcDbVisualStyle
  2
ColorChange
 70
16
 90
2
 40
0.6
 62
8
290
0
291
1
  0
VISUALSTYLE
  5
5E
102
{ACAD_REACTORS
330
16
102
}
330
16
100
AcDbVisualStyle
  2
Conceptual
 70
9
 90
3
 40
0.6
 62
7
290
0
291
0
  0
VISUALSTYLE
  5
5F
102
{ACAD_REACTORS
330
16
102
}
330
16
100
AcDbVisualStyle
  2
Dim
 70
11
 90
2
 40
0.6
 62
7
290
0
291
1
  0
VISUALSTYLE
  5
60
102
{ACAD_REACTORS
330
16
102
}
330
16
100
AcDbVisualStyle
  2
EdgeColorOff
 70
22
 90
2
 40
0.6
 62
7
290
0
291
1
  0
VISUALSTYLE
  5
61
102
{ACAD_REACTORS
330
16
102
}
330
16
100
AcDbVisualStyle
  2
Facepattern
 70
15
 90
2
 40
0.6
 62
7
290
0
291
1
  0
VISUALSTYLE
  5
62
102
{ACAD_REACTORS
330
16
102
}
330
16
100
AcDbVisualStyle
  2
Flat
 70
0
 90
2
 40
0.6
 62
7
290
0
291
1
  0
VISUALSTYLE
  5
63
102
{ACAD_REACTORS
330
16
102
}
330
16
100
AcDbVisualStyle
  2
FlatWithEdges
 70
1
 90
2
 40
0.6
 62
7
290
0
291
1
  0
VISUALSTYLE
  5
64
102
{ACAD_REACTORS
330
16
102
}
330
16
100
AcDbVisualStyle
  2
Gouraud
 70
2
 90
2
 40
0.6
 62
7
290
0
291
1
  0
VISUALSTYLE
  5
65
102
{ACAD_REACTORS
330
16
102
}
330
16
100
AcDbVisualStyle
  2
GouraudWithEdges
 70
3
 90
2
 40
0.6
 62
7
290
0
291
1
  0
VISUALSTYLE
  5
66
102
{ACAD_REACTORS
330
16
102
}
330
16
100
AcDbVisualStyle
  2
Hidden
 70
6
 90
1
 40
0.6
 62
7
290
0
291
0
  0
VISUALSTYLE
  5
67
102
{ACAD_REACTORS
330
16
102
}
330
16
100
AcDbVisualStyle
  2
JitterOff
 70
20
 90
2
 40
0.6
 62
7
290
0
291
1
  0
VISUALSTYLE
  5
68
102
{ACAD_REACTORS
330
16
102
}
330
16
100
AcDbVisualStyle
  2
Linepattern
 70
14
 90
2
 40
0.6
 62
7
290
0
291
1
  0
VISUALSTYLE
  5
69
102
{ACAD_REACTORS
330
16
102
}
330
16
100
AcDbVisualStyle
  2
Modeling
 70
10
 90
2
 40
0.6
 62
7
290
0
291
0
  0
VISUALSTYLE
  5
6A
102
{ACAD_REACTORS
330
16
102
}
330
16
100
AcDbVisualStyle
  2
OverhangOff
 70
21
 90
2
 40
0.6
 62
7
290
0
291
1
  0
VISUALSTYLE
  5
6B
102
{ACAD_REACTORS
330
16
102
}
330
16
100
AcDbVisualStyle
  2
Realistic
 70
8
 90
2
 40
0.6
 62
7
290
0
291
0
  0
VISUALSTYLE
  5
6C
102
{ACAD_REACTORS
330
16
102
}
330
16
100
AcDbVisualStyle
  2
Shaded
 70
27
 90
2
 40
0.6
 62
7
290
0
291
0
  0
VISUALSTYLE
  5
6D
102
{ACAD_REACTORS
330
16
102
}
330
16
100
AcDbVisualStyle
  2
Shaded with edges
 70
26
 90
2
 40
0.6
 62
7
290
0
291
0
  0
VISUALSTYLE
  5
6E
102
{ACAD_REACTORS
330
16
102
}
330
16
100
AcDbVisualStyle
  2
Shades of Gray
 70
23
 90
2
 40
0.6
 62
7
290
0
291
0
  0
VISUALSTYLE
  5
6F
102
{ACAD_REACTORS
330
16
102
}
330
16
100
AcDbVisualStyle
  2
Sketchy
 70
24
 90
1
 40
0.6
 62
7
290
0
291
0
  0
VISUALSTYLE
  5
70
102
{ACAD_REACTORS
330
16
102
}
330
16
100
AcDbVisualStyle
  2
Thicken
 70
13
 90
2
 40
0.6
 62
7
290
0
291
1
  0
VISUALSTYLE
  5
71
102
{ACAD_REACTORS
330
16
102
}
330
16
100
AcDbVisualStyle
  2
Wireframe
 70
5
 90
0
 40
0.6
 62
7
290
0
291
0
  0
VISUALSTYLE
  5
72
102
{ACAD_REACTORS
330
16
102
}
330
16
100
AcDbVisualStyle
  2
X-Ray
 70
25
 90
2
 40
0.5
 62
7
290
0
291
0
  0
DICTIONARYVAR
  5
93
330
2D
100
DictionaryVariables
280
0
  1
1.4.4 @ 2026-09-30T09:29:39.474725+00:00
  0
ENDSEC
  0
EOF
