  0
SECTION
  2
HEADER
  9
$ACADVER
  1
AC1024
  9
$ACADMAINTVER
 70
6
  9
$DWGCODEPAGE
  3
ANSI_1252
  9
$LASTSAVEDBY
  1
ezdxf
  9
$INSBASE
 10
0.0
 20
0.0
 30
0.0
  9
$EXTMIN
 10
1e+20
 20
1e+20
 30
1e+20
  9
$EXTMAX
 10
-1e+20
 20
-1e+20
 30
-1e+20
  9
$LIMMIN
 10
0.0
 20
0.0
  9
$LIMMAX
 10
420.0
 20
297.0
  9
$ORTHOMODE
 70
0
  9
$REGENMODE
 70
1
  9
$FILLMODE
 70
1
  9
$QTEXTMODE
 70
0
  9
$MIRRTEXT
 70
1
  9
$LTSCALE
 40
1.0
  9
$ATTMODE
 70
1
  9
$TEXTSIZE
 40
2.5
  9
$TRACEWID
 40
1.0
  9
$TEXTSTYLE
  7
OpenSans
  9
$CLAYER
  8
0
  9
$CELTYPE
  6
ByLayer
  9
$CECOLOR
 62
256
  9
$CELTSCALE
 40
1.0
  9
$DISPSILH
 70
0
  9
$DIMSCALE
 40
1.0
  9
$DIMASZ
 40
0.175
  9
$DIMEXO
 40
0.125
  9
$DIMDLI
 40
3.75
  9
$DIMRND
 40
0.0
  9
$DIMDLE
 40
0.0
  9
$DIMEXE
 40
0.375
  9
$DIMTP
 40
0.0
  9
$DIMTM
 40
0.0
  9
$DIMTXT
 40
0.25
  9
$DIMCEN
 40
2.5
  9
$DIMTSZ
 40
0.0
  9
$DIMTOL
 70
0
  9
$DIMLIM
 70
0
  9
$DIMTIH
 70
0
  9
$DIMTOH
 70
0
  9
$DIMSE1
 70
0
  9
$DIMSE2
 70
0
  9
$DIMTAD
 70
1
  9
$DIMZIN
 70
12
  9
$DIMBLK
  1
ARCHTICK
  9
$DIMASO
 70
1
  9
$DIMSHO
 70
1
  9
$DIMPOST
  1

  9
$DIMAPOST
  1

  9
$DIMALT
 70
0
  9
$DIMALTD
 70
3
  9
$DIMALTF
 40
0.03937007874
  9
$DIMLFAC
 40
100.0
  9
$DIMTOFL
 70
1
  9
$DIMTVP
 40
0.0
  9
$DIMTIX
 70
0
  9
$DIMSOXD
 70
0
  9
$DIMSAH
 70
0
  9
$DIMBLK1
  1

  9
$DIMBLK2
  1

  9
$DIMSTYLE
  2
EZDXF
  9
$DIMCLRD
 70
0
  9
$DIMCLRE
 70
0
  9
$DIMCLRT
 70
0
  9
$DIMTFAC
 40
0.5
  9
$DIMGAP
 40
0.1
  9
$DIMJUST
 70
0
  9
$DIMSD1
 70
0
  9
$DIMSD2
 70
0
  9
$DIMTOLJ
 70
0
  9
$DIMTZIN
 70
8
  9
$DIMALTZ
 70
0
  9
$DIMALTTZ
 70
0
  9
$DIMUPT
 70
1
  9
$DIMDEC
 70
2
  9
$DIMTDEC
 70
2
  9
$DIMALTU
 70
2
  9
$DIMALTTD
 70
3
  9
$DIMTXSTY
  7
OpenSansCondensed-Light
  9
$DIMAUNIT
 70
0
  9
$DIMADEC
 70
2
  9
$DIMALTRND
 40
0.0
  9
$DIMAZIN
 70
3
  9
$DIMDSEP
 70
46
  9
$DIMATFIT
 70
3
  9
$DIMFRAC
 70
0
  9
$DIMLDRBLK
  1

  9
$DIMLUNIT
 70
2
  9
$DIMLWD
 70
-2
  9
$DIMLWE
 70
-2
  9
$DIMTMOVE
 70
2
  9
$DIMFXL
 40
1.0
  9
$DIMFXLON
 70
0
  9
$DIMJOGANG
 40
0.785398163397
  9
$DIMTFILL
 70
0
  9
$DIMTFILLCLR
 70
0
  9
$DIMARCSYM
 70
0
  9
$DIMLTYPE
  6

  9
$DIMLTEX1
  6

  9
$DIMLTEX2
  6

  9
$DIMTXTDIRECTION
 70
0
  9
$LUNITS
 70
2
  9
$LUPREC
 70
4
  9
$SKETCHINC
 40
1.0
  9
$FILLETRAD
 40
10.0
  9
$AUNITS
 70
0
  9
$AUPREC
 70
2
  9
$MENU
  1
.
  9
$ELEVATION
 40
0.0
  9
$PELEVATION
 40
0.0
  9
$THICKNESS
 40
0.0
  9
$LIMCHECK
 70
0
  9
$CHAMFERA
 40
0.0
  9
$CHAMFERB
 40
0.0
  9
$CHAMFERC
 40
0.0
  9
$CHAMFERD
 40
0.0
  9
$SKPOLY
 70
0
  9
$TDCREATE
 40
2461314.4789236113
  9
$TDUCREATE
 40
2458532.153996898
  9
$TDUPDATE
 40
2461314.4789236113
  9
$TDUUPDATE
 40
2458532.1544311
  9
$TDINDWG
 40
0.0
  9
$TDUSRTIMER
 40
0.0
  9
$USRTIMER
 70
1
  9
$ANGBASE
 50
0.0
  9
$ANGDIR
 70
0
  9
$PDMODE
 70
0
  9
$PDSIZE
 40
0.0
  9
$PLINEWID
 40
0.0
  9
$SPLFRAME
 70
0
  9
$SPLINETYPE
 70
6
  9
$SPLINESEGS
 70
8
  9
$HANDSEED
  5
93
  9
$SURFTAB1
 70
6
  9
$SURFTAB2
 70
6
  9
$SURFTYPE
 70
6
  9
$SURFU
 70
6
  9
$SURFV
 70
6
  9
$UCSBASE
  2

  9
$UCSNAME
  2

  9
$UCSORG
 10
0.0
 20
0.0
 30
0.0
  9
$UCSXDIR
 10
1.0
 20
0.0
 30
0.0
  9
$UCSYDIR
 10
0.0
 20
1.0
 30
0.0
  9
$UCSORTHOREF
  2

  9
$UCSORTHOVIEW
 70
0
  9
$UCSORGTOP
 10
0.0
 20
0.0
 30
0.0
  9
$UCSORGBOTTOM
 10
0.0
 20
0.0
 30
0.0
  9
$UCSORGLEFT
 10
0.0
 20
0.0
 30
0.0
  9
$UCSORGRIGHT
 10
0.0
 20
0.0
 30
0.0
  9
$UCSORGFRONT
 10
0.0
 20
0.0
 30
0.0
  9
$UCSORGBACK
 10
0.0
 20
0.0
 30
0.0
  9
$PUCSBASE
  2

  9
$PUCSNAME
  2

  9
$PUCSORG
 10
0.0
 20
0.0
 30
0.0
  9
$PUCSXDIR
 10
1.0
 20
0.0
 30
0.0
  9
$PUCSYDIR
 10
0.0
 20
1.0
 30
0.0
  9
$PUCSORTHOREF
  2

  9
$PUCSORTHOVIEW
 70
0
  9
$PUCSORGTOP
 10
0.0
 20
0.0
 30
0.0
  9
$PUCSORGBOTTOM
 10
0.0
 20
0.0
 30
0.0
  9
$PUCSORGLEFT
 10
0.0
 20
0.0
 30
0.0
  9
$PUCSORGRIGHT
 10
0.0
 20
0.0
 30
0.0
  9
$PUCSORGFRONT
 10
0.0
 20
0.0
 30
0.0
  9
$PUCSORGBACK
 10
0.0
 20
0.0
 30
0.0
  9
$USERI1
 70
0
  9
$USERI2
 70
0
  9
$USERI3
 70
0
  9
$USERI4
 70
0
  9
$USERI5
 70
0
  9
$USERR1
 40
0.0
  9
$USERR2
 40
0.0
  9
$USERR3
 40
0.0
  9
$USERR4
 40
0.0
  9
$USERR5
 40
0.0
  9
$WORLDVIEW
 70
1
  9
$SHADEDGE
 70
3
  9
$SHADEDIF
 70
70
  9
$TILEMODE
 70
1
  9
$MAXACTVP
 70
64
  9
$PINSBASE
 10
0.0
 20
0.0
 30
0.0
  9
$PLIMCHECK
 70
0
  9
$PEXTMIN
 10
1e+20
 20
1e+20
 30
1e+20
  9
$PEXTMAX
 10
-1e+20
 20
-1e+20
 30
-1e+20
  9
$PLIMMIN
 10
0.0
 20
0.0
  9
$PLIMMAX
 10
420.0
 20
297.0
  9
$UNITMODE
 70
0
  9
$VISRETAIN
 70
1
  9
$PLINEGEN
 70
0
  9
$PSLTSCALE
 70
1
  9
$TREEDEPTH
 70
3020
  9
$CMLSTYLE
  2
Standard
  9
$CMLJUST
 70
0
  9
$CMLSCALE
 40
20.0
  9
$PROXYGRAPHICS
 70
1
  9
$MEASUREMENT
 70
1
  9
$CELWEIGHT
370
-1
  9
$ENDCAPS
280
0
  9
$JOINSTYLE
280
0
  9
$LWDISPLAY
290
0
  9
$INSUNITS
 70
4
  9
$HYPERLINKBASE
  1

  9
$STYLESHEET
  1

  9
$XEDIT
290
1
  9
$CEPSNTYPE
380
0
  9
$PSTYLEMODE
290
1
  9
$FINGERPRINTGUID
  2
{CDE4E1D1-293C-470D-BBD9-65D2C37ED614}
  9
$VERSIONGUID
  2
{524F7954-8FF7-4656-94C3-2373EC6432E5}
  9
$EXTNAMES
290
1
  9
$PSVPSCALE
 40
0.0
  9
$OLESTARTUP
290
0
  9
$SORTENTS
280
127
  9
$INDEXCTL
280
0
  9
$HIDETEXT
280
1
  9
$XCLIPFRAME
280
1
  9
$HALOGAP
280
0
  9
$OBSCOLOR
 70
257
  9
$OBSLTYPE
280
0
  9
$INTERSECTIONDISPLAY
280
0
  9
$INTERSECTIONCOLOR
 70
257
  9
$DIMASSOC
280
2
  9
$PROJECTNAME
  1

  9
$CAMERADISPLAY
290
0
  9
$LENSLENGTH
 40
50.0
  9
$CAMERAHEIGHT
 40
0.0
  9
$STEPSPERSEC
 40
24.0
  9
$STEPSIZE
 40
100.0
  9
$3DDWFPREC
 40
2.0
  9
$PSOLWIDTH
 40
0.005
  9
$PSOLHEIGHT
 40
0.08
  9
$LOFTANG1
 40
1.570796326795
  9
$LOFTANG2
 40
1.570796326795
  9
$LOFTMAG1
 40
0.0
  9
$LOFTMAG2
 40
0.0
  9
$LOFTPARAM
 70
7
  9
$LOFTNORMALS
280
1
  9
$LATITUDE
 40
37.795
  9
$LONGITUDE
 40
-122.394
  9
$NORTHDIRECTION
 40
0.0
  9
$TIMEZONE
 70
-8000
  9
$LIGHTGLYPHDISPLAY
280
1
  9
$TILEMODELIGHTSYNCH
280
1
  9
$CMATERIAL
347
20
  9
$SOLIDHIST
280
0
  9
$SHOWHIST
280
1
  9
$DWFFRAME
280
2
  9
$DGNFRAME
280
2
  9
$REALWORLDSCALE
290
1
  9
$INTERFERECOLOR
 62
256
  9
$CSHADOW
280
0
  9
$SHADOWPLANELOCATION
 40
0.0
  0
ENDSEC
  0
SECTION
  2
CLASSES
  0
CLASS
  1
ACDBDICTIONARYWDFLT
  2
AcDbDictionaryWithDefault
  3
ObjectDBX Classes
 90
0
 91
0
280
0
281
0
  0
CLASS
  1
SUN
  2
AcDbSun
  3
SCENEOE
 90
1153
 91
0
280
0
281
0
  0
CLASS
  1
VISUALSTYLE
  2
AcDbVisualStyle
  3
ObjectDBX Classes
 90
4095
 91
0
280
0
281
0
  0
CLASS
  1
MATERIAL
  2
AcDbMaterial
  3
ObjectDBX Classes
 90
1153
 91
0
280
0
281
0
  0
CLASS
  1
SCALE
  2
AcDbScale
  3
ObjectDBX Classes
 90
1153
 91
0
280
0
281
0
  0
CLASS
  1
TABLESTYLE
  2
AcDbTableStyle
  3
ObjectDBX Classes
 90
4095
 91
0
280
0
281
0
  0
CLASS
  1
MLEADERSTYLE
  2
AcDbMLeaderStyle
  3
ACDB_MLEADERSTYLE_CLASS
 90
4095
 91
0
280
0
281
0
  0
CLASS
  1
DICTIONARYVAR
  2
AcDbDictionaryVar
  3
ObjectDBX Classes
 90
0
 91
0
280
0
281
0
  0
CLASS
  1
CELLSTYLEMAP
  2
AcDbCellStyleMap
  3
ObjectDBX Classes
 90
1152
 91
0
280
0
281
0
  0
CLASS
  1
MENTALRAYRENDERSETTINGS
  2
AcDbMentalRayRenderSettings
  3
SCENEOE
 90
1024
 91
0
280
0
281
0
  0
CLASS
  1
ACDBDETAILVIEWSTYLE
  2
AcDbDetailViewStyle
  3
ObjectDBX Classes
 90
1025
 91
0
280
0
281
0
  0
CLASS
  1
ACDBSECTIONVIEWSTYLE
  2
AcDbSectionViewStyle
  3
ObjectDBX Classes
 90
1025
 91
0
280
0
281
0
  0
CLASS
  1
RASTERVARIABLES
  2
AcDbRasterVariables
  3
ISM
 90
0
 91
0
280
0
281
0
  0
CLASS
  1
ACDBPLACEHOLDER
  2
AcDbPlaceHolder
  3
ObjectDBX Classes
 90
0
 91
0
280
0
281
0
  0
CLASS
  1
LAYOUT
  2
AcDbLayout
  3
ObjectDBX Classes
 90
0
 91
0
280
0
281
0
  0
ENDSEC
  0
SECTION
  2
TABLES
  0
TABLE
  2
VPORT
  5
8
330
0
100
AcDbSymbolTable
 70
1
  0
VPORT
  5
23
330
8
100
AcDbSymbolTableRecord
100
AcDbViewportTableRecord
  2
*Active
 70
0
 10
0.0
 20
0.0
 11
1.0
 21
1.0
 12
0.0
 22
0.0
 13
0.0
 23
0.0
 14
0.5
 24
0.5
 15
0.5
 25
0.5
 16
0.0
 26
0.0
 36
1.0
 17
0.0
 27
0.0
 37
0.0
 40
1000.0
 41
1.34
 42
50.0
 43
0.0
 44
0.0
 50
0.0
 51
0.0
 71
0
 72
1000
 73
1
 74
3
 75
0
 76
0
 77
0
 78
0
281
0
 65
0
146
0.0
  0
ENDTAB
  0
TABLE
  2
LTYPE
  5
2
330
0
100
AcDbSymbolTable
 70
21
  0
LTYPE
  5
24
330
2
100
AcDbSymbolTableRecord
100
AcDbLinetypeTableRecord
  2
ByBlock
 70
0
  3

 72
65
 73
0
 40
0.0
  0
LTYPE
  5
25
330
2
100
AcDbSymbolTableRecord
100
AcDbLinetypeTableRecord
  2
ByLayer
 70
0
  3

 72
65
 73
0
 40
0.0
  0
LTYPE
  5
26
330
2
100
AcDbSymbolTableRecord
100
AcDbLinetypeTableRecord
  2
Continuous
 70
0
  3

 72
65
 73
0
 40
0.0
  0
LTYPE
  5
2F
330
2
100
AcDbSymbolTableRecord
100
AcDbLinetypeTableRecord
  2
CENTER
 70
0
  3
Center ____ _ ____ _ ____ _ ____ _ ____ _ ____
 72
65
 73
4
 40
5.08
 49
3.175
 74
0
 49
-0.635
 74
0
 49
0.635
 74
0
 49
-0.635
 74
0
  0
LTYPE
  5
30
330
2
100
AcDbSymbolTableRecord
100
AcDbLinetypeTableRecord
  2
CENTERX2
 70
0
  3
Center (2x) ________  __  ________  __  ________
 72
65
 73
4
 40
8.89
 49
6.35
 74
0
 49
-0.635
 74
0
 49
1.27
 74
0
 49
-0.635
 74
0
  0
LTYPE
  5
31
330
2
100
AcDbSymbolTableRecord
100
AcDbLinetypeTableRecord
  2
CENTER2
 70
0
  3
Center (.5x) ____ _ ____ _ ____ _ ____ _ ____
 72
65
 73
4
 40
2.54
 49
1.587
 74
0
 49
-0.318
 74
0
 49
0.318
 74
0
 49
-0.318
 74
0
  0
LTYPE
  5
32
330
2
100
AcDbSymbolTableRecord
100
AcDbLinetypeTableRecord
  2
DASHED
 70
0
  3
Dashed __ __ __ __ __ __ __ __ __ __ __ __ __ _
 72
65
 73
2
 40
1.524
 49
1.27
 74
0
 49
-0.254
 74
0
  0
LTYPE
  5
33
330
2
100
AcDbSymbolTableRecord
100
AcDbLinetypeTableRecord
  2
DASHEDX2
 70
0
  3
Dashed (2x) ____  ____  ____  ____  ____  ____
 72
65
 73
2
 40
3.048
 49
2.54
 74
0
 49
-0.508
 74
0
  0
LTYPE
  5
34
330
2
100
AcDbSymbolTableRecord
100
AcDbLinetypeTableRecord
  2
DASHED2
 70
0
  3
Dashed (.5x) _ _ _ _ _ _ _ _ _ _ _ _ _ _
 72
65
 73
2
 40
0.762
 49
0.635
 74
0
 49
-0.127
 74
0
  0
LTYPE
  5
35
330
2
100
AcDbSymbolTableRecord
100
AcDbLinetypeTableRecord
  2
PHANTOM
 70
0
  3
Phantom ______  __  __  ______  __  __  ______
 72
65
 73
6
 40
6.35
 49
3.175
 74
0
 49
-0.635
 74
0
 49
0.635
 74
0
 49
-0.635
 74
0
 49
0.635
 74
0
 49
-0.635
 74
0
  0
LTYPE
  5
36
330
2
100
AcDbSymbolTableRecord
100
AcDbLinetypeTableRecord
  2
PHANTOMX2
 70
0
  3
Phantom (2x)____________    ____    ____    ____________
 72
65
 73
6
 40
10.795
 49
6.35
 74
0
 49
-0.635
 74
0
 49
1.27
 74
0
 49
-0.635
 74
0
 49
1.27
 74
0
 49
-0.635
 74
0
  0
LTYPE
  5
37
330
2
100
AcDbSymbolTableRecord
100
AcDbLinetypeTableRecord
  2
PHANTOM2
 70
0
  3
Phantom (.5x) ___ _ _ ___ _ _ ___ _ _ ___ _ _ ___
 72
65
 73
6
 40
3.175
 49
1.587
 74
0
 49
-0.318
 74
0
 49
0.318
 74
0
 49
-0.318
 74
0
 49
0.318
 74
0
 49
-0.318
 74
0
  0
LTYPE
  5
38
330
2
100
AcDbSymbolTableRecord
100
AcDbLinetypeTableRecord
  2
DASHDOT
 70
0
  3
Dash dot __ . __ . __ . __ . __ . __ . __ . __
 72
65
 73
4
 40
3.556
 49
2.54
 74
0
 49
-0.508
 74
0
 49
0.0
 74
0
 49
-0.508
 74
0
  0
LTYPE
  5
39
330
2
100
AcDbSymbolTableRecord
100
AcDbLinetypeTableRecord
  2
DASHDOTX2
 70
0
  3
Dash dot (2x) ____  .  ____  .  ____  .  ____
 72
65
 73
4
 40
6.096
 49
5.08
 74
0
 49
-0.508
 74
0
 49
0.0
 74
0
 49
-0.508
 74
0
  0
LTYPE
  5
3A
330
2
100
AcDbSymbolTableRecord
100
AcDbLinetypeTableRecord
  2
DASHDOT2
 70
0
  3
Dash dot (.5x) _ . _ . _ . _ . _ . _ . _ . _
 72
65
 73
4
 40
1.778
 49
1.27
 74
0
 49
-0.254
 74
0
 49
0.0
 74
0
 49
-0.254
 74
0
  0
LTYPE
  5
3B
330
2
100
AcDbSymbolTableRecord
100
AcDbLinetypeTableRecord
  2
DOT
 70
0
  3
Dot .  .  .  .  .  .  .  .  .  .  .  .  .  .  .  .
 72
65
 73
2
 40
0.508
 49
0.0
 74
0
 49
-0.508
 74
0
  0
LTYPE
  5
3C
330
2
100
AcDbSymbolTableRecord
100
AcDbLinetypeTableRecord
  2
DOTX2
 70
0
  3
Dot (2x) .    .    .    .    .    .    .    . 
 72
65
 73
2
 40
1.016
 49
0.0
 74
0
 49
-1.016
 74
0
  0
LTYPE
  5
3D
330
2
100
AcDbSymbolTableRecord
100
AcDbLinetypeTableRecord
  2
DOT2
 70
0
  3
Dot (.5) . . . . . . . . . . . . . . . . . . . 
 72
65
 73
2
 40
0.254
 49
0.0
 74
0
 49
-0.254
 74
0
  0
LTYPE
  5
3E
330
2
100
AcDbSymbolTableRecord
100
AcDbLinetypeTableRecord
  2
DIVIDE
 70
0
  3
Divide __ . . __ . . __ . . __ . . __ . . __
 72
65
 73
6
 40
4.064
 49
2.54
 74
0
 49
-0.508
 74
0
 49
0.0
 74
0
 49
-0.508
 74
0
 49
0.0
 74
0
 49
-0.508
 74
0
  0
LTYPE
  5
3F
330
2
100
AcDbSymbolTableRecord
100
AcDbLinetypeTableRecord
  2
DIVIDEX2
 70
0
  3
Divide (2x) ____  . .  ____  . .  ____  . .  ____
 72
65
 73
6
 40
6.604
 49
5.08
 74
0
 49
-0.508
 74
0
 49
0.0
 74
0
 49
-0.508
 74
0
 49
0.0
 74
0
 49
-0.508
 74
0
  0
LTYPE
  5
40
330
2
100
AcDbSymbolTableRecord
100
AcDbLinetypeTableRecord
  2
DIVIDE2
 70
0
  3
Divide(.5x) _ . _ . _ . _ . _ . _ . _ . _
 72
65
 73
6
 40
2.032
 49
1.27
 74
0
 49
-0.254
 74
0
 49
0.0
 74
0
 49
-0.254
 74
0
 49
0.0
 74
0
 49
-0.254
 74
0
  0
ENDTAB
  0
TABLE
  2
LAYER
  5
1
330
0
100
AcDbSymbolTable
 70
4
  0
LAYER
  5
27
330
1
100
AcDbSymbolTableRecord
100
AcDbLayerTableRecord
  2
0
 70
0
 62
7
  6
Continuous
370
-3
390
13
347
21
  0
LAYER
  5
28
330
1
100
AcDbSymbolTableRecord
100
AcDbLayerTableRecord
  2
Defpoints
 70
0
 62
7
  6
Continuous
290
0
370
-3
390
13
347
21
  0
LAYER
  5
8A
330
1
100
AcDbSymbolTableRecord
100
AcDbLayerTableRecord
  2
CORTE
 70
0
 62
1
  6
Continuous
370
-3
390
13
347
21
  0
LAYER
  5
8B
330
1
100
AcDbSymbolTableRecord
100
AcDbLayerTableRecord
  2
NOTAS
 70
0
 62
3
  6
Continuous
370
-3
390
13
347
21
  0
ENDTAB
  0
TABLE
  2
STYLE
  5
5
330
0
100
AcDbSymbolTable
 70
26
  0
STYLE
  5
29
330
5
100
AcDbSymbolTableRecord
100
AcDbTextStyleTableRecord
  2
Standard
 70
0
 40
0.0
 41
1.0
 50
0.0
 71
0
 42
2.5
  3
txt
  4

  0
STYLE
  5
41
330
5
100
AcDbSymbolTableRecord
100
AcDbTextStyleTableRecord
  2
OpenSans-Light
 70
0
 40
0.0
 41
1.0
 50
0.0
 71
0
 42
2.5
  3
OpenSans-Light.ttf
  4

  0
STYLE
  5
42
330
5
100
AcDbSymbolTableRecord
100
AcDbTextStyleTableRecord
  2
OpenSans-Light-Italic
 70
0
 40
0.0
 41
1.0
 50
0.0
 71
0
 42
2.5
  3
OpenSans-LightItalic.ttf
  4

  0
STYLE
  5
43
330
5
100
AcDbSymbolTableRecord
100
AcDbTextStyleTableRecord
  2
OpenSans
 70
0
 40
0.0
 41
1.0
 50
0.0
 71
0
 42
2.5
  3
OpenSans-Regular.ttf
  4

  0
STYLE
  5
44
330
5
100
AcDbSymbolTableRecord
100
AcDbTextStyleTableRecord
  2
OpenSans-Italic
 70
0
 40
0.0
 41
1.0
 50
0.0
 71
0
 42
2.5
  3
OpenSans-Italic.ttf
  4

  0
STYLE
  5
45
330
5
100
AcDbSymbolTableRecord
100
AcDbTextStyleTableRecord
  2
OpenSans-SemiBold
 70
0
 40
0.0
 41
1.0
 50
0.0
 71
0
 42
2.5
  3
OpenSans-SemiBold.ttf
  4

  0
STYLE
  5
46
330
5
100
AcDbSymbolTableRecord
100
AcDbTextStyleTableRecord
  2
OpenSans-SemiBoldItalic
 70
0
 40
0.0
 41
1.0
 50
0.0
 71
0
 42
2.5
  3
OpenSans-SemiBoldItalic.ttf
  4

  0
STYLE
  5
47
330
5
100
AcDbSymbolTableRecord
100
AcDbTextStyleTableRecord
  2
OpenSans-Bold
 70
0
 40
0.0
 41
1.0
 50
0.0
 71
0
 42
2.5
  3
OpenSans-Bold.ttf
  4

  0
STYLE
  5
48
330
5
100
AcDbSymbolTableRecord
100
AcDbTextStyleTableRecord
  2
OpenSans-BoldItalic
 70
0
 40
0.0
 41
1.0
 50
0.0
 71
0
 42
2.5
  3
OpenSans-BoldItalic.ttf
  4

  0
STYLE
  5
49
330
5
100
AcDbSymbolTableRecord
100
AcDbTextStyleTableRecord
  2
OpenSans-ExtraBold
 70
0
 40
0.0
 41
1.0
 50
0.0
 71
0
 42
2.5
  3
OpenSans-ExtraBold.ttf
  4

  0
STYLE
  5
4A
330
5
100
AcDbSymbolTableRecord
100
AcDbTextStyleTableRecord
  2
OpenSans-ExtraBoldItalic
 70
0
 40
0.0
 41
1.0
 50
0.0
 71
0
 42
2.5
  3
OpenSans-ExtraBoldItalic.ttf
  4

  0
STYLE
  5
4B
330
5
100
AcDbSymbolTableRecord
100
AcDbTextStyleTableRecord
  2
OpenSansCondensed-Bold
 70
0
 40
0.0
 41
1.0
 50
0.0
 71
0
 42
2.5
  3
OpenSansCondensed-Bold.ttf
  4

  0
STYLE
  5
4C
330
5
100
AcDbSymbolTableRecord
100
AcDbTextStyleTableRecord
  2
OpenSansCondensed-Light
 70
0
 40
0.0
 41
1.0
 50
0.0
 71
0
 42
2.5
  3
OpenSansCondensed-Light.ttf
  4

  0
STYLE
  5
4D
330
5
100
AcDbSymbolTableRecord
100
AcDbTextStyleTableRecord
  2
OpenSansCondensed-Italic
 70
0
 40
0.0
 41
1.0
 50
0.0
 71
0
 42
2.5
  3
OpenSansCondensed-LightItalic.ttf
  4

  0
STYLE
  5
4E
330
5
100
AcDbSymbolTableRecord
100
AcDbTextStyleTableRecord
  2
LiberationSans
 70
0
 40
0.0
 41
1.0
 50
0.0
 71
0
 42
2.5
  3
LiberationSans-Regular.ttf
  4

  0
STYLE
  5
4F
330
5
100
AcDbSymbolTableRecord
100
AcDbTextStyleTableRecord
  2
LiberationSans-Bold
 70
0
 40
0.0
 41
1.0
 50
0.0
 71
0
 42
2.5
  3
LiberationSans-Bold.ttf
  4

  0
STYLE
  5
50
330
5
100
AcDbSymbolTableRecord
100
AcDbTextStyleTableRecord
  2
LiberationSans-BoldItalic
 70
0
 40
0.0
 41
1.0
 50
0.0
 71
0
 42
2.5
  3
LiberationSans-BoldItalic.ttf
  4

  0
STYLE
  5
51
330
5
100
AcDbSymbolTableRecord
100
AcDbTextStyleTableRecord
  2
LiberationSans-Italic
 70
0
 40
0.0
 41
1.0
 50
0.0
 71
0
 42
2.5
  3
LiberationSans-Italic.ttf
  4

  0
STYLE
  5
52
330
5
100
AcDbSymbolTableRecord
100
AcDbTextStyleTableRecord
  2
LiberationSerif
 70
0
 40
0.0
 41
1.0
 50
0.0
 71
0
 42
2.5
  3
LiberationSerif-Regular.ttf
  4

  0
STYLE
  5
53
330
5
100
AcDbSymbolTableRecord
100
AcDbTextStyleTableRecord
  2
LiberationSerif-Bold
 70
0
 40
0.0
 41
1.0
 50
0.0
 71
0
 42
2.5
  3
LiberationSerif-Bold.ttf
  4

  0
STYLE
  5
54
330
5
100
AcDbSymbolTableRecord
100
AcDbTextStyleTableRecord
  2
LiberationSerif-BoldItalic
 70
0
 40
0.0
 41
1.0
 50
0.0
 71
0
 42
2.5
  3
LiberationSerif-BoldItalic.ttf
  4

  0
STYLE
  5
55
330
5
100
AcDbSymbolTableRecord
100
AcDbTextStyleTableRecord
  2
LiberationSerif-Italic
 70
0
 40
0.0
 41
1.0
 50
0.0
 71
0
 42
2.5
  3
LiberationSerif-Italic.ttf
  4

  0
STYLE
  5
56
330
5
100
AcDbSymbolTableRecord
100
AcDbTextStyleTableRecord
  2
LiberationMono
 70
0
 40
0.0
 41
1.0
 50
0.0
 71
0
 42
2.5
  3
LiberationMono-Regular.ttf
  4

  0
STYLE
  5
57
330
5
100
AcDbSymbolTableRecord
100
AcDbTextStyleTableRecord
  2
LiberationMono-Bold
 70
0
 40
0.0
 41
1.0
 50
0.0
 71
0
 42
2.5
  3
LiberationMono-Bold.ttf
  4

  0
STYLE
  5
58
330
5
100
AcDbSymbolTableRecord
100
AcDbTextStyleTableRecord
  2
LiberationMono-BoldItalic
 70
0
 40
0.0
 41
1.0
 50
0.0
 71
0
 42
2.5
  3
LiberationMono-BoldItalic.ttf
  4

  0
STYLE
  5
59
330
5
100
AcDbSymbolTableRecord
100
AcDbTextStyleTableRecord
  2
LiberationMono-Italic
 70
0
 40
0.0
 41
1.0
 50
0.0
 71
0
 42
2.5
  3
LiberationMono-Italic.ttf
  4

  0
ENDTAB
  0
TABLE
  2
VIEW
  5
7
330
0
100
AcDbSymbolTable
 70
0
  0
ENDTAB
  0
TABLE
  2
UCS
  5
6
330
0
100
AcDbSymbolTable
 70
0
  0
ENDTAB
  0
TABLE
  2
APPID
  5
3
330
0
100
AcDbSymbolTable
 70
3
  0
APPID
  5
2A
330
3
100
AcDbSymbolTableRecord
100
AcDbRegAppTableRecord
  2
ACAD
 70
0
  0
APPID
  5
90
330
3
100
AcDbSymbolTableRecord
100
AcDbRegAppTableRecord
  2
HATCHBACKGROUNDCOLOR
 70
0
  0
APPID
  5
91
330
3
100
AcDbSymbolTableRecord
100
AcDbRegAppTableRecord
  2
EZDXF
 70
0
  0
ENDTAB
  0
TABLE
  2
DIMSTYLE
  5
4
330
0
100
AcDbSymbolTable
 70
12
100
AcDbDimStyleTable
  0
DIMSTYLE
105
2B
330
4
100
AcDbSymbolTableRecord
100
AcDbDimStyleTableRecord
  2
Standard
 70
0
 40
1.0
 41
2.5
 42
0.625
 43
3.75
 44
1.25
 45
0.0
 46
0.0
 47
0.0
 48
0.0
 49
2.5
140
2.5
141
2.5
142
0.0
143
0.03937007874
144
1.0
145
0.0
146
1.0
147
0.625
148
0.0
 69
0
 70
0
 71
0
 72
0
 73
0
 74
0
 75
0
 76
0
 77
1
 78
8
 79
3
170
0
171
3
172
1
173
0
174
0
175
0
176
0
177
0
178
0
179
2
271
2
272
2
273
2
274
3
275
0
276
0
277
2
278
44
279
0
280
0
281
0
282
0
283
0
284
8
285
0
286
0
288
0
289
3
290
0
371
-2
372
-2
  0
DIMSTYLE
105
73
330
4
100
AcDbSymbolTableRecord
100
AcDbDimStyleTableRecord
  2
EZDXF
 70
0
 40
1.0
 41
0.175
 42
0.125
 43
3.75
 44
0.375
 45
0.0
 46
0.0
 47
0.0
 48
0.0
 49
2.5
140
0.25
141
2.5
142
0.0
143
0.03937007874
144
100.0
145
0.0
146
0.5
147
0.1
148
0.0
 69
0
 70
0
 71
0
 72
0
 73
0
 74
0
 75
0
 76
0
 77
1
 78
12
 79
3
170
0
171
3
172
1
173
0
174
0
175
0
176
0
177
0
178
0
179
2
271
2
272
2
273
2
274
3
275
0
276
0
277
2
278
46
279
2
280
0
281
0
282
0
283
0
284
8
285
0
286
0
288
1
289
3
290
0
340
4C
342
74
371
-2
372
-2
  0
DIMSTYLE
105
7C
330
4
100
AcDbSymbolTableRecord
100
AcDbDimStyleTableRecord
  2
EZ_M_100_H25_CM
 70
0
 40
1.0
 41
0.25
 42
0.125
 43
3.75
 44
0.375
 45
0.0
 46
0.0
 47
0.0
 48
0.0
 49
2.5
140
0.25
141
2.5
142
0.125
143
0.03937007874
144
100.0
145
0.0
146
0.5
147
0.1
148
0.0
 69
0
 70
0
 71
0
 72
0
 73
0
 74
0
 75
0
 76
0
 77
1
 78
12
 79
3
170
0
171
3
172
1
173
0
174
0
175
0
176
0
177
0
178
0
179
2
271
2
272
2
273
2
274
3
275
0
276
0
277
2
278
46
279
2
280
0
281
0
282
0
283
0
284
8
285
0
286
0
288
1
289
3
290
0
340
4C
371
-2
372
-2
  0
DIMSTYLE
105
7D
330
4
100
AcDbSymbolTableRecord
100
AcDbDimStyleTableRecord
  2
EZ_M_50_H25_CM
 70
0
 40
1.0
 41
0.125
 42
0.0625
 43
3.75
 44
0.1875
 45
0.0
 46
0.0
 47
0.0
 48
0.0
 49
2.5
140
0.125
141
2.5
142
0.0625
143
0.03937007874
144
100.0
145
0.0
146
0.5
147
0.05
148
0.0
 69
0
 70
0
 71
0
 72
0
 73
0
 74
0
 75
0
 76
0
 77
1
 78
12
 79
3
170
0
171
3
172
1
173
0
174
0
175
0
176
0
177
0
178
0
179
2
271
2
272
2
273
2
274
3
275
0
276
0
277
2
278
46
279
2
280
0
281
0
282
0
283
0
284
8
285
0
286
0
288
1
289
3
290
0
340
4C
371
-2
372
-2
  0
DIMSTYLE
105
7E
330
4
100
AcDbSymbolTableRecord
100
AcDbDimStyleTableRecord
  2
EZ_M_25_H25_CM
 70
0
 40
1.0
 41
0.0625
 42
0.03125
 43
3.75
 44
0.09375
 45
0.0
 46
0.0
 47
0.0
 48
0.0
 49
2.5
140
0.0625
141
2.5
142
0.03125
143
0.03937007874
144
100.0
145
0.0
146
0.5
147
0.025
148
0.0
 69
0
 70
0
 71
0
 72
0
 73
0
 74
0
 75
0
 76
0
 77
1
 78
12
 79
3
170
0
171
3
172
1
173
0
174
0
175
0
176
0
177
0
178
0
179
2
271
2
272
2
273
2
274
3
275
0
276
0
277
2
278
46
279
2
280
0
281
0
282
0
283
0
284
8
285
0
286
0
288
1
289
3
290
0
340
4C
371
-2
372
-2
  0
DIMSTYLE
105
7F
330
4
100
AcDbSymbolTableRecord
100
AcDbDimStyleTableRecord
  2
EZ_M_20_H25_CM
 70
0
 40
1.0
 41
0.05
 42
0.025
 43
3.75
 44
0.07500000000000001
 45
0.0
 46
0.0
 47
0.0
 48
0.0
 49
2.5
140
0.05
141
2.5
142
0.025
143
0.03937007874
144
100.0
145
0.0
146
0.5
147
0.020000000000000004
148
0.0
 69
0
 70
0
 71
0
 72
0
 73
0
 74
0
 75
0
 76
0
 77
1
 78
12
 79
3
170
0
171
3
172
1
173
0
174
0
175
0
176
0
177
0
178
0
179
2
271
2
272
2
273
2
274
3
275
0
276
0
277
2
278
46
279
2
280
0
281
0
282
0
283
0
284
8
285
0
286
0
288
1
289
3
290
0
340
4C
371
-2
372
-2
  0
DIMSTYLE
105
80
330
4
100
AcDbSymbolTableRecord
100
AcDbDimStyleTableRecord
  2
EZ_M_10_H25_CM
 70
0
 40
1.0
 41
0.025
 42
0.0125
 43
3.75
 44
0.037500000000000006
 45
0.0
 46
0.0
 47
0.0
 48
0.0
 49
2.5
140
0.025
141
2.5
142
0.0125
143
0.03937007874
144
100.0
145
0.0
146
0.5
147
0.010000000000000002
148
0.0
 69
0
 70
0
 71
0
 72
0
 73
0
 74
0
 75
0
 76
0
 77
1
 78
12
 79
3
170
0
171
3
172
1
173
0
174
0
175
0
176
0
177
0
178
0
179
2
271
2
272
2
273
2
274
3
275
0
276
0
277
2
278
46
279
2
280
0
281
0
282
0
283
0
284
8
285
0
286
0
288
1
289
3
290
0
340
4C
371
-2
372
-2
  0
DIMSTYLE
105
81
330
4
100
AcDbSymbolTableRecord
100
AcDbDimStyleTableRecord
  2
EZ_M_5_H25_CM
 70
0
 40
1.0
 41
0.0125
 42
0.00625
 43
3.75
 44
0.018750000000000003
 45
0.0
 46
0.0
 47
0.0
 48
0.0
 49
2.5
140
0.0125
141
2.5
142
0.00625
143
0.03937007874
144
100.0
145
0.0
146
0.5
147
0.005000000000000001
148
0.0
 69
0
 70
0
 71
0
 72
0
 73
0
 74
0
 75
0
 76
0
 77
1
 78
12
 79
3
170
0
171
3
172
1
173
0
174
0
175
0
176
0
177
0
178
0
179
2
271
2
272
2
273
2
274
3
275
0
276
0
277
2
278
46
279
2
280
0
281
0
282
0
283
0
284
8
285
0
286
0
288
1
289
3
290
0
340
4C
371
-2
372
-2
  0
DIMSTYLE
105
82
330
4
100
AcDbSymbolTableRecord
100
AcDbDimStyleTableRecord
  2
EZ_M_1_H25_CM
 70
0
 40
1.0
 41
0.0025
 42
0.00125
 43
3.75
 44
0.00375
 45
0.0
 46
0.0
 47
0.0
 48
0.0
 49
2.5
140
0.0025
141
2.5
142
0.00125
143
0.03937007874
144
100.0
145
0.0
146
0.5
147
0.001
148
0.0
 69
0
 70
0
 71
0
 72
0
 73
0
 74
0
 75
0
 76
0
 77
1
 78
12
 79
3
170
0
171
3
172
1
173
0
174
0
175
0
176
0
177
0
178
0
179
2
271
2
272
2
273
2
274
3
275
0
276
0
277
2
278
46
279
2
280
0
281
0
282
0
283
0
284
8
285
0
286
0
288
1
289
3
290
0
340
4C
371
-2
372
-2
  0
DIMSTYLE
105
83
330
4
100
AcDbSymbolTableRecord
100
AcDbDimStyleTableRecord
  2
EZ_RADIUS
 70
0
 40
1.0
 41
0.25
 42
0.125
 43
3.75
 44
0.375
 45
0.0
 46
0.0
 47
0.0
 48
0.0
 49
2.5
140
0.25
141
0.0
142
0.0
143
0.03937007874
144
100.0
145
0.0
146
0.5
147
0.1
148
0.0
 69
0
 70
0
 71
0
 72
0
 73
0
 74
0
 75
0
 76
0
 77
1
 78
12
 79
3
170
0
171
3
172
0
173
0
174
0
175
0
176
0
177
0
178
0
179
2
271
2
272
2
273
2
274
3
275
0
276
0
277
2
278
46
279
1
280
0
281
0
282
0
283
0
284
8
285
0
286
0
288
1
289
3
290
0
340
4C
342
84
371
-2
372
-2
  0
DIMSTYLE
105
88
330
4
100
AcDbSymbolTableRecord
100
AcDbDimStyleTableRecord
  2
EZ_RADIUS_INSIDE
 70
0
 40
1.0
 41
0.25
 42
0.125
 43
3.75
 44
0.375
 45
0.0
 46
0.0
 47
0.0
 48
0.0
 49
2.5
140
0.25
141
0.0
142
0.0
143
0.03937007874
144
100.0
145
0.0
146
0.5
147
0.1
148
0.0
 69
0
 70
0
 71
0
 72
0
 73
0
 74
0
 75
0
 76
0
 77
0
 78
12
 79
3
170
0
171
3
172
0
173
0
174
1
175
0
176
0
177
0
178
0
179
2
271
2
272
2
273
2
274
3
275
0
276
0
277
2
278
46
279
0
280
0
281
0
282
0
283
0
284
8
285
0
286
0
288
1
289
0
290
0
340
4C
342
84
371
-2
372
-2
  0
DIMSTYLE
105
89
330
4
100
AcDbSymbolTableRecord
100
AcDbDimStyleTableRecord
  2
EZ_CURVED
 70
0
 40
1.0
 41
0.25
 42
0.125
 43
3.75
 44
0.375
 45
0.0
 46
0.0
 47
0.0
 48
0.0
 49
2.5
140
0.25
141
2.5
142
0.0
143
0.03937007874
144
100.0
145
0.0
146
0.5
147
0.1
148
0.0
 69
0
 70
0
 71
0
 72
0
 73
0
 74
0
 75
0
 76
0
 77
1
 78
12
 79
2
 90
2
170
0
171
3
172
1
173
0
174
0
175
0
176
0
177
0
178
0
179
2
271
2
272
2
273
2
274
3
275
0
276
0
277
2
278
46
279
2
280
0
281
0
282
0
283
0
284
8
285
0
286
0
288
1
289
3
290
0
340
4C
371
-2
372
-2
  0
ENDTAB
  0
TABLE
  2
BLOCK_RECORD
  5
9
330
0
100
AcDbSymbolTable
 70
5
  0
BLOCK_RECORD
  5
17
330
9
100
AcDbSymbolTableRecord
100
AcDbBlockTableRecord
  2
*Model_Space
340
1A
 70
0
280
1
281
0
  0
BLOCK_RECORD
  5
1B
330
9
100
AcDbSymbolTableRecord
100
AcDbBlockTableRecord
  2
*Paper_Space
340
1E
 70
0
280
1
281
0
  0
BLOCK_RECORD
  5
74
330
9
100
AcDbSymbolTableRecord
100
AcDbBlockTableRecord
  2
_ARCHTICK
340
0
 70
0
280
1
281
0
  0
BLOCK_RECORD
  5
78
330
9
100
AcDbSymbolTableRecord
100
AcDbBlockTableRecord
  2
_CLOSEDFILLED
340
0
 70
0
280
1
281
0
  0
BLOCK_RECORD
  5
84
330
9
100
AcDbSymbolTableRecord
100
AcDbBlockTableRecord
  2
_CLOSEDBLANK
340
0
 70
0
280
1
281
0
  0
ENDTAB
  0
ENDSEC
  0
SECTION
  2
BLOCKS
  0
BLOCK
  5
18
330
17
100
AcDbEntity
  8
0
100
AcDbBlockBegin
  2
*Model_Space
 70
0
 10
0.0
 20
0.0
 30
0.0
  3
*Model_Space
  1

  0
ENDBLK
  5
19
330
17
100
AcDbEntity
  8
0
100
AcDbBlockEnd
  0
BLOCK
  5
1C
330
1B
100
AcDbEntity
  8
0
100
AcDbBlockBegin
  2
*Paper_Space
 70
0
 10
0.0
 20
0.0
 30
0.0
  3
*Paper_Space
  1

  0
ENDBLK
  5
1D
330
1B
100
AcDbEntity
  8
0
100
AcDbBlockEnd
  0
BLOCK
  5
75
330
74
100
AcDbEntity
  8
0
100
AcDbBlockBegin
  2
_ARCHTICK
 70
0
 10
0.0
 20
0.0
 30
0.0
  3
_ARCHTICK
  1

  0
LWPOLYLINE
  5
77
330
74
100
AcDbEntity
  8
0
  6
BYBLOCK
 62
0
100
AcDbPolyline
 90
2
 70
0
 43
0.15
 10
-0.5
 20
-0.5
 10
0.5
 20
0.5
  0
ENDBLK
  5
76
330
74
100
AcDbEntity
  8
0
100
AcDbBlockEnd
  0
BLOCK
  5
79
330
78
100
AcDbEntity
  8
0
100
AcDbBlockBegin
  2
_CLOSEDFILLED
 70
0
 10
0.0
 20
0.0
 30
0.0
  3
_CLOSEDFILLED
  1

  0
SOLID
  5
7B
330
78
100
AcDbEntity
  8
0
  6
BYBLOCK
 62
0
100
AcDbTrace
 10
-1.0
 20
0.16439898372402537
 30
0.0
 11
0.0
 21
0.0
 31
0.0
 12
-1.0
 22
-0.16439898372402537
 32
0.0
 13
-1.0
 23
-0.16439898372402537
 33
0.0
  0
ENDBLK
  5
7A
330
78
100
AcDbEntity
  8
0
100
AcDbBlockEnd
  0
BLOCK
  5
85
330
84
100
AcDbEntity
  8
0
100
AcDbBlockBegin
  2
_CLOSEDBLANK
 70
0
 10
0.0
 20
0.0
 30
0.0
  3
_CLOSEDBLANK
  1

  0
LWPOLYLINE
  5
87
330
84
100
AcDbEntity
  8
0
  6
BYBLOCK
 62
0
100
AcDbPolyline
 90
3
 70
1
 10
-1.0
 20
0.16439898372402537
 10
0.0
 20
0.0
 10
-1.0
 20
-0.16439898372402537
  0
ENDBLK
  5
86
330
84
100
AcDbEntity
  8
0
100
AcDbBlockEnd
  0
ENDSEC
  0
SECTION
  2
ENTITIES
  0
LWPOLYLINE
  5
8C
330
17
100
AcDbEntity
  8
CORTE
100
AcDbPolyline
 90
937
 70
1
 10
-59.11909628272206
 20
-54.15574890186238
 10
-59.28477039024078
 20
-54.267108982603936
 10
-59.460732169804295
 20
-54.361376843605015
 10
-59.64522425387982
 20
-54.43761101178708
 10
-59.83640408097755
 20
-54.4950501203782
 10
-60.03236229770333
 20
-54.53312051284459
 10
-60.23114182787419
 20
-54.55144197211947
 10
-60.4307574182527
 20
-54.54983151791151
 10
-60.62921546569109
 20
-54.528305234167725
 10
-60.824533927668185
 20
-54.487078108439675
 10
-61.014762117367106
 20
-54.42656188475728
 10
-61.19800018559746
 20
-54.3473609514541
 10
-61.37241809499154
 20
-54.25026630501304
 10
-61.536273896974414
 20
-54.13624765021721
 10
-61.687931128973275
 20
-54.00644371550295
 10
-61.86046914686153
 20
-53.82596472016755
 10
-62.241811672046445
 20
-53.384910578632734
 10
-62.25790596048391
 20
-53.36614041808393
 10
-62.67968222320181
 20
-52.87011664546946
 10
-62.69562126624965
 20
-52.8512144774942
 10
-63.113295105274524
 20
-52.35173138169968
 10
-63.129077820233064
 20
-52.332698490275334
 10
-63.542620864060154
 20
-51.829789999896946
 10
-63.55824617884977
 20
-51.81062767787937
 10
-63.96763033656649
 20
-51.304327954193965
 10
-63.98309718979959
 20
-51.28503750323061
 10
-64.388294652995
 20
-50.775380937873855
 10
-64.40360199405107
 20
-50.75596366831162
 10
-64.80458523870874
 20
-50.242984880936795
 10
-64.8197320277968
 20
-50.223442111744205
 10
-65.21647381615814
 20
-49.70717594767851
 10
-65.23145902439664
 20
-49.68750900634457
 10
-65.62393240681632
 20
-49.167990534215576
 10
-65.63875501630008
 20
-49.14820075666301
 10
-66.02693333307343
 20
-48.625465266020704
 10
-66.04159233693683
 20
-48.60555399652346
 10
-66.42544922011665
 20
-48.07963699543512
 10
-66.43994362261346
 20
-48.059605586511566
 10
-66.81945299778741
 20
-47.53054279916851
 10
-66.83378181435391
 20
-47.51039261149549
 10
-67.2089179024272
 20
-46.97821997577079
 10
-67.22308015973998
 20
-46.957952378104004
 10
-67.59381747869003
 20
-46.4227060431062
 10
-67.60781221474426
 20
-46.40232241217015
 10
-67.97412558134343
 20
-45.86403873579891
 10
-67.98795184551305
 20
-45.84354045620067
 10
-68.34981637703389
 20
-45.30225600268556
 10
-68.363473230136
 20
-45.2816444668211
 10
-68.72086434605879
 20
-44.73739600421213
 10
-68.73435086042042
 20
-44.71667261216705
 10
-69.08724428408573
 20
-44.16949710986275
 10
-69.10055954360062
 20
-44.14866326932693
 10
-69.44893130387291
 20
-43.59859789554078
 10
-69.46207440406951
 20
-43.57765502170374
 10
-69.8059008369509
 20
-43.024737140962145
 10
-69.81887088505458
 20
-43.00368665641571
 10
-70.15812863530456
 20
-42.447953827000504
 10
-70.1709247502904
 20
-42.426797161654726
 10
-70.50559077300409
 20
-41.8682871330652
 10
-70.51821208566606
 20
-41.84702572403601
 10
-70.84826364784486
 20
-41.285776434415915
 10
-70.86070930085232
 20
-41.264411725931716
 10
-71.18612398294252
 20
-40.70046129950185
 10
-71.1983931308926
 20
-40.678994742815085
 10
-71.51914882831791
 20
-40.112381487266816
 10
-71.53124063779747
 20
-40.0908145405481
 10
-71.84731556245043
 20
-39.52157694445881
 10
-71.85922921209608
 20
-39.49991107269167
 10
-72.17060189382009
 20
-38.92808780290706
 10
-72.18233657436897
 20
-38.90632447779695
 10
-72.48898586242298
 20
-38.33195437679313
 10
-72.50054077676862
 20
-38.310095076666435
 10
-72.80244584125599
 20
-37.73321715992554
 10
-72.81382020449995
 20
-37.71126336963355
 10
-73.11096053779409
 20
-37.131916822973544
 10
-73.12215357730675
 20
-37.10987003377775
 10
-73.41450899542463
 20
-36.528094210728135
 10
-73.42551995089084
 20
-36.50595592021175
 10
-73.71307059489028
 20
-35.92179033928893
 10
-73.72389871836717
 20
-35.89956205124306
 10
-74.00662505566616
 20
-35.31304639332542
 10
-74.0172696116259
 20
-35.290729617662876
 10
-74.29515243735996
 20
-34.70190372323338
 10
-74.30561270274283
 20
-34.67949997588048
 10
-74.57863314104968
 20
-34.088403842360165
 10
-74.58890840531906
 20
-34.06591464514099
 10
-74.85704791062118
 20
-33.47258842417294
 10
-74.86713747580362
 20
-33.45001530472343
 10
-75.13037783408033
 20
-32.85449929941773
 10
-75.14028101481735
 20
-32.83184379107256
 10
-75.39860434482645
 20
-32.23417845330369
 10
-75.40832046842306
 20
-32.21144209498726
 10
-75.6617092229269
 20
-31.611668022620496
 10
-75.67123762939195
 20
-31.58885235875473
 10
-75.91967459634834
 20
-30.987010292890307
 10
-75.92901463843968
 20
-30.96411687328935
 10
-76.17248294216633
 20
-30.36024769550622
 10
-76.18163398543926
 20
-30.337278075260397
 10
-76.42011708776123
 20
-29.73142280483686
 10
-76.429078510611
 20
-29.708378544208152
 10
-76.66256021198697
 20
-29.10057833532832
 10
-76.67133140568563
 20
-29.077460999657966
 10
-76.8997958463073
 20
-28.467757138618587
 10
-76.90837621504912
 20
-28.444568298210783
 10
-77.13180787591521
 20
-27.8330022006253
 10
-77.1401968368601
 20
-27.809743430632167
 10
-77.35858054083594
 20
-27.196356638603365
 10
-77.36677752414327
 20
-27.17302951893344
 10
-77.58009843698328
 20
-26.557863698255044
 10
-77.58810288585305
 20
-26.534469813459456
 10
-77.796346517222
 20
-25.9175667507471
 10
-77.80415788793036
 20
-25.894107689918847
 10
-78.0073100923766
 20
-25.27550928980282
 10
-78.01492785431935
 20
-25.251986646449343
 10
-78.21297483223421
 20
-24.631734928733835
 10
-78.22039846795654
 20
-24.60815030068716
 10
-78.41332676652165
 20
-23.986287397465418
 10
-78.42055577175499
 20
-23.962642386768902
 10
-78.60835228584857
 20
-23.33921053958418
 10
-78.61538616954432
 20
-23.31550675238543
 10
-78.79803814263407
 20
-22.690548309353336
 10
-78.80487642699931
 20
-22.666787355787275
 10
-78.9823714520085
 20
-22.04034476872046
 10
-78.9890136725357
 20
-22.016528262809185
 10
-79.1613396926841
 20
-21.388644084340335
 10
-79.1677853981848
 20
-21.36477364387619
 10
-79.33493070781162
 20
-20.735490524553256
 10
-79.3411794604447
 20
-20.711567770997306
 10
-79.50313270580004
 20
-20.080928456400034
 10
-79.50918408110589
 20
-20.056955014755562
 10
-79.66593426112199
 20
-19.42500234259185
 10
-79.67178784804611
 20
-19.400979841313223
 10
-79.82332431508847
 20
-18.76775673849472
 10
-79.82897971601001
 20
-18.743686809375887
 10
-79.97529217659998
 20
-18.109236289103325
 10
-79.9807490073626
 20
-18.08512056715065
 10
-80.12182752286981
 20
-17.449485726021145
 10
-80.12708541280523
 20
-17.425325849352923
 10
-80.26292040013074
 20
-16.788549864398245
 10
-80.26797899208437
 20
-16.76434747413125
 10
-80.39856122430739
 20
-16.126473599904084
 10
-80.4034201746633
 20
-16.102230340038506
 10
-80.52874078166967
 20
-15.46330190566555
 10
-80.5333997603704
 20
-15.439019422990578
 10
-80.65345022945553
 20
-14.799079829227539
 10
-80.65790892002833
 20
-14.774759773191695
 10
-80.77268109647386
 20
-14.133852489482289
 10
-80.7769391960522
 20
-14.109496512079987
 10
-80.88642528367919
 20
-13.467665073608496
 10
-80.89048250302177
 20
-13.443274829275733
 10
-80.99467506472307
 20
-12.800562833994292
 10
-80.9985311282323
 20
-12.776139979504396
 10
-81.09742308647657
 20
-12.132591085177376
 10
-81.10107773222136
 20
-12.108137279503383
 10
-81.19466236953218
 20
-11.463795200751994
 10
-81.19811534926127
 20
-11.439312104981274
 10
-81.28638630867641
 20
-10.79422061029584
 10
-81.28963738783688
 20
-10.76970988750875
 10
-81.37258867333767
 20
-10.123912796291085
 10
-81.37563763109355
 20
-10.099376111426746
 10
-81.45326360801303
 20
-9.452917291008404
 10
-81.45611023725586
 20
-9.428356310785471
 10
-81.52840563266155
 20
-8.781279673447981
 10
-81.5310497400268
 20
-8.756696066233317
 10
-81.59800964308042
 20
-8.109045566209806
 10
-81.60045104896051
 20
-8.084441001906713
 10
-81.66207091124716
 20
-7.436260632438204
 10
-81.66430944980458
 20
-7.411636782362385
 10
-81.72058508564639
 20
-6.762970572665563
 10
-81.72262060482248
 20
-6.738329109457079
 10
-81.77354819156075
 20
-6.0892211217528684
 10
-81.77538055308774
 20
-6.064563719245429
 10
-81.8209566313434
 20
-5.415058045758133
 10
-81.8225857107541
 20
-5.390386378860825
 10
-81.86280718466078
 20
-4.740527138848563
 10
-81.86423287129614
 20
-4.715842883441455
 10
-81.89909700871338
 20
-4.065674220158689
 10
-81.90031920572999
 20
-4.040979052982625
 10
-81.92982363842688
 20
-3.3905451307096004
 10
-81.93084226280398
 20
-3.3658407292451202
 10
-81.95498498662057
 20
-2.7151857302784697
 10
-81.95579996916568
 20
-2.6904737726302494
 10
-81.97457934414894
 20
-2.0396418942897907
 10
-81.9751906295025
 20
-2.01492405907397
 10
-81.98860538001807
 20
-1.3639595106826303
 10
-81.98901292665683
 20
-1.3392374769286381
 10
-81.99706214147527
 20
-0.6881844768326465
 10
-81.99726592171582
 20
-0.66345992383076
 10
-81.9999490540747
 20
-0.012362696382470761
 10
-81.9999490540747
 20
0.012362696382490164
 10
-81.99726592171582
 20
0.6634599238307433
 10
-81.99706214147527
 20
0.6881844768326372
 10
-81.98901292665683
 20
1.3392374769286617
 10
-81.98860538001807
 20
1.363959510682641
 10
-81.9751906295025
 20
2.01492405907399
 10
-81.97457934414894
 20
2.0396418942898107
 10
-81.95579996916568
 20
2.6904737726302694
 10
-81.95498498662057
 20
2.7151857302784896
 10
-81.93084226280398
 20
3.36584072924514
 10
-81.92982363842688
 20
3.3905451307096204
 10
-81.90031920572999
 20
4.040979052982635
 10
-81.89909700871338
 20
4.0656742201587095
 10
-81.86423287129614
 20
4.715842883441514
 10
-81.86280718466078
 20
4.740527138848548
 10
-81.8225857107541
 20
5.390386378860787
 10
-81.8209566313434
 20
5.415058045758208
 10
-81.77538055308774
 20
6.064563719245449
 10
-81.77354819156075
 20
6.089221121752888
 10
-81.72262060482248
 20
6.738329109457099
 10
-81.72058508564639
 20
6.762970572665583
 10
-81.66430944980458
 20
7.411636782362405
 10
-81.66207091124716
 20
7.436260632438223
 10
-81.60045104896051
 20
8.084441001906733
 10
-81.59800964308042
 20
8.109045566209826
 10
-81.53104974002663
 20
8.756696066235017
 10
-81.52840563266207
 20
8.781279673443127
 10
-81.45611023725533
 20
9.428356310790102
 10
-81.45326360801334
 20
9.452917291005974
 10
-81.37563763109314
 20
10.099376111430233
 10
-81.37258867333804
 20
10.123912796288147
 10
-81.28963738783703
 20
10.769709887507453
 10
-81.28638630867611
 20
10.794220610298034
 10
-81.19811534926076
 20
11.439312104984918
 10
-81.19466236953224
 20
11.463795200751557
 10
-81.10107773222124
 20
12.10813727950411
 10
-81.09742308647651
 20
12.132591085177857
 10
-80.99853112823257
 20
12.776139979502767
 10
-80.99467506472303
 20
12.800562833994631
 10
-80.89048250302153
 20
13.44327482927722
 10
-80.88642528367917
 20
13.467665073608611
 10
-80.7769391960524
 20
14.109496512078822
 10
-80.77268109647403
 20
14.133852489481342
 10
-80.65790892002886
 20
14.77475977318874
 10
-80.6534502294555
 20
14.799079829227603
 10
-80.5333997603697
 20
15.439019422994287
 10
-80.5287407816695
 20
15.463301905666468
 10
-80.40342017466303
 20
16.10223034003984
 10
-80.39856122430784
 20
16.126473599901956
 10
-80.26797899208462
 20
16.764347474130084
 10
-80.26292040013053
 20
16.788549864399208
 10
-80.1270854128055
 20
17.42532584935157
 10
-80.1218275228693
 20
17.44948572602336
 10
-79.98074900736275
 20
18.085120567150007
 10
-79.9752921765995
 20
18.109236289105414
 10
-79.82897971601042
 20
18.743686809374108
 10
-79.82332431508853
 20
18.767756738494477
 10
-79.67178784804558
 20
19.40097984131538
 10
-79.66593426112249
 20
19.425002342589824
 10
-79.50918408110599
 20
20.05695501475514
 10
-79.50313270579964
 20
20.080928456401637
 10
-79.3411794604455
 20
20.711567770994286
 10
-79.33493070781107
 20
20.735490524555335
 10
-79.1677853981844
 20
21.364773643877662
 10
-79.16133969268441
 20
21.388644084339187
 10
-78.9890136725355
 20
22.016528262809985
 10
-78.9823714520084
 20
22.04034476872086
 10
-78.80487642700002
 20
22.666787355784788
 10
-78.79803814263339
 20
22.690548309355677
 10
-78.61538616954482
 20
23.31550675238368
 10
-78.60835228584878
 20
23.339210539583373
 10
-78.42055577175377
 20
23.962642386772963
 10
-78.41332676652198
 20
23.98628739746442
 10
-78.22039846795688
 20
24.608150300686084
 10
-78.21297483223458
 20
24.631734928732673
 10
-78.01492785431881
 20
25.251986646451016
 10
-78.00731009237685
 20
25.275509289802052
 10
-77.80415788793049
 20
25.894107689918464
 10
-77.79634651722276
 20
25.917566750744797
 10
-77.58810288585207
 20
26.53446981346234
 10
-77.5800984369843
 20
26.55786369825208
 10
-77.36677752414188
 20
27.173029518937387
 10
-77.35858054083475
 20
27.196356638606797
 10
-77.14019683686061
 20
27.80974343063078
 10
-77.13180787591651
 20
27.83300220062176
 10
-76.90837621504893
 20
28.444568298211312
 10
-76.89979584630724
 20
28.467757138618733
 10
-76.67133140568589
 20
29.077460999657298
 10
-76.66256021198684
 20
29.10057833532866
 10
-76.42907851061044
 20
29.708378544209644
 10
-76.42011708776138
 20
29.731422804836487
 10
-76.181633985439
 20
30.337278075261107
 10
-76.17248294216563
 20
30.360247695508036
 10
-75.92901463844022
 20
30.96411687328806
 10
-75.9196745963479
 20
30.987010292891412
 10
-75.67123762939195
 20
31.58885235875476
 10
-75.66170922292818
 20
31.61166802261748
 10
-75.40832046842309
 20
32.21144209498724
 10
-75.39860434482556
 20
32.23417845330581
 10
-75.14028101481887
 20
32.831843791069055
 10
-75.13037783407901
 20
32.85449929942074
 10
-74.86713747580542
 20
33.450015304719365
 10
-74.85704791062065
 20
33.472588424174084
 10
-74.58890840531932
 20
34.06591464514046
 10
-74.57863314104972
 20
34.088403842360066
 10
-74.30561270274448
 20
34.67949997587687
 10
-74.29515243736043
 20
34.701903723232284
 10
-74.01726961162463
 20
35.290729617665576
 10
-74.0066250556674
 20
35.31304639332283
 10
-73.72389871836437
 20
35.8995620512488
 10
-73.71307059489011
 20
35.921790339289295
 10
-73.42551995089235
 20
36.50595592020868
 10
-73.4145089954252
 20
36.528094210726955
 10
-73.12215357730429
 20
37.10987003378261
 10
-73.11096053779328
 20
37.131916822975164
 10
-72.81382020450151
 20
37.711263369630544
 10
-72.80244584125779
 20
37.73321715992204
 10
-72.50054077676644
 20
38.3100950766705
 10
-72.48898586242348
 20
38.33195437679219
 10
-72.18233657436915
 20
38.90632447779667
 10
-72.17060189381945
 20
38.92808780290826
 10
-71.85922921209641
 20
39.49991107269105
 10
-71.84731556244972
 20
39.52157694446012
 10
-71.53124063779865
 20
40.09081454054599
 10
-71.5191488283176
 20
40.11238148726735
 10
-71.19839313089311
 20
40.67899474281417
 10
-71.18612398294262
 20
40.700461299501654
 10
-70.86070930085127
 20
41.264411725933535
 10
-70.84826364784514
 20
41.285776434415475
 10
-70.51821208566716
 20
41.84702572403417
 10
-70.505590773003
 20
41.86828713306704
 10
-70.17092475029143
 20
42.42679716165299
 10
-70.15812863530279
 20
42.44795382700343
 10
-69.81887088505547
 20
43.003686656414274
 10
-69.8059008369507
 20
43.02473714096248
 10
-69.46207440407049
 20
43.577655021702164
 10
-69.44893130387162
 20
43.598597895542824
 10
-69.10055954360108
 20
44.148663269326214
 10
-69.08724428408624
 20
44.16949710986197
 10
-68.73435086041992
 20
44.716672612167855
 10
-68.72086434605845
 20
44.737396004212684
 10
-68.36347323013634
 20
45.28164446682057
 10
-68.34981637703349
 20
45.30225600268616
 10
-67.98795184551327
 20
45.84354045620037
 10
-67.97412558134153
 20
45.864038735801735
 10
-67.60781221474618
 20
46.40232241216735
 10
-67.59381747869065
 20
46.42270604310529
 10
-67.22308015973921
 20
46.9579523781051
 10
-67.2089179024268
 20
46.978219975771346
 10
-66.83378181435171
 20
47.51039261149859
 10
-66.81945299778796
 20
47.53054279916774
 10
-66.43994362261438
 20
48.059605586510294
 10
-66.42544922011417
 20
48.079636995438534
 10
-66.04159233693986
 20
48.60555399651935
 10
-66.02693333307319
 20
48.62546526602106
 10
-65.63875501630068
 20
49.1482007566622
 10
-65.6239324068167
 20
49.167990534215036
 10
-65.23145902439649
 20
49.68750900634475
 10
-65.21647381615769
 20
49.70717594767911
 10
-64.81973202779601
 20
50.22344211174525
 10
-64.80458523870907
 20
50.24298488093636
 10
-64.40360199405158
 20
50.75596366831096
 10
-64.388294652995
 20
50.775380937873855
 10
-63.98309718979941
 20
51.285037503230846
 10
-63.96763033656646
 20
51.304327954194015
 10
-63.558246178849416
 20
51.81062767787979
 10
-63.542620864060034
 20
51.82978999989709
 10
-63.129077820233405
 20
52.33269849027493
 10
-63.11329510527449
 20
52.351731381699736
 10
-62.69562126624951
 20
52.85121447749438
 10
-62.679682223202704
 20
52.87011664546841
 10
-62.257905960483
 20
53.366140418084996
 10
-62.241811672045806
 20
53.384910578633466
 10
-61.860469146861654
 20
53.825964720167434
 10
-61.68793112897335
 20
54.0064437155029
 10
-61.5362738969744
 20
54.136247650217236
 10
-61.37241809499158
 20
54.250266305013035
 10
-61.1980001855975
 20
54.3473609514541
 10
-61.01476211736709
 20
54.4265618847573
 10
-60.82453392766823
 20
54.48707810843968
 10
-60.62921546569112
 20
54.52830523416774
 10
-60.43075741825272
 20
54.54983151791153
 10
-60.231141827874175
 20
54.55144197211949
 10
-60.03236229770335
 20
54.53312051284462
 10
-59.836404080977616
 20
54.49505012037824
 10
-59.645224253879725
 20
54.43761101178707
 10
-59.46073216980433
 20
54.36137684360506
 10
-59.284770390240816
 20
54.26710898260398
 10
-59.119096282722
 20
54.15574890186236
 10
-58.9268111763396
 20
53.996474066318314
 10
-10.214680840414566
 20
9.360030486710363
 10
-10.06829172137976
 20
9.23818986698716
 10
-9.910976678148538
 20
9.13082652147539
 10
-9.744162358010538
 20
9.038914099120095
 10
-9.569361554610985
 20
8.963286128651548
 10
-9.38815948883705
 20
8.904628459540172
 10
-9.202199432881297
 20
8.863473042214455
 10
-9.013167807853629
 20
8.840193103947362
 10
-8.822778890087461
 20
8.834999764159832
 10
-8.632759264834466
 20
8.847940119836235
 10
-8.444832168333065
 20
8.87889681841464
 10
-8.260701860248242
 20
8.92758912202526
 10
-8.082038168204702
 20
8.993575453425727
 10
-7.910461344574856
 20
9.076257400544876
 10
-7.7475273728512475
 20
9.17488514331886
 10
-7.594713856855959
 20
9.288564253605132
 10
-7.554663869128106
 20
9.32143242910633
 10
-7.2064471947448885
 20
9.593183389014214
 10
-7.088182934946095
 20
9.680894141898449
 10
-6.727051515198314
 20
9.935231583499842
 10
-6.60462594722228
 20
10.017033732756566
 10
-6.2314497793316255
 20
10.253344934877232
 10
-6.105157837094771
 20
10.32904141196389
 10
-5.720835935135855
 20
10.546757080219635
 10
-5.590981866989009
 20
10.616165525692638
 10
-5.196440096086386
 20
10.814761163968923
 10
-5.063336731853445
 20
10.877714366803737
 10
-4.659525577690986
 20
11.056711540813039
 10
-4.523493575035022
 20
11.113057841229912
 10
-4.111385854052731
 20
11.272025331101764
 10
-3.972752925983005
 20
11.321628985927697
 10
-3.5533414417771807
 20
11.46018382505506
 10
-3.412441567160274
 20
11.50292533474079
 10
-2.986736718732419
 20
11.62073373238025
 10
-2.843909337707684
 20
11.656510128885222
 10
-2.4129366853250587
 20
11.753288274288062
 10
-2.2685258815635523
 20
11.782013369139463
 10
-1.8333236760944043
 20
11.857528115276658
 10
-1.6876773478712221
 20
11.879132707204977
 10
-1.2492940295478066
 20
11.93320213243876
 10
-1.1027630516249165
 20
11.947634174089684
 10
-0.6622547242589397
 20
11.98012802043874
 10
-0.5151921025964857
 20
11.987352743759855
 10
-0.07361998933249192
 20
11.998192730702211
 10
0.07361998933249135
 20
11.998192730702211
 10
0.515192102596481
 20
11.987352743759855
 10
0.662254724258936
 20
11.98012802043874
 10
1.1027630516249083
 20
11.947634174089684
 10
1.2492940295478467
 20
11.933202132438756
 10
1.6876773478711553
 20
11.879132707204988
 10
1.833323676094352
 20
11.857528115276665
 10
2.2685258815635336
 20
11.782013369139467
 10
2.412936685325003
 20
11.753288274288073
 10
2.8439093377076845
 20
11.65651012888522
 10
2.9867367187324736
 20
11.620733732380234
 10
3.4124415671602346
 20
11.5029253347408
 10
3.5533414417772167
 20
11.460183825055045
 10
3.972752925983025
 20
11.321628985927688
 10
4.111385854052739
 20
11.27202533110176
 10
4.523493575034954
 20
11.113057841229939
 10
4.659525577691041
 20
11.056711540813014
 10
5.063336731853416
 20
10.87771436680375
 10
5.196440096086396
 20
10.814761163968917
 10
5.590981866988976
 20
10.616165525692656
 10
5.720835935135827
 20
10.54675708021965
 10
6.105157837094786
 20
10.329041411963884
 10
6.231449779331613
 20
10.25334493487724
 10
6.604625947222274
 20
10.017033732756571
 10
6.727051515198349
 20
9.93523158349982
 10
7.088182934946045
 20
9.680894141898486
 10
7.206447194744851
 20
9.593183389014243
 10
7.554663869128025
 20
9.321432429106391
 10
7.594713856855947
 20
9.288564253605138
 10
7.747527372851235
 20
9.174885143318864
 10
7.910461344574845
 20
9.076257400544879
 10
8.08203816820469
 20
8.993575453425729
 10
8.260701860248231
 20
8.92758912202526
 10
8.444832168333056
 20
8.87889681841464
 10
8.632759264834455
 20
8.847940119836231
 10
8.822778890087452
 20
8.834999764159829
 10
9.01316780785362
 20
8.840193103947358
 10
9.20219943288129
 20
8.86347304221445
 10
9.388159488837045
 20
8.904628459540167
 10
9.56936155461098
 20
8.963286128651543
 10
9.744162358010534
 20
9.03891409912009
 10
9.910976678148534
 20
9.130826521475385
 10
10.068291721379758
 20
9.238189866987154
 10
10.214680840414566
 20
9.360030486710357
 10
58.92681117633961
 20
53.996474066318314
 10
59.11909628272205
 20
54.155748901862395
 10
59.284770390240794
 20
54.267108982603965
 10
59.46073216980434
 20
54.36137684360506
 10
59.645224253879746
 20
54.43761101178708
 10
59.83640408097761
 20
54.49505012037824
 10
60.032362297703365
 20
54.53312051284462
 10
60.23114182787419
 20
54.55144197211949
 10
60.43075741825273
 20
54.54983151791153
 10
60.62921546569111
 20
54.528305234167746
 10
60.82453392766823
 20
54.48707810843968
 10
61.014762117367106
 20
54.42656188475729
 10
61.198000185597515
 20
54.34736095145409
 10
61.372418094991595
 20
54.25026630501303
 10
61.5362738969744
 20
54.136247650217236
 10
61.68793112897338
 20
54.00644371550287
 10
61.86046914686153
 20
53.825964720167576
 10
62.24181167204579
 20
53.38491057863349
 10
62.25790596048323
 20
53.366140418084726
 10
62.6796822232023
 20
52.8701166454689
 10
62.69562126624956
 20
52.851214477494324
 10
63.113295105275235
 20
52.35173138169885
 10
63.129077820232844
 20
52.33269849027562
 10
63.54262086405986
 20
51.8297899998973
 10
63.558246178848485
 20
51.81062767788092
 10
63.96763033656621
 20
51.30432795419431
 10
63.98309718979999
 20
51.28503750323009
 10
64.38829465299587
 20
50.775380937872754
 10
64.40360199405092
 20
50.75596366831182
 10
64.80458523870824
 20
50.24298488093742
 10
64.8197320277969
 20
50.2234421117441
 10
65.21647381615777
 20
49.707175947678984
 10
65.23145902439843
 20
49.687509006342204
 10
65.62393240681533
 20
49.16799053421687
 10
65.63875501629957
 20
49.14820075666367
 10
66.02693333307414
 20
48.625465266019745
 10
66.04159233693858
 20
48.60555399652105
 10
66.42544922011712
 20
48.0796369954345
 10
66.43994362261387
 20
48.05960558651104
 10
66.8194529977873
 20
47.530542799168686
 10
66.83378181435121
 20
47.51039261149932
 10
67.20891790242779
 20
46.978219975769946
 10
67.22308015974055
 20
46.95795237810317
 10
67.59381747869071
 20
46.422706043105215
 10
67.60781221474397
 20
46.40232241217057
 10
67.97412558134332
 20
45.86403873579909
 10
67.98795184551166
 20
45.84354045620277
 10
68.34981637703459
 20
45.30225600268454
 10
68.36347323013653
 20
45.28164446682029
 10
68.72086434605956
 20
44.73739600421097
 10
68.73435086041846
 20
44.71667261217008
 10
69.08724428408743
 20
44.16949710986005
 10
69.10055954360045
 20
44.148663269327166
 10
69.44893130387149
 20
43.59859789554302
 10
69.46207440406877
 20
43.577655021704906
 10
69.80590083695118
 20
43.02473714096166
 10
69.81887088505586
 20
43.00368665641361
 10
70.15812863530329
 20
42.44795382700265
 10
70.17092475029038
 20
42.426797161654754
 10
70.50559077300238
 20
41.868287133068044
 10
70.5182120856687
 20
41.84702572403157
 10
70.84826364784314
 20
41.285776434418864
 10
70.86070930085143
 20
41.26441172593324
 10
71.1861239829435
 20
40.70046129950015
 10
71.19839313089271
 20
40.67899474281488
 10
71.51914882831719
 20
40.112381487268074
 10
71.53124063779894
 20
40.09081454054547
 10
71.84731556244955
 20
39.52157694446039
 10
71.85922921209713
 20
39.49991107268971
 10
72.17060189381992
 20
38.9280878029074
 10
72.18233657436956
 20
38.90632447779591
 10
72.48898586242245
 20
38.33195437679411
 10
72.50054077676758
 20
38.310095076668354
 10
72.80244584125651
 20
37.733217159924486
 10
72.81382020450063
 20
37.711263369632235
 10
73.11096053779262
 20
37.13191682297643
 10
73.1221535773062
 20
37.10987003377885
 10
73.41450899542538
 20
36.52809421072657
 10
73.42551995089408
 20
36.50595592020521
 10
73.71307059488814
 20
35.921790339293324
 10
73.72389871836481
 20
35.89956205124786
 10
74.0066250556677
 20
35.31304639332221
 10
74.01726961162568
 20
35.290729617663395
 10
74.29515243735966
 20
34.70190372323398
 10
74.30561270274441
 20
34.67949997587707
 10
74.57863314104908
 20
34.08840384236147
 10
74.58890840531924
 20
34.06591464514061
 10
74.85704791062072
 20
33.472588424173935
 10
74.86713747580458
 20
33.45001530472125
 10
75.13037783407886
 20
32.85449929942111
 10
75.14028101481813
 20
32.83184379107077
 10
75.39860434482628
 20
32.23417845330404
 10
75.40832046842334
 20
32.211442094986594
 10
75.66170922292683
 20
31.61166802262066
 10
75.67123762939185
 20
31.58885235875497
 10
75.91967459634814
 20
30.987010292890787
 10
75.9290146384413
 20
30.964116873285406
 10
76.17248294216496
 20
30.360247695509656
 10
76.1816339854394
 20
30.33727807526008
 10
76.42011708776099
 20
29.73142280483753
 10
76.42907851061163
 20
29.708378544206564
 10
76.66256021198694
 20
29.10057833532844
 10
76.67133140568518
 20
29.077460999659227
 10
76.89979584630687
 20
28.467757138619696
 10
76.90837621504942
 20
28.444568298209962
 10
77.13180787591583
 20
27.833002200623657
 10
77.14019683686074
 20
27.809743430630427
 10
77.35858054083486
 20
27.196356638606492
 10
77.36677752414228
 20
27.17302951893628
 10
77.58009843698395
 20
26.557863698253094
 10
77.58810288585238
 20
26.534469813461392
 10
77.79634651722228
 20
25.917566750746253
 10
77.80415788793105
 20
25.894107689916762
 10
78.00731009237656
 20
25.275509289802947
 10
78.01492785431908
 20
25.251986646450153
 10
78.21297483223431
 20
24.631734928733483
 10
78.22039846795589
 20
24.608150300689218
 10
78.41332676652276
 20
23.986287397461787
 10
78.42055577175415
 20
23.962642386771687
 10
78.60835228584888
 20
23.339210539583075
 10
78.61538616954356
 20
23.31550675238793
 10
78.79803814263525
 20
22.690548309349193
 10
78.8048764269993
 20
22.666787355787374
 10
78.98237145200838
 20
22.040344768720917
 10
78.98901367253593
 20
22.01652826280843
 10
79.16133969268341
 20
21.388644084342886
 10
79.1677853981849
 20
21.364773643875782
 10
79.33493070781131
 20
20.735490524554407
 10
79.3411794604453
 20
20.711567770995043
 10
79.50313270579996
 20
20.08092845640042
 10
79.50918408110611
 20
20.056955014754667
 10
79.66593426112196
 20
19.425002342591974
 10
79.67178784804562
 20
19.400979841315223
 10
79.82332431508877
 20
18.767756738493432
 10
79.82897971601065
 20
18.743686809373152
 10
79.9752921765994
 20
18.10923628910589
 10
79.98074900736263
 20
18.085120567150483
 10
80.12182752286942
 20
17.449485726022733
 10
80.12708541280566
 20
17.425325849350873
 10
80.26292040013006
 20
16.788549864401507
 10
80.26797899208438
 20
16.76434747413124
 10
80.39856122430791
 20
16.126473599901512
 10
80.40342017466284
 20
16.102230340040734
 10
80.52874078166992
 20
15.463301905664306
 10
80.53339976037012
 20
15.439019422992107
 10
80.65345022945574
 20
14.799079829226352
 10
80.6579089200283
 20
14.77475977319185
 10
80.77268109647395
 20
14.13385248948185
 10
80.77693919605241
 20
14.109496512078763
 10
80.8864252836792
 20
13.46766507360843
 10
80.89048250302184
 20
13.443274829275344
 10
80.99467506472277
 20
12.800562833996208
 10
80.99853112823223
 20
12.776139979504892
 10
81.0974230864766
 20
12.132591085177214
 10
81.10107773222136
 20
12.10813727950335
 10
81.1946623695324
 20
11.463795200750557
 10
81.19811534926077
 20
11.439312104984783
 10
81.28638630867599
 20
10.794220610298927
 10
81.2896373878368
 20
10.769709887509123
 10
81.37258867333817
 20
10.123912796287037
 10
81.37563763109326
 20
10.099376111429217
 10
81.4532636080132
 20
9.452917291007125
 10
81.45611023725542
 20
9.42835631078946
 10
81.52840563266146
 20
8.781279673448873
 10
81.53104974002692
 20
8.756696066232271
 10
81.59800964308015
 20
8.109045566212357
 10
81.60045104896086
 20
8.084441001903107
 10
81.662070911247
 20
7.436260632439933
 10
81.66430944980473
 20
7.411636782360767
 10
81.72058508564636
 20
6.762970572665771
 10
81.72262060482227
 20
6.738329109459487
 10
81.77354819156065
 20
6.089221121754207
 10
81.77538055308806
 20
6.06456371924123
 10
81.82095663134315
 20
5.415058045761684
 10
81.82258571075421
 20
5.390386378858883
 10
81.86280718466072
 20
4.740527138849499
 10
81.8642328712962
 20
4.715842883440344
 10
81.89909700871335
 20
4.065674220159399
 10
81.90031920572986
 20
4.040979052985078
 10
81.92982363842698
 20
3.390545130706851
 10
81.93084226280398
 20
3.3658407292448684
 10
81.9549849866205
 20
2.7151857302804228
 10
81.95579996916575
 20
2.6904737726281582
 10
81.97457934414894
 20
2.0396418942897694
 10
81.9751906295025
 20
2.014924059074001
 10
81.98860538001807
 20
1.3639595106826343
 10
81.98901292665683
 20
1.3392374769286253
 10
81.99706214147527
 20
0.6881844768326465
 10
81.99726592171582
 20
0.6634599238307607
 10
81.9999490540747
 20
0.01236269638248053
 10
81.9999490540747
 20
-0.012362696382480358
 10
81.99726592171582
 20
-0.6634599238307514
 10
81.99706214147527
 20
-0.6881844768326395
 10
81.98901292665683
 20
-1.3392374769286282
 10
81.98860538001807
 20
-1.3639595106826332
 10
81.9751906295025
 20
-2.014924059074009
 10
81.97457934414894
 20
-2.0396418942897636
 10
81.9557999691657
 20
-2.6904737726301535
 10
81.95498498662056
 20
-2.7151857302785785
 10
81.93084226280396
 20
-3.365840729245428
 10
81.9298236384269
 20
-3.3905451307093037
 10
81.90031920573
 20
-4.040979052982261
 10
81.89909700871337
 20
-4.065674220159069
 10
81.8642328712962
 20
-4.715842883440301
 10
81.86280718466071
 20
-4.740527138849785
 10
81.82258571075413
 20
-5.3903863788604545
 10
81.82095663134338
 20
-5.415058045758641
 10
81.77538055308798
 20
-6.064563719242138
 10
81.77354819156062
 20
-6.089221121754474
 10
81.72262060482231
 20
-6.738329109458924
 10
81.72058508564632
 20
-6.762970572666374
 10
81.6643094498047
 20
-7.411636782361027
 10
81.66207091124701
 20
-7.436260632439797
 10
81.60045104896092
 20
-8.084441001902544
 10
81.5980096430801
 20
-8.10904556621287
 10
81.53104974002689
 20
-8.756696066232564
 10
81.52840563266153
 20
-8.781279673448214
 10
81.45611023725567
 20
-9.428356310787287
 10
81.4532636080133
 20
-9.452917291006335
 10
81.37563763109355
 20
-10.099376111426803
 10
81.37258867333775
 20
-10.123912796290526
 10
81.28963738783693
 20
-10.76970988750829
 10
81.28638630867611
 20
-10.79422061029806
 10
81.19811534926095
 20
-11.439312104983628
 10
81.19466236953231
 20
-11.46379520075101
 10
81.10107773222077
 20
-12.108137279507233
 10
81.0974230864768
 20
-12.132591085175891
 10
80.99853112823259
 20
-12.776139979502577
 10
80.99467506472308
 20
-12.800562833994114
 10
80.8904825030216
 20
-13.443274829276705
 10
80.88642528367899
 20
-13.467665073609684
 10
80.7769391960523
 20
-14.109496512079435
 10
80.77268109647379
 20
-14.133852489482702
 10
80.65790892002842
 20
-14.774759773191251
 10
80.65345022945591
 20
-14.799079829225477
 10
80.5333997603701
 20
-15.439019422992187
 10
80.52874078166924
 20
-15.463301905667896
 10
80.40342017466368
 20
-16.1022303400366
 10
80.3985612243072
 20
-16.126473599905143
 10
80.26797899208478
 20
-16.76434747412931
 10
80.26292040013017
 20
-16.788549864400938
 10
80.12708541280574
 20
-17.42532584935056
 10
80.12182752286957
 20
-17.44948572602218
 10
79.98074900736229
 20
-18.085120567152074
 10
79.9752921765997
 20
-18.109236289104615
 10
79.82897971601038
 20
-18.743686809374374
 10
79.82332431508877
 20
-18.767756738493457
 10
79.67178784804574
 20
-19.400979841314783
 10
79.66593426112217
 20
-19.425002342591167
 10
79.50918408110552
 20
-20.056955014757087
 10
79.5031327057998
 20
-20.080928456401125
 10
79.34117946044583
 20
-20.711567770993078
 10
79.33493070781168
 20
-20.73549052455304
 10
79.16778539818468
 20
-21.364773643876646
 10
79.16133969268432
 20
-21.388644084339507
 10
78.98901367253474
 20
-22.016528262812674
 10
78.98237145200856
 20
-22.040344768720225
 10
78.8048764269994
 20
-22.666787355786976
 10
78.79803814263421
 20
-22.690548309352856
 10
78.615386169545
 20
-23.315506752383033
 10
78.60835228584814
 20
-23.339210539585515
 10
78.42055577175447
 20
-23.962642386770643
 10
78.4133267665219
 20
-23.986287397464597
 10
78.2203984679562
 20
-24.608150300688287
 10
78.2129748322347
 20
-24.631734928732318
 10
78.01492785431877
 20
-25.25198664645112
 10
78.00731009237678
 20
-25.27550928980228
 10
77.80415788793078
 20
-25.894107689917604
 10
77.7963465172227
 20
-25.917566750745006
 10
77.58810288585286
 20
-26.534469813459967
 10
77.58009843698308
 20
-26.557863698255638
 10
77.36677752414282
 20
-27.17302951893476
 10
77.3585805408341
 20
-27.196356638608666
 10
77.14019683686101
 20
-27.809743430629684
 10
77.13180787591553
 20
-27.83300220062445
 10
76.90837621505013
 20
-28.444568298208004
 10
76.89979584630717
 20
-28.46775713861886
 10
76.67133140568548
 20
-29.077460999658385
 10
76.66256021198761
 20
-29.100578335326627
 10
76.42907851061084
 20
-29.70837854420858
 10
76.4201170877608
 20
-29.73142280483797
 10
76.18163398543909
 20
-30.33727807526083
 10
76.17248294216525
 20
-30.360247695508914
 10
75.92901463844004
 20
-30.964116873288507
 10
75.91967459634893
 20
-30.987010292888886
 10
75.67123762939129
 20
-31.58885235875637
 10
75.66170922292807
 20
-31.611668022617746
 10
75.40832046842404
 20
-32.211442094984996
 10
75.39860434482497
 20
-32.234178453307116
 10
75.14028101481784
 20
-32.8318437910714
 10
75.13037783407918
 20
-32.85449929942035
 10
74.8671374758046
 20
-33.45001530472123
 10
74.85704791062129
 20
-33.47258842417266
 10
74.58890840531927
 20
-34.06591464514054
 10
74.57863314104947
 20
-34.08840384236067
 10
74.30561270274316
 20
-34.67949997587975
 10
74.2951524373605
 20
-34.70190372323219
 10
74.01726961162501
 20
-35.29072961766477
 10
74.00662505566733
 20
-35.313046393323
 10
73.7238987183656
 20
-35.89956205124623
 10
73.71307059489025
 20
-35.92179033928898
 10
73.42551995089165
 20
-36.50595592021005
 10
73.41450899542494
 20
-36.52809421072743
 10
73.12215357730602
 20
-37.109870033779174
 10
73.11096053779325
 20
-37.131916822975185
 10
72.81382020450066
 20
-37.711263369632164
 10
72.80244584125606
 20
-37.733217159925374
 10
72.50054077676783
 20
-38.31009507666788
 10
72.48898586242242
 20
-38.331954376794194
 10
72.18233657436957
 20
-38.90632447779588
 10
72.17060189382154
 20
-38.928087802904365
 10
71.85922921209551
 20
-39.499911072692655
 10
71.84731556244947
 20
-39.52157694446055
 10
71.53124063779926
 20
-40.09081454054489
 10
71.51914882831693
 20
-40.11238148726854
 10
71.19839313089147
 20
-40.67899474281705
 10
71.18612398294269
 20
-40.70046129950156
 10
70.86070930085135
 20
-41.26441172593341
 10
70.84826364784553
 20
-41.285776434414835
 10
70.51821208566649
 20
-41.847025724035305
 10
70.50559077300348
 20
-41.868287133066225
 10
70.17092475029213
 20
-42.42679716165187
 10
70.15812863530313
 20
-42.44795382700291
 10
69.81887088505516
 20
-43.00368665641474
 10
69.80590083695115
 20
-43.0247371409617
 10
69.46207440406924
 20
-43.57765502170416
 10
69.44893130387257
 20
-43.598597895541296
 10
69.10055954360165
 20
-44.148663269325255
 10
69.08724428408621
 20
-44.16949710986198
 10
68.73435086042002
 20
-44.71667261216767
 10
68.72086434605934
 20
-44.73739600421127
 10
68.36347323013626
 20
-45.281644466820694
 10
68.34981637703432
 20
-45.30225600268491
 10
67.98795184551194
 20
-45.84354045620232
 10
67.97412558134324
 20
-45.86403873579918
 10
67.60781221474436
 20
-46.40232241216997
 10
67.59381747869003
 20
-46.42270604310619
 10
67.22308015974103
 20
-46.95795237810248
 10
67.20891790242635
 20
-46.978219975772
 10
66.83378181435346
 20
-47.51039261149612
 10
66.81945299778603
 20
-47.53054279917044
 10
66.43994362261381
 20
-48.05960558651111
 10
66.4254492201154
 20
-48.079636995436886
 10
66.04159233694004
 20
-48.60555399651908
 10
66.02693333307371
 20
-48.62546526602031
 10
65.63875501629826
 20
-49.14820075666544
 10
65.62393240681801
 20
-49.16799053421333
 10
65.23145902439519
 20
-49.687509006346474
 10
65.21647381615873
 20
-49.70717594767775
 10
64.81973202779655
 20
-50.223442111744546
 10
64.80458523870902
 20
-50.24298488093643
 10
64.40360199405059
 20
-50.75596366831224
 10
64.38829465299588
 20
-50.77538093787275
 10
63.983097189799544
 20
-51.28503750323067
 10
63.967630336567225
 20
-51.304327954193056
 10
63.55824617884823
 20
-51.810627677881264
 10
63.54262086406008
 20
-51.829789999897045
 10
63.12907782023308
 20
-52.33269849027532
 10
63.1132951052751
 20
-52.35173138169899
 10
62.69562126624937
 20
-52.85121447749455
 10
62.679682223201844
 20
-52.870116645469444
 10
62.257905960483306
 20
-53.36614041808465
 10
62.241811672047035
 20
-53.384910578632045
 10
61.860469146861575
 20
-53.82596472016751
 10
61.68793112897331
 20
-54.006443715502925
 10
61.5362738969744
 20
-54.13624765021723
 10
61.37241809499153
 20
-54.25026630501306
 10
61.19800018559747
 20
-54.34736095145411
 10
61.01476211736712
 20
-54.426561884757284
 10
60.8245339276682
 20
-54.48707810843968
 10
60.629215465691104
 20
-54.52830523416773
 10
60.4307574182527
 20
-54.549831517911514
 10
60.23114182787418
 20
-54.55144197211948
 10
60.03236229770333
 20
-54.533120512844604
 10
59.83640408097755
 20
-54.49505012037822
 10
59.64522425387979
 20
-54.437611011787084
 10
59.46073216980428
 20
-54.36137684360503
 10
59.28477039024081
 20
-54.26710898260397
 10
59.11909628272203
 20
-54.15574890186238
 10
58.926811176339605
 20
-53.99647406631831
 10
10.214680840414566
 20
-9.360030486710361
 10
10.06829172137976
 20
-9.238189866987156
 10
9.910976678148536
 20
-9.130826521475388
 10
9.744162358010536
 20
-9.038914099120092
 10
9.569361554610982
 20
-8.963286128651545
 10
9.388159488837045
 20
-8.904628459540168
 10
9.202199432881292
 20
-8.863473042214451
 10
9.013167807853621
 20
-8.84019310394736
 10
8.822778890087454
 20
-8.834999764159832
 10
8.632759264834457
 20
-8.847940119836233
 10
8.444832168333056
 20
-8.878896818414642
 10
8.260701860248231
 20
-8.927589122025262
 10
8.082038168204692
 20
-8.99357545342573
 10
7.910461344574845
 20
-9.07625740054488
 10
7.747527372851236
 20
-9.174885143318866
 10
7.594713856855948
 20
-9.28856425360514
 10
7.554663869128066
 20
-9.32143242910636
 10
7.206447194744863
 20
-9.593183389014236
 10
7.088182934946092
 20
-9.68089414189845
 10
6.727051515198361
 20
-9.935231583499812
 10
6.60462594722229
 20
-10.017033732756559
 10
6.231449779331568
 20
-10.253344934877266
 10
6.105157837094774
 20
-10.329041411963889
 10
5.720835935135852
 20
-10.546757080219637
 10
5.590981866989001
 20
-10.616165525692642
 10
5.196440096086374
 20
-10.81476116396893
 10
5.06333673185343
 20
-10.877714366803746
 10
4.659525577691014
 20
-11.056711540813026
 10
4.523493575034959
 20
-11.113057841229937
 10
4.1113858540527595
 20
-11.272025331101755
 10
3.9727529259830914
 20
-11.321628985927669
 10
3.5533414417771487
 20
-11.460183825055068
 10
3.4124415671602164
 20
-11.502925334740805
 10
2.986736718732426
 20
-11.620733732380248
 10
2.8439093377076614
 20
-11.656510128885229
 10
2.41293668532502
 20
-11.75328827428807
 10
2.268525881563453
 20
-11.782013369139483
 10
1.833323676094378
 20
-11.857528115276661
 10
1.6876773478712677
 20
-11.879132707204972
 10
1.2492940295477957
 20
-11.933202132438758
 10
1.1027630516247975
 20
-11.947634174089693
 10
0.6622547242589397
 20
-11.980128020438741
 10
0.5151921025964926
 20
-11.987352743759855
 10
0.07361998933249154
 20
-11.998192730702211
 10
-0.07361998933249135
 20
-11.998192730702211
 10
-0.5151921025964822
 20
-11.987352743759855
 10
-0.6622547242589458
 20
-11.98012802043874
 10
-1.1027630516249136
 20
-11.947634174089684
 10
-1.2492940295478934
 20
-11.93320213243875
 10
-1.687677347871208
 20
-11.879132707204981
 10
-1.8333236760943565
 20
-11.857528115276665
 10
-2.2685258815635083
 20
-11.78201336913947
 10
-2.4129366853250622
 20
-11.753288274288062
 10
-2.8439093377075952
 20
-11.656510128885243
 10
-2.9867367187324976
 20
-11.62073373238023
 10
-3.4124415671602164
 20
-11.502925334740805
 10
-3.5533414417771634
 20
-11.460183825055065
 10
-3.9727529259829715
 20
-11.32162898592771
 10
-4.111385854052733
 20
-11.272025331101764
 10
-4.523493575034993
 20
-11.11305784122992
 10
-4.659525577691031
 20
-11.056711540813017
 10
-5.063336731853462
 20
-10.877714366803728
 10
-5.196440096086359
 20
-10.814761163968937
 10
-5.5909818669889795
 20
-10.616165525692654
 10
-5.720835935135927
 20
-10.546757080219598
 10
-6.105157837094761
 20
-10.3290414119639
 10
-6.231449779331606
 20
-10.253344934877244
 10
-6.604625947222288
 20
-10.01703373275656
 10
-6.7270515151983465
 20
-9.935231583499823
 10
-7.088182934946068
 20
-9.68089414189847
 10
-7.206447194744864
 20
-9.593183389014236
 10
-7.554663869128095
 20
-9.32143242910634
 10
-7.59471385685594
 20
-9.288564253605148
 10
-7.747527372851228
 20
-9.174885143318873
 10
-7.910461344574837
 20
-9.076257400544886
 10
-8.082038168204683
 20
-8.993575453425734
 10
-8.260701860248224
 20
-8.927589122025264
 10
-8.444832168333049
 20
-8.878896818414644
 10
-8.63275926483445
 20
-8.847940119836235
 10
-8.822778890087449
 20
-8.834999764159832
 10
-9.013167807853616
 20
-8.84019310394736
 10
-9.202199432881287
 20
-8.863473042214451
 10
-9.388159488837044
 20
-8.904628459540168
 10
-9.56936155461098
 20
-8.963286128651543
 10
-9.744162358010534
 20
-9.03891409912009
 10
-9.910976678148536
 20
-9.130826521475386
 10
-10.06829172137976
 20
-9.238189866987156
 10
-10.214680840414568
 20
-9.36003048671036
 10
-58.926811176339584
 20
-53.996474066318264
 10
-59.11909628272206
 20
-54.15574890186238
  0
LWPOLYLINE
  5
8D
330
17
100
AcDbEntity
  8
CORTE
100
AcDbPolyline
 90
129
 70
1
 10
2.6468079589437066
 20
0.13002933696765795
 10
2.6372395256813217
 20
0.2597454218733353
 10
2.6213177514066692
 20
0.38883575730671033
 10
2.59908099306856
 20
0.5169893533427411
 10
2.5705828209655412
 20
0.64389747674365
 10
2.5358918896903533
 20
0.7692543947243256
 10
2.4950917727350053
 20
0.892758111489383
 10
2.4482807611549093
 20
1.0141110957674895
 10
2.3955716267771243
 20
1.1330209975902488
 10
2.3370913505231403
 20
1.2492013525888945
 10
2.272980816500721
 20
1.362372272112038
 10
2.2033944726017447
 20
1.4722611175019458
 10
2.1284999584237094
 20
1.5786031569049481
 10
2.0484777014112523
 20
1.6811422030336616
 10
1.963520482190641
 20
1.7796312303445994
 10
1.8738329701443504
 20
1.8738329701443512
 10
1.7796312303445985
 20
1.9635204821906416
 10
1.6811422030336607
 20
2.0484777014112527
 10
1.5786031569049472
 20
2.12849995842371
 10
1.4722611175019449
 20
2.2033944726017456
 10
1.362372272112037
 20
2.2729808165007213
 10
1.2492013525888936
 20
2.3370913505231408
 10
1.1330209975902477
 20
2.3955716267771248
 10
1.0141110957674884
 20
2.4482807611549093
 10
0.8927581114893819
 20
2.4950917727350053
 10
0.7692543947243244
 20
2.5358918896903537
 10
0.6438974767436489
 20
2.5705828209655412
 10
0.51698935334274
 20
2.5990809930685606
 10
0.3888357573067091
 20
2.6213177514066692
 10
0.2597454218733342
 20
2.6372395256813217
 10
0.1300293369676568
 20
2.6468079589437066
 10
0.0
 20
2.65
 10
-0.13002933696765778
 20
2.6468079589437066
 10
-0.2597454218733352
 20
2.6372395256813217
 10
-0.3888357573067101
 20
2.6213177514066692
 10
-0.516989353342741
 20
2.59908099306856
 10
-0.6438974767436499
 20
2.5705828209655412
 10
-0.7692543947243254
 20
2.5358918896903533
 10
-0.8927581114893828
 20
2.4950917727350053
 10
-1.0141110957674893
 20
2.4482807611549093
 10
-1.1330209975902485
 20
2.3955716267771243
 10
-1.2492013525888943
 20
2.3370913505231403
 10
-1.3623722721120377
 20
2.272980816500721
 10
-1.4722611175019458
 20
2.2033944726017447
 10
-1.5786031569049477
 20
2.1284999584237094
 10
-1.6811422030336616
 20
2.0484777014112523
 10
-1.7796312303445994
 20
1.963520482190641
 10
-1.8738329701443512
 20
1.8738329701443508
 10
-1.9635204821906416
 20
1.779631230344599
 10
-2.048477701411253
 20
1.6811422030336598
 10
-2.128499958423709
 20
1.5786031569049481
 10
-2.2033944726017456
 20
1.472261117501945
 10
-2.2729808165007213
 20
1.362372272112037
 10
-2.3370913505231408
 20
1.2492013525888936
 10
-2.395571626777125
 20
1.1330209975902468
 10
-2.4482807611549102
 20
1.0141110957674877
 10
-2.4950917727350053
 20
0.8927581114893832
 10
-2.5358918896903537
 20
0.7692543947243246
 10
-2.5705828209655412
 20
0.643897476743649
 10
-2.5990809930685606
 20
0.5169893533427401
 10
-2.6213177514066697
 20
0.38883575730670816
 10
-2.6372395256813217
 20
0.25974542187333555
 10
-2.6468079589437066
 20
0.13002933696765695
 10
-2.65
 20
0.0
 10
-2.6468079589437066
 20
-0.13002933696765762
 10
-2.6372395256813217
 20
-0.25974542187333616
 10
-2.6213177514066697
 20
-0.3888357573067088
 10
-2.5990809930685606
 20
-0.5169893533427408
 10
-2.5705828209655412
 20
-0.6438974767436497
 10
-2.5358918896903533
 20
-0.7692543947243253
 10
-2.495091772735005
 20
-0.8927581114893839
 10
-2.44828076115491
 20
-1.0141110957674881
 10
-2.3955716267771248
 20
-1.1330209975902474
 10
-2.3370913505231403
 20
-1.2492013525888943
 10
-2.272980816500721
 20
-1.3623722721120377
 10
-2.203394472601745
 20
-1.4722611175019458
 10
-2.1284999584237085
 20
-1.5786031569049486
 10
-2.048477701411253
 20
-1.6811422030336605
 10
-1.963520482190641
 20
-1.7796312303445991
 10
-1.8738329701443508
 20
-1.873832970144351
 10
-1.779631230344599
 20
-1.9635204821906413
 10
-1.6811422030336602
 20
-2.048477701411253
 10
-1.5786031569049483
 20
-2.128499958423709
 10
-1.472261117501945
 20
-2.2033944726017456
 10
-1.3623722721120373
 20
-2.2729808165007213
 10
-1.2492013525888939
 20
-2.3370913505231408
 10
-1.133020997590247
 20
-2.395571626777125
 10
-1.0141110957674877
 20
-2.44828076115491
 10
-0.8927581114893828
 20
-2.4950917727350053
 10
-0.7692543947243247
 20
-2.5358918896903537
 10
-0.6438974767436493
 20
-2.5705828209655412
 10
-0.5169893533427397
 20
-2.5990809930685606
 10
-0.38883575730670833
 20
-2.6213177514066697
 10
-0.2597454218733357
 20
-2.6372395256813217
 10
-0.13002933696765773
 20
-2.6468079589437066
 10
0.0
 20
-2.65
 10
0.13002933696765803
 20
-2.6468079589437066
 10
0.25974542187333605
 20
-2.6372395256813217
 10
0.3888357573067086
 20
-2.6213177514066697
 10
0.5169893533427401
 20
-2.5990809930685606
 10
0.6438974767436495
 20
-2.5705828209655412
 10
0.7692543947243251
 20
-2.5358918896903537
 10
0.8927581114893831
 20
-2.4950917727350053
 10
1.014111095767488
 20
-2.44828076115491
 10
1.1330209975902479
 20
-2.3955716267771248
 10
1.249201352588894
 20
-2.3370913505231403
 10
1.3623722721120373
 20
-2.2729808165007213
 10
1.472261117501946
 20
-2.2033944726017447
 10
1.5786031569049486
 20
-2.1284999584237085
 10
1.6811422030336605
 20
-2.048477701411253
 10
1.7796312303445985
 20
-1.9635204821906416
 10
1.873832970144351
 20
-1.8738329701443508
 10
1.9635204821906416
 20
-1.7796312303445985
 10
2.048477701411253
 20
-1.6811422030336605
 10
2.128499958423709
 20
-1.5786031569049483
 10
2.2033944726017447
 20
-1.4722611175019458
 10
2.2729808165007213
 20
-1.3623722721120373
 10
2.3370913505231408
 20
-1.2492013525888936
 10
2.3955716267771248
 20
-1.1330209975902474
 10
2.44828076115491
 20
-1.014111095767488
 10
2.4950917727350053
 20
-0.8927581114893831
 10
2.5358918896903533
 20
-0.7692543947243251
 10
2.5705828209655412
 20
-0.6438974767436493
 10
2.5990809930685606
 20
-0.5169893533427399
 10
2.6213177514066697
 20
-0.3888357573067086
 10
2.6372395256813217
 20
-0.2597454218733356
 10
2.6468079589437066
 20
-0.13002933696765773
 10
2.65
 20
0.0
 10
2.6468079589437066
 20
0.13002933696765795
  0
TEXT
  5
8E
330
17
100
AcDbEntity
  8
NOTAS
100
AcDbText
 10
-81.9999490540747
 20
-64.55144197211948
 30
0.0
 40
3.5
  1
ROTOR mariposa - aluminio 1 mm - desbarbar y redondear cantos
 11
-81.9999490540747
 21
-64.55144197211948
 31
0.0
100
AcDbText
  0
TEXT
  5
8F
330
17
100
AcDbEntity
  8
NOTAS
100
AcDbText
 10
-81.9999490540747
 20
-70.55144197211948
 30
0.0
 40
3.5
  1
R lobulo 82.0 mm, cubo R12.0, taladro 5.3 (M5)
 11
-81.9999490540747
 21
-70.55144197211948
 31
0.0
100
AcDbText
  0
ENDSEC
  0
SECTION
  2
OBJECTS
  0
DICTIONARY
  5
A
330
0
100
AcDbDictionary
281
1
  3
ACAD_COLOR
350
B
  3
ACAD_GROUP
350
C
  3
ACAD_LAYOUT
350
D
  3
ACAD_MATERIAL
350
E
  3
ACAD_MLEADERSTYLE
350
F
  3
ACAD_MLINESTYLE
350
10
  3
ACAD_PLOTSETTINGS
350
11
  3
ACAD_PLOTSTYLENAME
350
12
  3
ACAD_SCALELIST
350
14
  3
ACAD_TABLESTYLE
350
15
  3
ACAD_VISUALSTYLE
350
16
  3
EZDXF_META
350
2D
  0
DICTIONARY
  5
B
330
A
100
AcDbDictionary
281
1
  0
DICTIONARY
  5
C
330
A
100
AcDbDictionary
281
1
  0
DICTIONARY
  5
D
330
A
100
AcDbDictionary
281
1
  3
Model
350
1A
  3
Layout1
350
1E
  0
DICTIONARY
  5
E
330
A
100
AcDbDictionary
281
1
  3
ByBlock
350
1F
  3
ByLayer
350
20
  3
Global
350
21
  0
DICTIONARY
  5
F
330
A
100
AcDbDictionary
281
1
  3
Standard
350
2C
  0
DICTIONARY
  5
10
330
A
100
AcDbDictionary
281
1
  3
Standard
350
22
  0
DICTIONARY
  5
11
330
A
100
AcDbDictionary
281
1
  0
ACDBDICTIONARYWDFLT
  5
12
330
A
100
AcDbDictionary
281
1
  3
Normal
350
13
100
AcDbDictionaryWithDefault
340
13
  0
ACDBPLACEHOLDER
  5
13
330
12
  0
DICTIONARY
  5
14
330
A
100
AcDbDictionary
281
1
  0
DICTIONARY
  5
15
330
A
100
AcDbDictionary
281
1
  0
DICTIONARY
  5
16
330
A
100
AcDbDictionary
281
1
  3
2dWireframe
350
5A
  3
Basic
350
5B
  3
Brighten
350
5C
  3
ColorChange
350
5D
  3
Conceptual
350
5E
  3
Dim
350
5F
  3
EdgeColorOff
350
60
  3
Facepattern
350
61
  3
Flat
350
62
  3
FlatWithEdges
350
63
  3
Gouraud
350
64
  3
GouraudWithEdges
350
65
  3
Hidden
350
66
  3
JitterOff
350
67
  3
Linepattern
350
68
  3
Modeling
350
69
  3
OverhangOff
350
6A
  3
Realistic
350
6B
  3
Shaded
350
6C
  3
Shaded with edges
350
6D
  3
Shades of Gray
350
6E
  3
Sketchy
350
6F
  3
Thicken
350
70
  3
Wireframe
350
71
  3
X-Ray
350
72
  0
LAYOUT
  5
1A
330
D
100
AcDbPlotSettings
  1

  4
A3
  6

 40
7.5
 41
20.0
 42
7.5
 43
20.0
 44
420.0
 45
297.0
 46
0.0
 47
0.0
 48
0.0
 49
0.0
140
0.0
141
0.0
142
1.0
143
1.0
 70
1024
 72
1
 73
0
 74
5
  7

 75
16
 76
0
 77
2
 78
300
147
1.0
148
0.0
149
0.0
100
AcDbLayout
  1
Model
 70
1
 71
0
 10
0.0
 20
0.0
 11
420.0
 21
297.0
 12
0.0
 22
0.0
 32
0.0
 14
1e+20
 24
1e+20
 34
1e+20
 15
-1e+20
 25
-1e+20
 35
-1e+20
146
0.0
 13
0.0
 23
0.0
 33
0.0
 16
1.0
 26
0.0
 36
0.0
 17
0.0
 27
1.0
 37
0.0
 76
1
330
17
  0
LAYOUT
  5
1E
330
D
100
AcDbPlotSettings
  1

  4
A3
  6

 40
7.5
 41
20.0
 42
7.5
 43
20.0
 44
420.0
 45
297.0
 46
0.0
 47
0.0
 48
0.0
 49
0.0
140
0.0
141
0.0
142
1.0
143
1.0
 70
0
 72
1
 73
0
 74
5
  7

 75
16
 76
0
 77
2
 78
300
147
1.0
148
0.0
149
0.0
100
AcDbLayout
  1
Layout1
 70
1
 71
1
 10
0.0
 20
0.0
 11
420.0
 21
297.0
 12
0.0
 22
0.0
 32
0.0
 14
1e+20
 24
1e+20
 34
1e+20
 15
-1e+20
 25
-1e+20
 35
-1e+20
146
0.0
 13
0.0
 23
0.0
 33
0.0
 16
1.0
 26
0.0
 36
0.0
 17
0.0
 27
1.0
 37
0.0
 76
1
330
1B
  0
MATERIAL
  5
1F
102
{ACAD_REACTORS
330
E
102
}
330
E
100
AcDbMaterial
  1
ByBlock
  2

 70
0
 40
1.0
 71
1
 41
1.0
 91
-1023410177
 42
1.0
 72
1
  3

 73
1
 74
1
 75
1
 44
0.5
 73
0
 45
1.0
 46
1.0
 77
1
  4

 78
1
 79
1
170
1
 48
1.0
171
1
  6

172
1
173
1
174
1
140
1.0
141
1.0
175
1
  7

176
1
177
1
178
1
143
1.0
179
1
  8

270
1
271
1
272
1
145
1.0
146
1.0
273
1
  9

274
1
275
1
276
1
 42
1.0
 72
1
  3

 73
1
 74
1
 75
1
 94
63
  0
MATERIAL
  5
20
102
{ACAD_REACTORS
330
E
102
}
330
E
100
AcDbMaterial
  1
ByLayer
  2

 70
0
 40
1.0
 71
1
 41
1.0
 91
-1023410177
 42
1.0
 72
1
  3

 73
1
 74
1
 75
1
 44
0.5
 73
0
 45
1.0
 46
1.0
 77
1
  4

 78
1
 79
1
170
1
 48
1.0
171
1
  6

172
1
173
1
174
1
140
1.0
141
1.0
175
1
  7

176
1
177
1
178
1
143
1.0
179
1
  8

270
1
271
1
272
1
145
1.0
146
1.0
273
1
  9

274
1
275
1
276
1
 42
1.0
 72
1
  3

 73
1
 74
1
 75
1
 94
63
  0
MATERIAL
  5
21
102
{ACAD_REACTORS
330
E
102
}
330
E
100
AcDbMaterial
  1
Global
  2

 70
0
 40
1.0
 71
1
 41
1.0
 91
-1023410177
 42
1.0
 72
1
  3

 73
1
 74
1
 75
1
 44
0.5
 73
0
 45
1.0
 46
1.0
 77
1
  4

 78
1
 79
1
170
1
 48
1.0
171
1
  6

172
1
173
1
174
1
140
1.0
141
1.0
175
1
  7

176
1
177
1
178
1
143
1.0
179
1
  8

270
1
271
1
272
1
145
1.0
146
1.0
273
1
  9

274
1
275
1
276
1
 42
1.0
 72
1
  3

 73
1
 74
1
 75
1
 94
63
  0
MLINESTYLE
  5
22
102
{ACAD_REACTORS
330
10
102
}
330
10
100
AcDbMlineStyle
  2
Standard
 70
0
  3

 62
256
 51
90.0
 52
90.0
 71
2
 49
0.5
 62
256
  6
BYLAYER
 49
-0.5
 62
256
  6
BYLAYER
  0
MLEADERSTYLE
  5
2C
102
{ACAD_REACTORS
330
F
102
}
330
F
100
AcDbMLeaderStyle
179
2
170
2
171
1
172
0
 90
2
 40
0.0
 41
0.0
173
1
 91
-1056964608
 92
-2
290
1
 42
2.0
291
1
 43
8.0
  3
Standard
 44
4.0
300

342
29
174
1
175
1
176
0
178
1
 93
-1056964608
 45
4.0
292
0
297
0
 46
4.0
 94
-1056964608
 47
1.0
 49
1.0
140
1.0
294
1
141
0.0
177
0
142
1.0
295
0
296
0
143
3.75
271
0
272
9
273
9
  0
DICTIONARY
  5
2D
330
A
100
AcDbDictionary
280
1
281
1
  3
CREATED_BY_EZDXF
350
2E
  3
WRITTEN_BY_EZDXF
350
92
  0
DICTIONARYVAR
  5
2E
330
2D
100
DictionaryVariables
280
0
  1
1.4.4 @ 2026-09-30T09:29:39.442188+00:00
  0
VISUALSTYLE
  5
5A
102
{ACAD_REACTORS
330
16
102
}
330
16
100
AcDbVisualStyle
  2
2dWireframe
 70
4
 90
0
 40
0.6
 62
7
290
0
291
0
  0
VISUALSTYLE
  5
5B
102
{ACAD_REACTORS
330
16
102
}
330
16
100
AcDbVisualStyle
  2
Basic
 70
7
 90
1
 40
0.6
 62
7
290
0
291
1
  0
VISUALSTYLE
  5
5C
102
{ACAD_REACTORS
330
16
102
}
330
16
100
AcDbVisualStyle
  2
Brighten
 70
12
 90
2
 40
0.6
 62
7
290
0
291
1
  0
VISUALSTYLE
  5
5D
102
{ACAD_REACTORS
330
16
102
}
330
16
100
AcDbVisualStyle
  2
ColorChange
 70
16
 90
2
 40
0.6
 62
8
290
0
291
1
  0
VISUALSTYLE
  5
5E
102
{ACAD_REACTORS
330
16
102
}
330
16
100
AcDbVisualStyle
  2
Conceptual
 70
9
 90
3
 40
0.6
 62
7
290
0
291
0
  0
VISUALSTYLE
  5
5F
102
{ACAD_REACTORS
330
16
102
}
330
16
100
AcDbVisualStyle
  2
Dim
 70
11
 90
2
 40
0.6
 62
7
290
0
291
1
  0
VISUALSTYLE
  5
60
102
{ACAD_REACTORS
330
16
102
}
330
16
100
AcDbVisualStyle
  2
EdgeColorOff
 70
22
 90
2
 40
0.6
 62
7
290
0
291
1
  0
VISUALSTYLE
  5
61
102
{ACAD_REACTORS
330
16
102
}
330
16
100
AcDbVisualStyle
  2
Facepattern
 70
15
 90
2
 40
0.6
 62
7
290
0
291
1
  0
VISUALSTYLE
  5
62
102
{ACAD_REACTORS
330
16
102
}
330
16
100
AcDbVisualStyle
  2
Flat
 70
0
 90
2
 40
0.6
 62
7
290
0
291
1
  0
VISUALSTYLE
  5
63
102
{ACAD_REACTORS
330
16
102
}
330
16
100
AcDbVisualStyle
  2
FlatWithEdges
 70
1
 90
2
 40
0.6
 62
7
290
0
291
1
  0
VISUALSTYLE
  5
64
102
{ACAD_REACTORS
330
16
102
}
330
16
100
AcDbVisualStyle
  2
Gouraud
 70
2
 90
2
 40
0.6
 62
7
290
0
291
1
  0
VISUALSTYLE
  5
65
102
{ACAD_REACTORS
330
16
102
}
330
16
100
AcDbVisualStyle
  2
GouraudWithEdges
 70
3
 90
2
 40
0.6
 62
7
290
0
291
1
  0
VISUALSTYLE
  5
66
102
{ACAD_REACTORS
330
16
102
}
330
16
100
AcDbVisualStyle
  2
Hidden
 70
6
 90
1
 40
0.6
 62
7
290
0
291
0
  0
VISUALSTYLE
  5
67
102
{ACAD_REACTORS
330
16
102
}
330
16
100
AcDbVisualStyle
  2
JitterOff
 70
20
 90
2
 40
0.6
 62
7
290
0
291
1
  0
VISUALSTYLE
  5
68
102
{ACAD_REACTORS
330
16
102
}
330
16
100
AcDbVisualStyle
  2
Linepattern
 70
14
 90
2
 40
0.6
 62
7
290
0
291
1
  0
VISUALSTYLE
  5
69
102
{ACAD_REACTORS
330
16
102
}
330
16
100
AcDbVisualStyle
  2
Modeling
 70
10
 90
2
 40
0.6
 62
7
290
0
291
0
  0
VISUALSTYLE
  5
6A
102
{ACAD_REACTORS
330
16
102
}
330
16
100
AcDbVisualStyle
  2
OverhangOff
 70
21
 90
2
 40
0.6
 62
7
290
0
291
1
  0
VISUALSTYLE
  5
6B
102
{ACAD_REACTORS
330
16
102
}
330
16
100
AcDbVisualStyle
  2
Realistic
 70
8
 90
2
 40
0.6
 62
7
290
0
291
0
  0
VISUALSTYLE
  5
6C
102
{ACAD_REACTORS
330
16
102
}
330
16
100
AcDbVisualStyle
  2
Shaded
 70
27
 90
2
 40
0.6
 62
7
290
0
291
0
  0
VISUALSTYLE
  5
6D
102
{ACAD_REACTORS
330
16
102
}
330
16
100
AcDbVisualStyle
  2
Shaded with edges
 70
26
 90
2
 40
0.6
 62
7
290
0
291
0
  0
VISUALSTYLE
  5
6E
102
{ACAD_REACTORS
330
16
102
}
330
16
100
AcDbVisualStyle
  2
Shades of Gray
 70
23
 90
2
 40
0.6
 62
7
290
0
291
0
  0
VISUALSTYLE
  5
6F
102
{ACAD_REACTORS
330
16
102
}
330
16
100
AcDbVisualStyle
  2
Sketchy
 70
24
 90
1
 40
0.6
 62
7
290
0
291
0
  0
VISUALSTYLE
  5
70
102
{ACAD_REACTORS
330
16
102
}
330
16
100
AcDbVisualStyle
  2
Thicken
 70
13
 90
2
 40
0.6
 62
7
290
0
291
1
  0
VISUALSTYLE
  5
71
102
{ACAD_REACTORS
330
16
102
}
330
16
100
AcDbVisualStyle
  2
Wireframe
 70
5
 90
0
 40
0.6
 62
7
290
0
291
0
  0
VISUALSTYLE
  5
72
102
{ACAD_REACTORS
330
16
102
}
330
16
100
AcDbVisualStyle
  2
X-Ray
 70
25
 90
2
 40
0.5
 62
7
290
0
291
0
  0
DICTIONARYVAR
  5
92
330
2D
100
DictionaryVariables
280
0
  1
1.4.4 @ 2026-09-30T09:29:39.452175+00:00
  0
ENDSEC
  0
EOF
