  0
SECTION
  2
HEADER
  9
$ACADVER
  1
AC1024
  9
$ACADMAINTVER
 70
6
  9
$DWGCODEPAGE
  3
ANSI_1252
  9
$LASTSAVEDBY
  1
ezdxf
  9
$INSBASE
 10
0.0
 20
0.0
 30
0.0
  9
$EXTMIN
 10
1e+20
 20
1e+20
 30
1e+20
  9
$EXTMAX
 10
-1e+20
 20
-1e+20
 30
-1e+20
  9
$LIMMIN
 10
0.0
 20
0.0
  9
$LIMMAX
 10
420.0
 20
297.0
  9
$ORTHOMODE
 70
0
  9
$REGENMODE
 70
1
  9
$FILLMODE
 70
1
  9
$QTEXTMODE
 70
0
  9
$MIRRTEXT
 70
1
  9
$LTSCALE
 40
1.0
  9
$ATTMODE
 70
1
  9
$TEXTSIZE
 40
2.5
  9
$TRACEWID
 40
1.0
  9
$TEXTSTYLE
  7
OpenSans
  9
$CLAYER
  8
0
  9
$CELTYPE
  6
ByLayer
  9
$CECOLOR
 62
256
  9
$CELTSCALE
 40
1.0
  9
$DISPSILH
 70
0
  9
$DIMSCALE
 40
1.0
  9
$DIMASZ
 40
0.175
  9
$DIMEXO
 40
0.125
  9
$DIMDLI
 40
3.75
  9
$DIMRND
 40
0.0
  9
$DIMDLE
 40
0.0
  9
$DIMEXE
 40
0.375
  9
$DIMTP
 40
0.0
  9
$DIMTM
 40
0.0
  9
$DIMTXT
 40
0.25
  9
$DIMCEN
 40
2.5
  9
$DIMTSZ
 40
0.0
  9
$DIMTOL
 70
0
  9
$DIMLIM
 70
0
  9
$DIMTIH
 70
0
  9
$DIMTOH
 70
0
  9
$DIMSE1
 70
0
  9
$DIMSE2
 70
0
  9
$DIMTAD
 70
1
  9
$DIMZIN
 70
12
  9
$DIMBLK
  1
ARCHTICK
  9
$DIMASO
 70
1
  9
$DIMSHO
 70
1
  9
$DIMPOST
  1

  9
$DIMAPOST
  1

  9
$DIMALT
 70
0
  9
$DIMALTD
 70
3
  9
$DIMALTF
 40
0.03937007874
  9
$DIMLFAC
 40
100.0
  9
$DIMTOFL
 70
1
  9
$DIMTVP
 40
0.0
  9
$DIMTIX
 70
0
  9
$DIMSOXD
 70
0
  9
$DIMSAH
 70
0
  9
$DIMBLK1
  1

  9
$DIMBLK2
  1

  9
$DIMSTYLE
  2
EZDXF
  9
$DIMCLRD
 70
0
  9
$DIMCLRE
 70
0
  9
$DIMCLRT
 70
0
  9
$DIMTFAC
 40
0.5
  9
$DIMGAP
 40
0.1
  9
$DIMJUST
 70
0
  9
$DIMSD1
 70
0
  9
$DIMSD2
 70
0
  9
$DIMTOLJ
 70
0
  9
$DIMTZIN
 70
8
  9
$DIMALTZ
 70
0
  9
$DIMALTTZ
 70
0
  9
$DIMUPT
 70
1
  9
$DIMDEC
 70
2
  9
$DIMTDEC
 70
2
  9
$DIMALTU
 70
2
  9
$DIMALTTD
 70
3
  9
$DIMTXSTY
  7
OpenSansCondensed-Light
  9
$DIMAUNIT
 70
0
  9
$DIMADEC
 70
2
  9
$DIMALTRND
 40
0.0
  9
$DIMAZIN
 70
3
  9
$DIMDSEP
 70
46
  9
$DIMATFIT
 70
3
  9
$DIMFRAC
 70
0
  9
$DIMLDRBLK
  1

  9
$DIMLUNIT
 70
2
  9
$DIMLWD
 70
-2
  9
$DIMLWE
 70
-2
  9
$DIMTMOVE
 70
2
  9
$DIMFXL
 40
1.0
  9
$DIMFXLON
 70
0
  9
$DIMJOGANG
 40
0.785398163397
  9
$DIMTFILL
 70
0
  9
$DIMTFILLCLR
 70
0
  9
$DIMARCSYM
 70
0
  9
$DIMLTYPE
  6

  9
$DIMLTEX1
  6

  9
$DIMLTEX2
  6

  9
$DIMTXTDIRECTION
 70
0
  9
$LUNITS
 70
2
  9
$LUPREC
 70
4
  9
$SKETCHINC
 40
1.0
  9
$FILLETRAD
 40
10.0
  9
$AUNITS
 70
0
  9
$AUPREC
 70
2
  9
$MENU
  1
.
  9
$ELEVATION
 40
0.0
  9
$PELEVATION
 40
0.0
  9
$THICKNESS
 40
0.0
  9
$LIMCHECK
 70
0
  9
$CHAMFERA
 40
0.0
  9
$CHAMFERB
 40
0.0
  9
$CHAMFERC
 40
0.0
  9
$CHAMFERD
 40
0.0
  9
$SKPOLY
 70
0
  9
$TDCREATE
 40
2461314.4789236113
  9
$TDUCREATE
 40
2458532.153996898
  9
$TDUPDATE
 40
2461314.4789236113
  9
$TDUUPDATE
 40
2458532.1544311
  9
$TDINDWG
 40
0.0
  9
$TDUSRTIMER
 40
0.0
  9
$USRTIMER
 70
1
  9
$ANGBASE
 50
0.0
  9
$ANGDIR
 70
0
  9
$PDMODE
 70
0
  9
$PDSIZE
 40
0.0
  9
$PLINEWID
 40
0.0
  9
$SPLFRAME
 70
0
  9
$SPLINETYPE
 70
6
  9
$SPLINESEGS
 70
8
  9
$HANDSEED
  5
9B
  9
$SURFTAB1
 70
6
  9
$SURFTAB2
 70
6
  9
$SURFTYPE
 70
6
  9
$SURFU
 70
6
  9
$SURFV
 70
6
  9
$UCSBASE
  2

  9
$UCSNAME
  2

  9
$UCSORG
 10
0.0
 20
0.0
 30
0.0
  9
$UCSXDIR
 10
1.0
 20
0.0
 30
0.0
  9
$UCSYDIR
 10
0.0
 20
1.0
 30
0.0
  9
$UCSORTHOREF
  2

  9
$UCSORTHOVIEW
 70
0
  9
$UCSORGTOP
 10
0.0
 20
0.0
 30
0.0
  9
$UCSORGBOTTOM
 10
0.0
 20
0.0
 30
0.0
  9
$UCSORGLEFT
 10
0.0
 20
0.0
 30
0.0
  9
$UCSORGRIGHT
 10
0.0
 20
0.0
 30
0.0
  9
$UCSORGFRONT
 10
0.0
 20
0.0
 30
0.0
  9
$UCSORGBACK
 10
0.0
 20
0.0
 30
0.0
  9
$PUCSBASE
  2

  9
$PUCSNAME
  2

  9
$PUCSORG
 10
0.0
 20
0.0
 30
0.0
  9
$PUCSXDIR
 10
1.0
 20
0.0
 30
0.0
  9
$PUCSYDIR
 10
0.0
 20
1.0
 30
0.0
  9
$PUCSORTHOREF
  2

  9
$PUCSORTHOVIEW
 70
0
  9
$PUCSORGTOP
 10
0.0
 20
0.0
 30
0.0
  9
$PUCSORGBOTTOM
 10
0.0
 20
0.0
 30
0.0
  9
$PUCSORGLEFT
 10
0.0
 20
0.0
 30
0.0
  9
$PUCSORGRIGHT
 10
0.0
 20
0.0
 30
0.0
  9
$PUCSORGFRONT
 10
0.0
 20
0.0
 30
0.0
  9
$PUCSORGBACK
 10
0.0
 20
0.0
 30
0.0
  9
$USERI1
 70
0
  9
$USERI2
 70
0
  9
$USERI3
 70
0
  9
$USERI4
 70
0
  9
$USERI5
 70
0
  9
$USERR1
 40
0.0
  9
$USERR2
 40
0.0
  9
$USERR3
 40
0.0
  9
$USERR4
 40
0.0
  9
$USERR5
 40
0.0
  9
$WORLDVIEW
 70
1
  9
$SHADEDGE
 70
3
  9
$SHADEDIF
 70
70
  9
$TILEMODE
 70
1
  9
$MAXACTVP
 70
64
  9
$PINSBASE
 10
0.0
 20
0.0
 30
0.0
  9
$PLIMCHECK
 70
0
  9
$PEXTMIN
 10
1e+20
 20
1e+20
 30
1e+20
  9
$PEXTMAX
 10
-1e+20
 20
-1e+20
 30
-1e+20
  9
$PLIMMIN
 10
0.0
 20
0.0
  9
$PLIMMAX
 10
420.0
 20
297.0
  9
$UNITMODE
 70
0
  9
$VISRETAIN
 70
1
  9
$PLINEGEN
 70
0
  9
$PSLTSCALE
 70
1
  9
$TREEDEPTH
 70
3020
  9
$CMLSTYLE
  2
Standard
  9
$CMLJUST
 70
0
  9
$CMLSCALE
 40
20.0
  9
$PROXYGRAPHICS
 70
1
  9
$MEASUREMENT
 70
1
  9
$CELWEIGHT
370
-1
  9
$ENDCAPS
280
0
  9
$JOINSTYLE
280
0
  9
$LWDISPLAY
290
0
  9
$INSUNITS
 70
4
  9
$HYPERLINKBASE
  1

  9
$STYLESHEET
  1

  9
$XEDIT
290
1
  9
$CEPSNTYPE
380
0
  9
$PSTYLEMODE
290
1
  9
$FINGERPRINTGUID
  2
{1F856F19-905E-40B3-8E1F-199840978417}
  9
$VERSIONGUID
  2
{B4A38EE5-0384-4F89-A5B5-F891DC9BEAEE}
  9
$EXTNAMES
290
1
  9
$PSVPSCALE
 40
0.0
  9
$OLESTARTUP
290
0
  9
$SORTENTS
280
127
  9
$INDEXCTL
280
0
  9
$HIDETEXT
280
1
  9
$XCLIPFRAME
280
1
  9
$HALOGAP
280
0
  9
$OBSCOLOR
 70
257
  9
$OBSLTYPE
280
0
  9
$INTERSECTIONDISPLAY
280
0
  9
$INTERSECTIONCOLOR
 70
257
  9
$DIMASSOC
280
2
  9
$PROJECTNAME
  1

  9
$CAMERADISPLAY
290
0
  9
$LENSLENGTH
 40
50.0
  9
$CAMERAHEIGHT
 40
0.0
  9
$STEPSPERSEC
 40
24.0
  9
$STEPSIZE
 40
100.0
  9
$3DDWFPREC
 40
2.0
  9
$PSOLWIDTH
 40
0.005
  9
$PSOLHEIGHT
 40
0.08
  9
$LOFTANG1
 40
1.570796326795
  9
$LOFTANG2
 40
1.570796326795
  9
$LOFTMAG1
 40
0.0
  9
$LOFTMAG2
 40
0.0
  9
$LOFTPARAM
 70
7
  9
$LOFTNORMALS
280
1
  9
$LATITUDE
 40
37.795
  9
$LONGITUDE
 40
-122.394
  9
$NORTHDIRECTION
 40
0.0
  9
$TIMEZONE
 70
-8000
  9
$LIGHTGLYPHDISPLAY
280
1
  9
$TILEMODELIGHTSYNCH
280
1
  9
$CMATERIAL
347
20
  9
$SOLIDHIST
280
0
  9
$SHOWHIST
280
1
  9
$DWFFRAME
280
2
  9
$DGNFRAME
280
2
  9
$REALWORLDSCALE
290
1
  9
$INTERFERECOLOR
 62
256
  9
$CSHADOW
280
0
  9
$SHADOWPLANELOCATION
 40
0.0
  0
ENDSEC
  0
SECTION
  2
CLASSES
  0
CLASS
  1
ACDBDICTIONARYWDFLT
  2
AcDbDictionaryWithDefault
  3
ObjectDBX Classes
 90
0
 91
0
280
0
281
0
  0
CLASS
  1
SUN
  2
AcDbSun
  3
SCENEOE
 90
1153
 91
0
280
0
281
0
  0
CLASS
  1
VISUALSTYLE
  2
AcDbVisualStyle
  3
ObjectDBX Classes
 90
4095
 91
0
280
0
281
0
  0
CLASS
  1
MATERIAL
  2
AcDbMaterial
  3
ObjectDBX Classes
 90
1153
 91
0
280
0
281
0
  0
CLASS
  1
SCALE
  2
AcDbScale
  3
ObjectDBX Classes
 90
1153
 91
0
280
0
281
0
  0
CLASS
  1
TABLESTYLE
  2
AcDbTableStyle
  3
ObjectDBX Classes
 90
4095
 91
0
280
0
281
0
  0
CLASS
  1
MLEADERSTYLE
  2
AcDbMLeaderStyle
  3
ACDB_MLEADERSTYLE_CLASS
 90
4095
 91
0
280
0
281
0
  0
CLASS
  1
DICTIONARYVAR
  2
AcDbDictionaryVar
  3
ObjectDBX Classes
 90
0
 91
0
280
0
281
0
  0
CLASS
  1
CELLSTYLEMAP
  2
AcDbCellStyleMap
  3
ObjectDBX Classes
 90
1152
 91
0
280
0
281
0
  0
CLASS
  1
MENTALRAYRENDERSETTINGS
  2
AcDbMentalRayRenderSettings
  3
SCENEOE
 90
1024
 91
0
280
0
281
0
  0
CLASS
  1
ACDBDETAILVIEWSTYLE
  2
AcDbDetailViewStyle
  3
ObjectDBX Classes
 90
1025
 91
0
280
0
281
0
  0
CLASS
  1
ACDBSECTIONVIEWSTYLE
  2
AcDbSectionViewStyle
  3
ObjectDBX Classes
 90
1025
 91
0
280
0
281
0
  0
CLASS
  1
RASTERVARIABLES
  2
AcDbRasterVariables
  3
ISM
 90
0
 91
0
280
0
281
0
  0
CLASS
  1
ACDBPLACEHOLDER
  2
AcDbPlaceHolder
  3
ObjectDBX Classes
 90
0
 91
0
280
0
281
0
  0
CLASS
  1
LAYOUT
  2
AcDbLayout
  3
ObjectDBX Classes
 90
0
 91
0
280
0
281
0
  0
ENDSEC
  0
SECTION
  2
TABLES
  0
TABLE
  2
VPORT
  5
8
330
0
100
AcDbSymbolTable
 70
1
  0
VPORT
  5
23
330
8
100
AcDbSymbolTableRecord
100
AcDbViewportTableRecord
  2
*Active
 70
0
 10
0.0
 20
0.0
 11
1.0
 21
1.0
 12
0.0
 22
0.0
 13
0.0
 23
0.0
 14
0.5
 24
0.5
 15
0.5
 25
0.5
 16
0.0
 26
0.0
 36
1.0
 17
0.0
 27
0.0
 37
0.0
 40
1000.0
 41
1.34
 42
50.0
 43
0.0
 44
0.0
 50
0.0
 51
0.0
 71
0
 72
1000
 73
1
 74
3
 75
0
 76
0
 77
0
 78
0
281
0
 65
0
146
0.0
  0
ENDTAB
  0
TABLE
  2
LTYPE
  5
2
330
0
100
AcDbSymbolTable
 70
21
  0
LTYPE
  5
24
330
2
100
AcDbSymbolTableRecord
100
AcDbLinetypeTableRecord
  2
ByBlock
 70
0
  3

 72
65
 73
0
 40
0.0
  0
LTYPE
  5
25
330
2
100
AcDbSymbolTableRecord
100
AcDbLinetypeTableRecord
  2
ByLayer
 70
0
  3

 72
65
 73
0
 40
0.0
  0
LTYPE
  5
26
330
2
100
AcDbSymbolTableRecord
100
AcDbLinetypeTableRecord
  2
Continuous
 70
0
  3

 72
65
 73
0
 40
0.0
  0
LTYPE
  5
2F
330
2
100
AcDbSymbolTableRecord
100
AcDbLinetypeTableRecord
  2
CENTER
 70
0
  3
Center ____ _ ____ _ ____ _ ____ _ ____ _ ____
 72
65
 73
4
 40
5.08
 49
3.175
 74
0
 49
-0.635
 74
0
 49
0.635
 74
0
 49
-0.635
 74
0
  0
LTYPE
  5
30
330
2
100
AcDbSymbolTableRecord
100
AcDbLinetypeTableRecord
  2
CENTERX2
 70
0
  3
Center (2x) ________  __  ________  __  ________
 72
65
 73
4
 40
8.89
 49
6.35
 74
0
 49
-0.635
 74
0
 49
1.27
 74
0
 49
-0.635
 74
0
  0
LTYPE
  5
31
330
2
100
AcDbSymbolTableRecord
100
AcDbLinetypeTableRecord
  2
CENTER2
 70
0
  3
Center (.5x) ____ _ ____ _ ____ _ ____ _ ____
 72
65
 73
4
 40
2.54
 49
1.587
 74
0
 49
-0.318
 74
0
 49
0.318
 74
0
 49
-0.318
 74
0
  0
LTYPE
  5
32
330
2
100
AcDbSymbolTableRecord
100
AcDbLinetypeTableRecord
  2
DASHED
 70
0
  3
Dashed __ __ __ __ __ __ __ __ __ __ __ __ __ _
 72
65
 73
2
 40
1.524
 49
1.27
 74
0
 49
-0.254
 74
0
  0
LTYPE
  5
33
330
2
100
AcDbSymbolTableRecord
100
AcDbLinetypeTableRecord
  2
DASHEDX2
 70
0
  3
Dashed (2x) ____  ____  ____  ____  ____  ____
 72
65
 73
2
 40
3.048
 49
2.54
 74
0
 49
-0.508
 74
0
  0
LTYPE
  5
34
330
2
100
AcDbSymbolTableRecord
100
AcDbLinetypeTableRecord
  2
DASHED2
 70
0
  3
Dashed (.5x) _ _ _ _ _ _ _ _ _ _ _ _ _ _
 72
65
 73
2
 40
0.762
 49
0.635
 74
0
 49
-0.127
 74
0
  0
LTYPE
  5
35
330
2
100
AcDbSymbolTableRecord
100
AcDbLinetypeTableRecord
  2
PHANTOM
 70
0
  3
Phantom ______  __  __  ______  __  __  ______
 72
65
 73
6
 40
6.35
 49
3.175
 74
0
 49
-0.635
 74
0
 49
0.635
 74
0
 49
-0.635
 74
0
 49
0.635
 74
0
 49
-0.635
 74
0
  0
LTYPE
  5
36
330
2
100
AcDbSymbolTableRecord
100
AcDbLinetypeTableRecord
  2
PHANTOMX2
 70
0
  3
Phantom (2x)____________    ____    ____    ____________
 72
65
 73
6
 40
10.795
 49
6.35
 74
0
 49
-0.635
 74
0
 49
1.27
 74
0
 49
-0.635
 74
0
 49
1.27
 74
0
 49
-0.635
 74
0
  0
LTYPE
  5
37
330
2
100
AcDbSymbolTableRecord
100
AcDbLinetypeTableRecord
  2
PHANTOM2
 70
0
  3
Phantom (.5x) ___ _ _ ___ _ _ ___ _ _ ___ _ _ ___
 72
65
 73
6
 40
3.175
 49
1.587
 74
0
 49
-0.318
 74
0
 49
0.318
 74
0
 49
-0.318
 74
0
 49
0.318
 74
0
 49
-0.318
 74
0
  0
LTYPE
  5
38
330
2
100
AcDbSymbolTableRecord
100
AcDbLinetypeTableRecord
  2
DASHDOT
 70
0
  3
Dash dot __ . __ . __ . __ . __ . __ . __ . __
 72
65
 73
4
 40
3.556
 49
2.54
 74
0
 49
-0.508
 74
0
 49
0.0
 74
0
 49
-0.508
 74
0
  0
LTYPE
  5
39
330
2
100
AcDbSymbolTableRecord
100
AcDbLinetypeTableRecord
  2
DASHDOTX2
 70
0
  3
Dash dot (2x) ____  .  ____  .  ____  .  ____
 72
65
 73
4
 40
6.096
 49
5.08
 74
0
 49
-0.508
 74
0
 49
0.0
 74
0
 49
-0.508
 74
0
  0
LTYPE
  5
3A
330
2
100
AcDbSymbolTableRecord
100
AcDbLinetypeTableRecord
  2
DASHDOT2
 70
0
  3
Dash dot (.5x) _ . _ . _ . _ . _ . _ . _ . _
 72
65
 73
4
 40
1.778
 49
1.27
 74
0
 49
-0.254
 74
0
 49
0.0
 74
0
 49
-0.254
 74
0
  0
LTYPE
  5
3B
330
2
100
AcDbSymbolTableRecord
100
AcDbLinetypeTableRecord
  2
DOT
 70
0
  3
Dot .  .  .  .  .  .  .  .  .  .  .  .  .  .  .  .
 72
65
 73
2
 40
0.508
 49
0.0
 74
0
 49
-0.508
 74
0
  0
LTYPE
  5
3C
330
2
100
AcDbSymbolTableRecord
100
AcDbLinetypeTableRecord
  2
DOTX2
 70
0
  3
Dot (2x) .    .    .    .    .    .    .    . 
 72
65
 73
2
 40
1.016
 49
0.0
 74
0
 49
-1.016
 74
0
  0
LTYPE
  5
3D
330
2
100
AcDbSymbolTableRecord
100
AcDbLinetypeTableRecord
  2
DOT2
 70
0
  3
Dot (.5) . . . . . . . . . . . . . . . . . . . 
 72
65
 73
2
 40
0.254
 49
0.0
 74
0
 49
-0.254
 74
0
  0
LTYPE
  5
3E
330
2
100
AcDbSymbolTableRecord
100
AcDbLinetypeTableRecord
  2
DIVIDE
 70
0
  3
Divide __ . . __ . . __ . . __ . . __ . . __
 72
65
 73
6
 40
4.064
 49
2.54
 74
0
 49
-0.508
 74
0
 49
0.0
 74
0
 49
-0.508
 74
0
 49
0.0
 74
0
 49
-0.508
 74
0
  0
LTYPE
  5
3F
330
2
100
AcDbSymbolTableRecord
100
AcDbLinetypeTableRecord
  2
DIVIDEX2
 70
0
  3
Divide (2x) ____  . .  ____  . .  ____  . .  ____
 72
65
 73
6
 40
6.604
 49
5.08
 74
0
 49
-0.508
 74
0
 49
0.0
 74
0
 49
-0.508
 74
0
 49
0.0
 74
0
 49
-0.508
 74
0
  0
LTYPE
  5
40
330
2
100
AcDbSymbolTableRecord
100
AcDbLinetypeTableRecord
  2
DIVIDE2
 70
0
  3
Divide(.5x) _ . _ . _ . _ . _ . _ . _ . _
 72
65
 73
6
 40
2.032
 49
1.27
 74
0
 49
-0.254
 74
0
 49
0.0
 74
0
 49
-0.254
 74
0
 49
0.0
 74
0
 49
-0.254
 74
0
  0
ENDTAB
  0
TABLE
  2
LAYER
  5
1
330
0
100
AcDbSymbolTable
 70
4
  0
LAYER
  5
27
330
1
100
AcDbSymbolTableRecord
100
AcDbLayerTableRecord
  2
0
 70
0
 62
7
  6
Continuous
370
-3
390
13
347
21
  0
LAYER
  5
28
330
1
100
AcDbSymbolTableRecord
100
AcDbLayerTableRecord
  2
Defpoints
 70
0
 62
7
  6
Continuous
290
0
370
-3
390
13
347
21
  0
LAYER
  5
8A
330
1
100
AcDbSymbolTableRecord
100
AcDbLayerTableRecord
  2
CORTE
 70
0
 62
1
  6
Continuous
370
-3
390
13
347
21
  0
LAYER
  5
8B
330
1
100
AcDbSymbolTableRecord
100
AcDbLayerTableRecord
  2
NOTAS
 70
0
 62
3
  6
Continuous
370
-3
390
13
347
21
  0
ENDTAB
  0
TABLE
  2
STYLE
  5
5
330
0
100
AcDbSymbolTable
 70
26
  0
STYLE
  5
29
330
5
100
AcDbSymbolTableRecord
100
AcDbTextStyleTableRecord
  2
Standard
 70
0
 40
0.0
 41
1.0
 50
0.0
 71
0
 42
2.5
  3
txt
  4

  0
STYLE
  5
41
330
5
100
AcDbSymbolTableRecord
100
AcDbTextStyleTableRecord
  2
OpenSans-Light
 70
0
 40
0.0
 41
1.0
 50
0.0
 71
0
 42
2.5
  3
OpenSans-Light.ttf
  4

  0
STYLE
  5
42
330
5
100
AcDbSymbolTableRecord
100
AcDbTextStyleTableRecord
  2
OpenSans-Light-Italic
 70
0
 40
0.0
 41
1.0
 50
0.0
 71
0
 42
2.5
  3
OpenSans-LightItalic.ttf
  4

  0
STYLE
  5
43
330
5
100
AcDbSymbolTableRecord
100
AcDbTextStyleTableRecord
  2
OpenSans
 70
0
 40
0.0
 41
1.0
 50
0.0
 71
0
 42
2.5
  3
OpenSans-Regular.ttf
  4

  0
STYLE
  5
44
330
5
100
AcDbSymbolTableRecord
100
AcDbTextStyleTableRecord
  2
OpenSans-Italic
 70
0
 40
0.0
 41
1.0
 50
0.0
 71
0
 42
2.5
  3
OpenSans-Italic.ttf
  4

  0
STYLE
  5
45
330
5
100
AcDbSymbolTableRecord
100
AcDbTextStyleTableRecord
  2
OpenSans-SemiBold
 70
0
 40
0.0
 41
1.0
 50
0.0
 71
0
 42
2.5
  3
OpenSans-SemiBold.ttf
  4

  0
STYLE
  5
46
330
5
100
AcDbSymbolTableRecord
100
AcDbTextStyleTableRecord
  2
OpenSans-SemiBoldItalic
 70
0
 40
0.0
 41
1.0
 50
0.0
 71
0
 42
2.5
  3
OpenSans-SemiBoldItalic.ttf
  4

  0
STYLE
  5
47
330
5
100
AcDbSymbolTableRecord
100
AcDbTextStyleTableRecord
  2
OpenSans-Bold
 70
0
 40
0.0
 41
1.0
 50
0.0
 71
0
 42
2.5
  3
OpenSans-Bold.ttf
  4

  0
STYLE
  5
48
330
5
100
AcDbSymbolTableRecord
100
AcDbTextStyleTableRecord
  2
OpenSans-BoldItalic
 70
0
 40
0.0
 41
1.0
 50
0.0
 71
0
 42
2.5
  3
OpenSans-BoldItalic.ttf
  4

  0
STYLE
  5
49
330
5
100
AcDbSymbolTableRecord
100
AcDbTextStyleTableRecord
  2
OpenSans-ExtraBold
 70
0
 40
0.0
 41
1.0
 50
0.0
 71
0
 42
2.5
  3
OpenSans-ExtraBold.ttf
  4

  0
STYLE
  5
4A
330
5
100
AcDbSymbolTableRecord
100
AcDbTextStyleTableRecord
  2
OpenSans-ExtraBoldItalic
 70
0
 40
0.0
 41
1.0
 50
0.0
 71
0
 42
2.5
  3
OpenSans-ExtraBoldItalic.ttf
  4

  0
STYLE
  5
4B
330
5
100
AcDbSymbolTableRecord
100
AcDbTextStyleTableRecord
  2
OpenSansCondensed-Bold
 70
0
 40
0.0
 41
1.0
 50
0.0
 71
0
 42
2.5
  3
OpenSansCondensed-Bold.ttf
  4

  0
STYLE
  5
4C
330
5
100
AcDbSymbolTableRecord
100
AcDbTextStyleTableRecord
  2
OpenSansCondensed-Light
 70
0
 40
0.0
 41
1.0
 50
0.0
 71
0
 42
2.5
  3
OpenSansCondensed-Light.ttf
  4

  0
STYLE
  5
4D
330
5
100
AcDbSymbolTableRecord
100
AcDbTextStyleTableRecord
  2
OpenSansCondensed-Italic
 70
0
 40
0.0
 41
1.0
 50
0.0
 71
0
 42
2.5
  3
OpenSansCondensed-LightItalic.ttf
  4

  0
STYLE
  5
4E
330
5
100
AcDbSymbolTableRecord
100
AcDbTextStyleTableRecord
  2
LiberationSans
 70
0
 40
0.0
 41
1.0
 50
0.0
 71
0
 42
2.5
  3
LiberationSans-Regular.ttf
  4

  0
STYLE
  5
4F
330
5
100
AcDbSymbolTableRecord
100
AcDbTextStyleTableRecord
  2
LiberationSans-Bold
 70
0
 40
0.0
 41
1.0
 50
0.0
 71
0
 42
2.5
  3
LiberationSans-Bold.ttf
  4

  0
STYLE
  5
50
330
5
100
AcDbSymbolTableRecord
100
AcDbTextStyleTableRecord
  2
LiberationSans-BoldItalic
 70
0
 40
0.0
 41
1.0
 50
0.0
 71
0
 42
2.5
  3
LiberationSans-BoldItalic.ttf
  4

  0
STYLE
  5
51
330
5
100
AcDbSymbolTableRecord
100
AcDbTextStyleTableRecord
  2
LiberationSans-Italic
 70
0
 40
0.0
 41
1.0
 50
0.0
 71
0
 42
2.5
  3
LiberationSans-Italic.ttf
  4

  0
STYLE
  5
52
330
5
100
AcDbSymbolTableRecord
100
AcDbTextStyleTableRecord
  2
LiberationSerif
 70
0
 40
0.0
 41
1.0
 50
0.0
 71
0
 42
2.5
  3
LiberationSerif-Regular.ttf
  4

  0
STYLE
  5
53
330
5
100
AcDbSymbolTableRecord
100
AcDbTextStyleTableRecord
  2
LiberationSerif-Bold
 70
0
 40
0.0
 41
1.0
 50
0.0
 71
0
 42
2.5
  3
LiberationSerif-Bold.ttf
  4

  0
STYLE
  5
54
330
5
100
AcDbSymbolTableRecord
100
AcDbTextStyleTableRecord
  2
LiberationSerif-BoldItalic
 70
0
 40
0.0
 41
1.0
 50
0.0
 71
0
 42
2.5
  3
LiberationSerif-BoldItalic.ttf
  4

  0
STYLE
  5
55
330
5
100
AcDbSymbolTableRecord
100
AcDbTextStyleTableRecord
  2
LiberationSerif-Italic
 70
0
 40
0.0
 41
1.0
 50
0.0
 71
0
 42
2.5
  3
LiberationSerif-Italic.ttf
  4

  0
STYLE
  5
56
330
5
100
AcDbSymbolTableRecord
100
AcDbTextStyleTableRecord
  2
LiberationMono
 70
0
 40
0.0
 41
1.0
 50
0.0
 71
0
 42
2.5
  3
LiberationMono-Regular.ttf
  4

  0
STYLE
  5
57
330
5
100
AcDbSymbolTableRecord
100
AcDbTextStyleTableRecord
  2
LiberationMono-Bold
 70
0
 40
0.0
 41
1.0
 50
0.0
 71
0
 42
2.5
  3
LiberationMono-Bold.ttf
  4

  0
STYLE
  5
58
330
5
100
AcDbSymbolTableRecord
100
AcDbTextStyleTableRecord
  2
LiberationMono-BoldItalic
 70
0
 40
0.0
 41
1.0
 50
0.0
 71
0
 42
2.5
  3
LiberationMono-BoldItalic.ttf
  4

  0
STYLE
  5
59
330
5
100
AcDbSymbolTableRecord
100
AcDbTextStyleTableRecord
  2
LiberationMono-Italic
 70
0
 40
0.0
 41
1.0
 50
0.0
 71
0
 42
2.5
  3
LiberationMono-Italic.ttf
  4

  0
ENDTAB
  0
TABLE
  2
VIEW
  5
7
330
0
100
AcDbSymbolTable
 70
0
  0
ENDTAB
  0
TABLE
  2
UCS
  5
6
330
0
100
AcDbSymbolTable
 70
0
  0
ENDTAB
  0
TABLE
  2
APPID
  5
3
330
0
100
AcDbSymbolTable
 70
3
  0
APPID
  5
2A
330
3
100
AcDbSymbolTableRecord
100
AcDbRegAppTableRecord
  2
ACAD
 70
0
  0
APPID
  5
98
330
3
100
AcDbSymbolTableRecord
100
AcDbRegAppTableRecord
  2
HATCHBACKGROUNDCOLOR
 70
0
  0
APPID
  5
99
330
3
100
AcDbSymbolTableRecord
100
AcDbRegAppTableRecord
  2
EZDXF
 70
0
  0
ENDTAB
  0
TABLE
  2
DIMSTYLE
  5
4
330
0
100
AcDbSymbolTable
 70
12
100
AcDbDimStyleTable
  0
DIMSTYLE
105
2B
330
4
100
AcDbSymbolTableRecord
100
AcDbDimStyleTableRecord
  2
Standard
 70
0
 40
1.0
 41
2.5
 42
0.625
 43
3.75
 44
1.25
 45
0.0
 46
0.0
 47
0.0
 48
0.0
 49
2.5
140
2.5
141
2.5
142
0.0
143
0.03937007874
144
1.0
145
0.0
146
1.0
147
0.625
148
0.0
 69
0
 70
0
 71
0
 72
0
 73
0
 74
0
 75
0
 76
0
 77
1
 78
8
 79
3
170
0
171
3
172
1
173
0
174
0
175
0
176
0
177
0
178
0
179
2
271
2
272
2
273
2
274
3
275
0
276
0
277
2
278
44
279
0
280
0
281
0
282
0
283
0
284
8
285
0
286
0
288
0
289
3
290
0
371
-2
372
-2
  0
DIMSTYLE
105
73
330
4
100
AcDbSymbolTableRecord
100
AcDbDimStyleTableRecord
  2
EZDXF
 70
0
 40
1.0
 41
0.175
 42
0.125
 43
3.75
 44
0.375
 45
0.0
 46
0.0
 47
0.0
 48
0.0
 49
2.5
140
0.25
141
2.5
142
0.0
143
0.03937007874
144
100.0
145
0.0
146
0.5
147
0.1
148
0.0
 69
0
 70
0
 71
0
 72
0
 73
0
 74
0
 75
0
 76
0
 77
1
 78
12
 79
3
170
0
171
3
172
1
173
0
174
0
175
0
176
0
177
0
178
0
179
2
271
2
272
2
273
2
274
3
275
0
276
0
277
2
278
46
279
2
280
0
281
0
282
0
283
0
284
8
285
0
286
0
288
1
289
3
290
0
340
4C
342
74
371
-2
372
-2
  0
DIMSTYLE
105
7C
330
4
100
AcDbSymbolTableRecord
100
AcDbDimStyleTableRecord
  2
EZ_M_100_H25_CM
 70
0
 40
1.0
 41
0.25
 42
0.125
 43
3.75
 44
0.375
 45
0.0
 46
0.0
 47
0.0
 48
0.0
 49
2.5
140
0.25
141
2.5
142
0.125
143
0.03937007874
144
100.0
145
0.0
146
0.5
147
0.1
148
0.0
 69
0
 70
0
 71
0
 72
0
 73
0
 74
0
 75
0
 76
0
 77
1
 78
12
 79
3
170
0
171
3
172
1
173
0
174
0
175
0
176
0
177
0
178
0
179
2
271
2
272
2
273
2
274
3
275
0
276
0
277
2
278
46
279
2
280
0
281
0
282
0
283
0
284
8
285
0
286
0
288
1
289
3
290
0
340
4C
371
-2
372
-2
  0
DIMSTYLE
105
7D
330
4
100
AcDbSymbolTableRecord
100
AcDbDimStyleTableRecord
  2
EZ_M_50_H25_CM
 70
0
 40
1.0
 41
0.125
 42
0.0625
 43
3.75
 44
0.1875
 45
0.0
 46
0.0
 47
0.0
 48
0.0
 49
2.5
140
0.125
141
2.5
142
0.0625
143
0.03937007874
144
100.0
145
0.0
146
0.5
147
0.05
148
0.0
 69
0
 70
0
 71
0
 72
0
 73
0
 74
0
 75
0
 76
0
 77
1
 78
12
 79
3
170
0
171
3
172
1
173
0
174
0
175
0
176
0
177
0
178
0
179
2
271
2
272
2
273
2
274
3
275
0
276
0
277
2
278
46
279
2
280
0
281
0
282
0
283
0
284
8
285
0
286
0
288
1
289
3
290
0
340
4C
371
-2
372
-2
  0
DIMSTYLE
105
7E
330
4
100
AcDbSymbolTableRecord
100
AcDbDimStyleTableRecord
  2
EZ_M_25_H25_CM
 70
0
 40
1.0
 41
0.0625
 42
0.03125
 43
3.75
 44
0.09375
 45
0.0
 46
0.0
 47
0.0
 48
0.0
 49
2.5
140
0.0625
141
2.5
142
0.03125
143
0.03937007874
144
100.0
145
0.0
146
0.5
147
0.025
148
0.0
 69
0
 70
0
 71
0
 72
0
 73
0
 74
0
 75
0
 76
0
 77
1
 78
12
 79
3
170
0
171
3
172
1
173
0
174
0
175
0
176
0
177
0
178
0
179
2
271
2
272
2
273
2
274
3
275
0
276
0
277
2
278
46
279
2
280
0
281
0
282
0
283
0
284
8
285
0
286
0
288
1
289
3
290
0
340
4C
371
-2
372
-2
  0
DIMSTYLE
105
7F
330
4
100
AcDbSymbolTableRecord
100
AcDbDimStyleTableRecord
  2
EZ_M_20_H25_CM
 70
0
 40
1.0
 41
0.05
 42
0.025
 43
3.75
 44
0.07500000000000001
 45
0.0
 46
0.0
 47
0.0
 48
0.0
 49
2.5
140
0.05
141
2.5
142
0.025
143
0.03937007874
144
100.0
145
0.0
146
0.5
147
0.020000000000000004
148
0.0
 69
0
 70
0
 71
0
 72
0
 73
0
 74
0
 75
0
 76
0
 77
1
 78
12
 79
3
170
0
171
3
172
1
173
0
174
0
175
0
176
0
177
0
178
0
179
2
271
2
272
2
273
2
274
3
275
0
276
0
277
2
278
46
279
2
280
0
281
0
282
0
283
0
284
8
285
0
286
0
288
1
289
3
290
0
340
4C
371
-2
372
-2
  0
DIMSTYLE
105
80
330
4
100
AcDbSymbolTableRecord
100
AcDbDimStyleTableRecord
  2
EZ_M_10_H25_CM
 70
0
 40
1.0
 41
0.025
 42
0.0125
 43
3.75
 44
0.037500000000000006
 45
0.0
 46
0.0
 47
0.0
 48
0.0
 49
2.5
140
0.025
141
2.5
142
0.0125
143
0.03937007874
144
100.0
145
0.0
146
0.5
147
0.010000000000000002
148
0.0
 69
0
 70
0
 71
0
 72
0
 73
0
 74
0
 75
0
 76
0
 77
1
 78
12
 79
3
170
0
171
3
172
1
173
0
174
0
175
0
176
0
177
0
178
0
179
2
271
2
272
2
273
2
274
3
275
0
276
0
277
2
278
46
279
2
280
0
281
0
282
0
283
0
284
8
285
0
286
0
288
1
289
3
290
0
340
4C
371
-2
372
-2
  0
DIMSTYLE
105
81
330
4
100
AcDbSymbolTableRecord
100
AcDbDimStyleTableRecord
  2
EZ_M_5_H25_CM
 70
0
 40
1.0
 41
0.0125
 42
0.00625
 43
3.75
 44
0.018750000000000003
 45
0.0
 46
0.0
 47
0.0
 48
0.0
 49
2.5
140
0.0125
141
2.5
142
0.00625
143
0.03937007874
144
100.0
145
0.0
146
0.5
147
0.005000000000000001
148
0.0
 69
0
 70
0
 71
0
 72
0
 73
0
 74
0
 75
0
 76
0
 77
1
 78
12
 79
3
170
0
171
3
172
1
173
0
174
0
175
0
176
0
177
0
178
0
179
2
271
2
272
2
273
2
274
3
275
0
276
0
277
2
278
46
279
2
280
0
281
0
282
0
283
0
284
8
285
0
286
0
288
1
289
3
290
0
340
4C
371
-2
372
-2
  0
DIMSTYLE
105
82
330
4
100
AcDbSymbolTableRecord
100
AcDbDimStyleTableRecord
  2
EZ_M_1_H25_CM
 70
0
 40
1.0
 41
0.0025
 42
0.00125
 43
3.75
 44
0.00375
 45
0.0
 46
0.0
 47
0.0
 48
0.0
 49
2.5
140
0.0025
141
2.5
142
0.00125
143
0.03937007874
144
100.0
145
0.0
146
0.5
147
0.001
148
0.0
 69
0
 70
0
 71
0
 72
0
 73
0
 74
0
 75
0
 76
0
 77
1
 78
12
 79
3
170
0
171
3
172
1
173
0
174
0
175
0
176
0
177
0
178
0
179
2
271
2
272
2
273
2
274
3
275
0
276
0
277
2
278
46
279
2
280
0
281
0
282
0
283
0
284
8
285
0
286
0
288
1
289
3
290
0
340
4C
371
-2
372
-2
  0
DIMSTYLE
105
83
330
4
100
AcDbSymbolTableRecord
100
AcDbDimStyleTableRecord
  2
EZ_RADIUS
 70
0
 40
1.0
 41
0.25
 42
0.125
 43
3.75
 44
0.375
 45
0.0
 46
0.0
 47
0.0
 48
0.0
 49
2.5
140
0.25
141
0.0
142
0.0
143
0.03937007874
144
100.0
145
0.0
146
0.5
147
0.1
148
0.0
 69
0
 70
0
 71
0
 72
0
 73
0
 74
0
 75
0
 76
0
 77
1
 78
12
 79
3
170
0
171
3
172
0
173
0
174
0
175
0
176
0
177
0
178
0
179
2
271
2
272
2
273
2
274
3
275
0
276
0
277
2
278
46
279
1
280
0
281
0
282
0
283
0
284
8
285
0
286
0
288
1
289
3
290
0
340
4C
342
84
371
-2
372
-2
  0
DIMSTYLE
105
88
330
4
100
AcDbSymbolTableRecord
100
AcDbDimStyleTableRecord
  2
EZ_RADIUS_INSIDE
 70
0
 40
1.0
 41
0.25
 42
0.125
 43
3.75
 44
0.375
 45
0.0
 46
0.0
 47
0.0
 48
0.0
 49
2.5
140
0.25
141
0.0
142
0.0
143
0.03937007874
144
100.0
145
0.0
146
0.5
147
0.1
148
0.0
 69
0
 70
0
 71
0
 72
0
 73
0
 74
0
 75
0
 76
0
 77
0
 78
12
 79
3
170
0
171
3
172
0
173
0
174
1
175
0
176
0
177
0
178
0
179
2
271
2
272
2
273
2
274
3
275
0
276
0
277
2
278
46
279
0
280
0
281
0
282
0
283
0
284
8
285
0
286
0
288
1
289
0
290
0
340
4C
342
84
371
-2
372
-2
  0
DIMSTYLE
105
89
330
4
100
AcDbSymbolTableRecord
100
AcDbDimStyleTableRecord
  2
EZ_CURVED
 70
0
 40
1.0
 41
0.25
 42
0.125
 43
3.75
 44
0.375
 45
0.0
 46
0.0
 47
0.0
 48
0.0
 49
2.5
140
0.25
141
2.5
142
0.0
143
0.03937007874
144
100.0
145
0.0
146
0.5
147
0.1
148
0.0
 69
0
 70
0
 71
0
 72
0
 73
0
 74
0
 75
0
 76
0
 77
1
 78
12
 79
2
 90
2
170
0
171
3
172
1
173
0
174
0
175
0
176
0
177
0
178
0
179
2
271
2
272
2
273
2
274
3
275
0
276
0
277
2
278
46
279
2
280
0
281
0
282
0
283
0
284
8
285
0
286
0
288
1
289
3
290
0
340
4C
371
-2
372
-2
  0
ENDTAB
  0
TABLE
  2
BLOCK_RECORD
  5
9
330
0
100
AcDbSymbolTable
 70
5
  0
BLOCK_RECORD
  5
17
330
9
100
AcDbSymbolTableRecord
100
AcDbBlockTableRecord
  2
*Model_Space
340
1A
 70
0
280
1
281
0
  0
BLOCK_RECORD
  5
1B
330
9
100
AcDbSymbolTableRecord
100
AcDbBlockTableRecord
  2
*Paper_Space
340
1E
 70
0
280
1
281
0
  0
BLOCK_RECORD
  5
74
330
9
100
AcDbSymbolTableRecord
100
AcDbBlockTableRecord
  2
_ARCHTICK
340
0
 70
0
280
1
281
0
  0
BLOCK_RECORD
  5
78
330
9
100
AcDbSymbolTableRecord
100
AcDbBlockTableRecord
  2
_CLOSEDFILLED
340
0
 70
0
280
1
281
0
  0
BLOCK_RECORD
  5
84
330
9
100
AcDbSymbolTableRecord
100
AcDbBlockTableRecord
  2
_CLOSEDBLANK
340
0
 70
0
280
1
281
0
  0
ENDTAB
  0
ENDSEC
  0
SECTION
  2
BLOCKS
  0
BLOCK
  5
18
330
17
100
AcDbEntity
  8
0
100
AcDbBlockBegin
  2
*Model_Space
 70
0
 10
0.0
 20
0.0
 30
0.0
  3
*Model_Space
  1

  0
ENDBLK
  5
19
330
17
100
AcDbEntity
  8
0
100
AcDbBlockEnd
  0
BLOCK
  5
1C
330
1B
100
AcDbEntity
  8
0
100
AcDbBlockBegin
  2
*Paper_Space
 70
0
 10
0.0
 20
0.0
 30
0.0
  3
*Paper_Space
  1

  0
ENDBLK
  5
1D
330
1B
100
AcDbEntity
  8
0
100
AcDbBlockEnd
  0
BLOCK
  5
75
330
74
100
AcDbEntity
  8
0
100
AcDbBlockBegin
  2
_ARCHTICK
 70
0
 10
0.0
 20
0.0
 30
0.0
  3
_ARCHTICK
  1

  0
LWPOLYLINE
  5
77
330
74
100
AcDbEntity
  8
0
  6
BYBLOCK
 62
0
100
AcDbPolyline
 90
2
 70
0
 43
0.15
 10
-0.5
 20
-0.5
 10
0.5
 20
0.5
  0
ENDBLK
  5
76
330
74
100
AcDbEntity
  8
0
100
AcDbBlockEnd
  0
BLOCK
  5
79
330
78
100
AcDbEntity
  8
0
100
AcDbBlockBegin
  2
_CLOSEDFILLED
 70
0
 10
0.0
 20
0.0
 30
0.0
  3
_CLOSEDFILLED
  1

  0
SOLID
  5
7B
330
78
100
AcDbEntity
  8
0
  6
BYBLOCK
 62
0
100
AcDbTrace
 10
-1.0
 20
0.16439898372402537
 30
0.0
 11
0.0
 21
0.0
 31
0.0
 12
-1.0
 22
-0.16439898372402537
 32
0.0
 13
-1.0
 23
-0.16439898372402537
 33
0.0
  0
ENDBLK
  5
7A
330
78
100
AcDbEntity
  8
0
100
AcDbBlockEnd
  0
BLOCK
  5
85
330
84
100
AcDbEntity
  8
0
100
AcDbBlockBegin
  2
_CLOSEDBLANK
 70
0
 10
0.0
 20
0.0
 30
0.0
  3
_CLOSEDBLANK
  1

  0
LWPOLYLINE
  5
87
330
84
100
AcDbEntity
  8
0
  6
BYBLOCK
 62
0
100
AcDbPolyline
 90
3
 70
1
 10
-1.0
 20
0.16439898372402537
 10
0.0
 20
0.0
 10
-1.0
 20
-0.16439898372402537
  0
ENDBLK
  5
86
330
84
100
AcDbEntity
  8
0
100
AcDbBlockEnd
  0
ENDSEC
  0
SECTION
  2
ENTITIES
  0
LWPOLYLINE
  5
8C
330
17
100
AcDbEntity
  8
CORTE
100
AcDbPolyline
 90
69
 70
1
 10
-118.17662564387528
 20
-117.06902566481676
 10
-118.64373490307895
 20
-116.43920173823622
 10
-119.0468613633311
 20
-115.76662587220184
 10
-119.38212269644809
 20
-115.05777533997103
 10
-119.6462901525195
 20
-114.31947675966632
 10
-119.83681965453482
 20
-113.55884035021091
 10
-119.95187629923554
 20
-112.7831914560343
 10
-120.0
 20
-111.8036110231286
 10
-120.0
 20
111.8036110231286
 10
-119.95187629923554
 20
112.78319145603433
 10
-119.83681965453482
 20
113.55884035021087
 10
-119.6462901525195
 20
114.31947675966634
 10
-119.38212269644809
 20
115.05777533997103
 10
-119.04686136333113
 20
115.76662587220176
 10
-118.64373490307892
 20
116.43920173823625
 10
-118.17662564387524
 20
117.06902566481683
 10
-117.65003210323397
 20
117.65003210323397
 10
-117.06902566481683
 20
118.17662564387524
 10
-116.43920173823619
 20
118.64373490307898
 10
-115.76662587220184
 20
119.0468613633311
 10
-115.05777533997103
 20
119.38212269644809
 10
-114.31947675966632
 20
119.6462901525195
 10
-113.55884035021091
 20
119.83681965453482
 10
-112.7831914560343
 20
119.95187629923554
 10
-111.8036110231286
 20
120.0
 10
111.8036110231286
 20
120.0
 10
112.7831914560343
 20
119.95187629923554
 10
113.55884035021091
 20
119.83681965453482
 10
114.31947675966632
 20
119.6462901525195
 10
115.05777533997103
 20
119.38212269644809
 10
115.76662587220176
 20
119.04686136333113
 10
116.43920173823625
 20
118.64373490307892
 10
117.06902566481683
 20
118.17662564387524
 10
117.65003210323397
 20
117.65003210323397
 10
118.17662564387524
 20
117.06902566481683
 10
118.64373490307892
 20
116.43920173823625
 10
119.04686136333113
 20
115.76662587220176
 10
119.38212269644809
 20
115.05777533997103
 10
119.6462901525195
 20
114.31947675966632
 10
119.83681965453482
 20
113.55884035021091
 10
119.95187629923554
 20
112.7831914560343
 10
120.0
 20
111.8036110231286
 10
120.0
 20
-111.8036110231286
 10
119.95187629923554
 20
-112.7831914560343
 10
119.83681965453482
 20
-113.55884035021091
 10
119.6462901525195
 20
-114.31947675966632
 10
119.38212269644809
 20
-115.05777533997103
 10
119.04686136333113
 20
-115.76662587220176
 10
118.64373490307892
 20
-116.43920173823625
 10
118.17662564387524
 20
-117.06902566481683
 10
117.65003210323397
 20
-117.65003210323397
 10
117.06902566481683
 20
-118.17662564387524
 10
116.43920173823625
 20
-118.64373490307892
 10
115.76662587220176
 20
-119.04686136333113
 10
115.05777533997103
 20
-119.38212269644809
 10
114.31947675966632
 20
-119.6462901525195
 10
113.55884035021091
 20
-119.83681965453482
 10
112.7831914560343
 20
-119.95187629923554
 10
111.8036110231286
 20
-120.0
 10
-111.8036110231286
 20
-120.0
 10
-112.78319145603433
 20
-119.95187629923554
 10
-113.55884035021087
 20
-119.83681965453482
 10
-114.31947675966632
 20
-119.6462901525195
 10
-115.05777533997104
 20
-119.38212269644808
 10
-115.76662587220179
 20
-119.04686136333112
 10
-116.43920173823625
 20
-118.64373490307892
 10
-117.06902566481683
 20
-118.17662564387524
 10
-117.65003210323394
 20
-117.650032103234
 10
-118.17662564387528
 20
-117.06902566481676
  0
LWPOLYLINE
  5
8D
330
17
100
AcDbEntity
  8
CORTE
100
AcDbPolyline
 90
129
 70
1
 10
7.277113809643717
 20
3.4418185021137746
 10
7.099466178004257
 20
3.794743731449284
 10
6.904715310502191
 20
4.138527090755437
 10
6.69333037903549
 20
4.472340375807798
 10
6.465820628419193
 20
4.795379401164088
 10
6.222734149570031
 20
5.10686593751735
 10
5.96465655910742
 20
5.406049586518501
 10
5.692209588551707
 20
5.69220958855171
 10
5.406049586518498
 20
5.964656559107421
 10
5.106865937517347
 20
6.222734149570033
 10
4.795379401164086
 20
6.465820628419195
 10
4.4723403758077955
 20
6.693330379035491
 10
4.138527090755434
 20
6.904715310502192
 10
3.794743731449281
 20
7.099466178004259
 10
3.4418185021137715
 20
7.277113809643719
 10
3.080601630538975
 20
7.437230236715858
 10
2.711963319807368
 20
7.579429724723319
 10
2.3367916518984195
 20
7.703369702644283
 10
1.9559904482212735
 20
7.808751588216079
 10
1.570477092229833
 20
7.895321507246005
 10
1.1811803193656638
 20
7.962870905216487
 10
0.7890379796529587
 20
8.011237049711186
 10
0.3949947783357122
 20
8.040303422451638
 10
0.0
 20
8.05
 10
-0.39499477833571517
 20
8.040303422451638
 10
-0.7890379796529617
 20
8.011237049711186
 10
-1.1811803193656667
 20
7.962870905216487
 10
-1.570477092229836
 20
7.895321507246004
 10
-1.9559904482212764
 20
7.808751588216079
 10
-2.336791651898423
 20
7.703369702644282
 10
-2.7119633198073707
 20
7.579429724723318
 10
-3.0806016305389776
 20
7.437230236715857
 10
-3.441818502113774
 20
7.277113809643717
 10
-3.7947437314492833
 20
7.099466178004258
 10
-4.138527090755436
 20
6.904715310502191
 10
-4.472340375807798
 20
6.69333037903549
 10
-4.795379401164087
 20
6.465820628419193
 10
-5.10686593751735
 20
6.222734149570031
 10
-5.406049586518501
 20
5.96465655910742
 10
-5.69220958855171
 20
5.692209588551708
 10
-5.964656559107421
 20
5.406049586518499
 10
-6.222734149570035
 20
5.106865937517345
 10
-6.465820628419192
 20
4.795379401164088
 10
-6.693330379035491
 20
4.472340375807796
 10
-6.9047153105021914
 20
4.138527090755434
 10
-7.099466178004259
 20
3.7947437314492816
 10
-7.27711380964372
 20
3.441818502113769
 10
-7.43723023671586
 20
3.0806016305389723
 10
-7.579429724723318
 20
2.711963319807372
 10
-7.703369702644283
 20
2.33679165189842
 10
-7.808751588216079
 20
1.955990448221274
 10
-7.895321507246005
 20
1.5704770922298334
 10
-7.962870905216488
 20
1.181180319365661
 10
-8.011237049711186
 20
0.7890379796529629
 10
-8.040303422451638
 20
0.3949947783357127
 10
-8.05
 20
0.0
 10
-8.040303422451638
 20
-0.39499477833571467
 10
-8.011237049711186
 20
-0.7890379796529647
 10
-7.962870905216488
 20
-1.1811803193656627
 10
-7.895321507246005
 20
-1.5704770922298354
 10
-7.808751588216079
 20
-1.955990448221276
 10
-7.703369702644282
 20
-2.3367916518984226
 10
-7.579429724723317
 20
-2.711963319807374
 10
-7.437230236715859
 20
-3.080601630538974
 10
-7.277113809643719
 20
-3.4418185021137706
 10
-7.099466178004258
 20
-3.7947437314492833
 10
-6.904715310502191
 20
-4.138527090755436
 10
-6.6933303790354906
 20
-4.472340375807798
 10
-6.465820628419191
 20
-4.79537940116409
 10
-6.222734149570034
 20
-5.106865937517346
 10
-5.96465655910742
 20
-5.4060495865185
 10
-5.692209588551708
 20
-5.692209588551709
 10
-5.406049586518499
 20
-5.9646565591074205
 10
-5.1068659375173455
 20
-6.222734149570035
 10
-4.795379401164089
 20
-6.465820628419192
 10
-4.472340375807796
 20
-6.693330379035491
 10
-4.138527090755435
 20
-6.9047153105021914
 10
-3.794743731449282
 20
-7.099466178004259
 10
-3.4418185021137693
 20
-7.27711380964372
 10
-3.0806016305389727
 20
-7.437230236715859
 10
-2.7119633198073707
 20
-7.579429724723318
 10
-2.3367916518984204
 20
-7.703369702644283
 10
-1.9559904482212744
 20
-7.808751588216079
 10
-1.5704770922298321
 20
-7.895321507246005
 10
-1.1811803193656614
 20
-7.962870905216488
 10
-0.7890379796529633
 20
-8.011237049711186
 10
-0.394994778335715
 20
-8.040303422451638
 10
0.0
 20
-8.05
 10
0.39499477833571595
 20
-8.040303422451638
 10
0.7890379796529643
 20
-8.011237049711186
 10
1.1811803193656623
 20
-7.962870905216488
 10
1.5704770922298332
 20
-7.895321507246005
 10
1.9559904482212753
 20
-7.808751588216079
 10
2.3367916518984218
 20
-7.703369702644283
 10
2.7119633198073716
 20
-7.579429724723318
 10
3.0806016305389736
 20
-7.437230236715859
 10
3.441818502113772
 20
-7.277113809643719
 10
3.794743731449283
 20
-7.099466178004258
 10
4.138527090755435
 20
-6.9047153105021914
 10
4.472340375807799
 20
-6.69333037903549
 10
4.79537940116409
 20
-6.465820628419191
 10
5.106865937517346
 20
-6.222734149570034
 10
5.406049586518498
 20
-5.964656559107421
 10
5.692209588551709
 20
-5.692209588551708
 10
5.964656559107421
 20
-5.406049586518498
 10
6.222734149570034
 20
-5.106865937517346
 10
6.465820628419192
 20
-4.795379401164089
 10
6.69333037903549
 20
-4.472340375807798
 10
6.9047153105021914
 20
-4.138527090755435
 10
7.099466178004259
 20
-3.7947437314492816
 10
7.277113809643719
 20
-3.441818502113771
 10
7.437230236715859
 20
-3.080601630538973
 10
7.579429724723318
 20
-2.7119633198073716
 10
7.703369702644282
 20
-2.3367916518984218
 10
7.808751588216079
 20
-1.9559904482212744
 10
7.895321507246005
 20
-1.5704770922298326
 10
7.962870905216488
 20
-1.1811803193656623
 10
8.011237049711186
 20
-0.789037979652963
 10
8.040303422451638
 20
-0.39499477833571506
 10
8.05
 20
0.0
 10
8.040303422451638
 20
0.39499477833571567
 10
8.011237049711186
 20
0.7890379796529622
 10
7.962870905216487
 20
1.1811803193656674
 10
7.895321507246004
 20
1.5704770922298363
 10
7.808751588216079
 20
1.9559904482212769
 10
7.703369702644282
 20
2.3367916518984235
 10
7.579429724723318
 20
2.711963319807371
 10
7.437230236715857
 20
3.080601630538978
 10
7.277113809643717
 20
3.4418185021137746
  0
LWPOLYLINE
  5
8E
330
17
100
AcDbEntity
  8
CORTE
100
AcDbPolyline
 90
129
 70
1
 10
82.12261790932327
 20
-44.9858889042325
 10
82.06990877494549
 20
-44.86697900240974
 10
82.0114284986915
 20
-44.750798647411095
 10
81.94731796466908
 20
-44.63762772788795
 10
81.8777316207701
 20
-44.52773888249805
 10
81.80283710659207
 20
-44.421396843095046
 10
81.72281484957962
 20
-44.318857796966334
 10
81.63785763035901
 20
-44.220368769655394
 10
81.54817011831271
 20
-44.126167029855644
 10
81.45396837851295
 20
-44.036479517809354
 10
81.35547935120202
 20
-43.95152229858874
 10
81.25294030507331
 20
-43.87150004157628
 10
81.1465982656703
 20
-43.79660552739825
 10
81.0367094202804
 20
-43.72701918349927
 10
80.92353850075726
 20
-43.662908649476854
 10
80.80735814575861
 20
-43.604428373222866
 10
80.68844824393585
 20
-43.55171923884508
 10
80.56709525965775
 20
-43.50490822726499
 10
80.44359154289269
 20
-43.46410811030964
 10
80.31823462491201
 20
-43.42941717903445
 10
80.1913265015111
 20
-43.40091900693143
 10
80.06317290547507
 20
-43.37868224859332
 10
79.9340825700417
 20
-43.36276047431867
 10
79.80436648513601
 20
-43.35319204105629
 10
79.67433714816836
 20
-43.349999999999994
 10
79.54430781120071
 20
-43.35319204105629
 10
79.41459172629503
 20
-43.36276047431867
 10
79.28550139086165
 20
-43.37868224859332
 10
79.15734779482563
 20
-43.40091900693143
 10
79.03043967142472
 20
-43.42941717903445
 10
78.90508275344403
 20
-43.46410811030964
 10
78.78157903667898
 20
-43.50490822726499
 10
78.66022605240087
 20
-43.55171923884508
 10
78.54131615057811
 20
-43.604428373222866
 10
78.42513579557946
 20
-43.662908649476854
 10
78.31196487605632
 20
-43.72701918349927
 10
78.20207603066642
 20
-43.79660552739825
 10
78.09573399126342
 20
-43.87150004157628
 10
77.9931949451347
 20
-43.95152229858874
 10
77.89470591782376
 20
-44.036479517809354
 10
77.80050417802401
 20
-44.126167029855644
 10
77.71081666597772
 20
-44.220368769655394
 10
77.6258594467571
 20
-44.318857796966334
 10
77.54583718974466
 20
-44.421396843095046
 10
77.47094267556662
 20
-44.52773888249805
 10
77.40135633166764
 20
-44.63762772788795
 10
77.33724579764522
 20
-44.7507986474111
 10
77.27876552139124
 20
-44.86697900240975
 10
77.22605638701346
 20
-44.9858889042325
 10
77.17924537543335
 20
-45.10724188851061
 10
77.13844525847801
 20
-45.230745605275665
 10
77.10375432720282
 20
-45.35610252325635
 10
77.07525615509981
 20
-45.483010646657256
 10
77.0530193967617
 20
-45.611164242693285
 10
77.03709762248704
 20
-45.74025457812666
 10
77.02752918922465
 20
-45.86997066303233
 10
77.02433714816836
 20
-45.99999999999999
 10
77.02752918922465
 20
-46.13002933696765
 10
77.03709762248704
 20
-46.259745421873326
 10
77.0530193967617
 20
-46.3888357573067
 10
77.07525615509981
 20
-46.51698935334274
 10
77.10375432720282
 20
-46.64389747674364
 10
77.13844525847801
 20
-46.76925439472432
 10
77.17924537543335
 20
-46.89275811148938
 10
77.22605638701346
 20
-47.01411109576748
 10
77.27876552139124
 20
-47.13302099759024
 10
77.33724579764522
 20
-47.249201352588884
 10
77.40135633166764
 20
-47.36237227211203
 10
77.47094267556662
 20
-47.47226111750194
 10
77.54583718974466
 20
-47.57860315690494
 10
77.6258594467571
 20
-47.68114220303365
 10
77.71081666597772
 20
-47.77963123034459
 10
77.80050417802401
 20
-47.87383297014434
 10
77.89470591782376
 20
-47.96352048219063
 10
77.9931949451347
 20
-48.048477701411244
 10
78.09573399126342
 20
-48.1284999584237
 10
78.20207603066642
 20
-48.20339447260174
 10
78.31196487605632
 20
-48.27298081650071
 10
78.42513579557946
 20
-48.33709135052313
 10
78.54131615057811
 20
-48.39557162677712
 10
78.66022605240087
 20
-48.448280761154905
 10
78.78157903667898
 20
-48.495091772734995
 10
78.90508275344403
 20
-48.53589188969035
 10
79.03043967142472
 20
-48.570582820965534
 10
79.15734779482563
 20
-48.599080993068554
 10
79.28550139086165
 20
-48.621317751406664
 10
79.41459172629503
 20
-48.637239525681316
 10
79.54430781120071
 20
-48.6468079589437
 10
79.67433714816836
 20
-48.64999999999999
 10
79.80436648513601
 20
-48.6468079589437
 10
79.9340825700417
 20
-48.637239525681316
 10
80.06317290547507
 20
-48.621317751406664
 10
80.1913265015111
 20
-48.599080993068554
 10
80.31823462491201
 20
-48.570582820965534
 10
80.44359154289269
 20
-48.53589188969035
 10
80.56709525965775
 20
-48.495091772734995
 10
80.68844824393585
 20
-48.448280761154905
 10
80.80735814575861
 20
-48.39557162677712
 10
80.92353850075726
 20
-48.33709135052313
 10
81.0367094202804
 20
-48.27298081650071
 10
81.1465982656703
 20
-48.20339447260174
 10
81.25294030507331
 20
-48.1284999584237
 10
81.35547935120202
 20
-48.048477701411244
 10
81.45396837851295
 20
-47.96352048219063
 10
81.54817011831271
 20
-47.87383297014434
 10
81.63785763035901
 20
-47.77963123034459
 10
81.72281484957962
 20
-47.68114220303365
 10
81.80283710659207
 20
-47.57860315690494
 10
81.8777316207701
 20
-47.47226111750194
 10
81.94731796466908
 20
-47.36237227211203
 10
82.0114284986915
 20
-47.249201352588884
 10
82.06990877494549
 20
-47.13302099759024
 10
82.12261790932327
 20
-47.01411109576748
 10
82.16942892090337
 20
-46.89275811148938
 10
82.21022903785871
 20
-46.76925439472432
 10
82.2449199691339
 20
-46.64389747674364
 10
82.27341814123692
 20
-46.51698935334273
 10
82.29565489957503
 20
-46.3888357573067
 10
82.31157667384969
 20
-46.259745421873326
 10
82.32114510711207
 20
-46.13002933696765
 10
82.32433714816837
 20
-45.99999999999999
 10
82.32114510711207
 20
-45.86997066303233
 10
82.31157667384969
 20
-45.74025457812666
 10
82.29565489957503
 20
-45.611164242693285
 10
82.27341814123692
 20
-45.48301064665725
 10
82.2449199691339
 20
-45.35610252325634
 10
82.21022903785871
 20
-45.230745605275665
 10
82.16942892090337
 20
-45.10724188851061
 10
82.12261790932327
 20
-44.9858889042325
  0
LWPOLYLINE
  5
8F
330
17
100
AcDbEntity
  8
CORTE
100
AcDbPolyline
 90
129
 70
1
 10
82.16942892090337
 20
46.89275811148938
 10
82.12261790932327
 20
47.01411109576748
 10
82.06990877494549
 20
47.13302099759024
 10
82.0114284986915
 20
47.24920135258889
 10
81.94731796466908
 20
47.36237227211203
 10
81.8777316207701
 20
47.47226111750194
 10
81.80283710659207
 20
47.57860315690494
 10
81.72281484957962
 20
47.68114220303365
 10
81.63785763035901
 20
47.77963123034459
 10
81.54817011831271
 20
47.87383297014434
 10
81.45396837851295
 20
47.96352048219063
 10
81.35547935120202
 20
48.048477701411244
 10
81.25294030507331
 20
48.1284999584237
 10
81.1465982656703
 20
48.20339447260174
 10
81.0367094202804
 20
48.27298081650071
 10
80.92353850075726
 20
48.33709135052313
 10
80.80735814575861
 20
48.39557162677712
 10
80.68844824393585
 20
48.448280761154905
 10
80.56709525965775
 20
48.495091772734995
 10
80.44359154289269
 20
48.53589188969035
 10
80.31823462491201
 20
48.570582820965534
 10
80.1913265015111
 20
48.599080993068554
 10
80.06317290547507
 20
48.621317751406664
 10
79.9340825700417
 20
48.637239525681316
 10
79.80436648513601
 20
48.6468079589437
 10
79.67433714816836
 20
48.64999999999999
 10
79.54430781120071
 20
48.6468079589437
 10
79.41459172629503
 20
48.637239525681316
 10
79.28550139086165
 20
48.621317751406664
 10
79.15734779482563
 20
48.599080993068554
 10
79.03043967142472
 20
48.570582820965534
 10
78.90508275344403
 20
48.53589188969035
 10
78.78157903667898
 20
48.495091772734995
 10
78.66022605240087
 20
48.448280761154905
 10
78.54131615057811
 20
48.39557162677712
 10
78.42513579557946
 20
48.33709135052313
 10
78.31196487605632
 20
48.27298081650071
 10
78.20207603066642
 20
48.20339447260174
 10
78.09573399126342
 20
48.1284999584237
 10
77.9931949451347
 20
48.048477701411244
 10
77.89470591782376
 20
47.96352048219063
 10
77.80050417802401
 20
47.87383297014434
 10
77.71081666597772
 20
47.77963123034459
 10
77.6258594467571
 20
47.68114220303365
 10
77.54583718974466
 20
47.57860315690494
 10
77.47094267556662
 20
47.47226111750194
 10
77.40135633166764
 20
47.36237227211203
 10
77.33724579764522
 20
47.249201352588884
 10
77.27876552139124
 20
47.133020997590236
 10
77.22605638701346
 20
47.01411109576748
 10
77.17924537543335
 20
46.89275811148938
 10
77.13844525847801
 20
46.76925439472432
 10
77.10375432720282
 20
46.64389747674364
 10
77.07525615509981
 20
46.51698935334273
 10
77.0530193967617
 20
46.3888357573067
 10
77.03709762248704
 20
46.259745421873326
 10
77.02752918922465
 20
46.13002933696765
 10
77.02433714816836
 20
45.99999999999999
 10
77.02752918922465
 20
45.86997066303233
 10
77.03709762248704
 20
45.74025457812666
 10
77.0530193967617
 20
45.611164242693285
 10
77.07525615509981
 20
45.48301064665725
 10
77.10375432720282
 20
45.35610252325635
 10
77.13844525847801
 20
45.230745605275665
 10
77.17924537543335
 20
45.10724188851061
 10
77.22605638701346
 20
44.9858889042325
 10
77.27876552139124
 20
44.86697900240974
 10
77.33724579764522
 20
44.7507986474111
 10
77.40135633166764
 20
44.63762772788795
 10
77.47094267556662
 20
44.52773888249805
 10
77.54583718974466
 20
44.421396843095046
 10
77.6258594467571
 20
44.318857796966334
 10
77.71081666597772
 20
44.220368769655394
 10
77.80050417802401
 20
44.126167029855644
 10
77.89470591782376
 20
44.036479517809354
 10
77.9931949451347
 20
43.95152229858874
 10
78.09573399126342
 20
43.87150004157628
 10
78.20207603066642
 20
43.79660552739825
 10
78.31196487605632
 20
43.72701918349927
 10
78.42513579557946
 20
43.662908649476854
 10
78.54131615057811
 20
43.604428373222866
 10
78.66022605240087
 20
43.55171923884508
 10
78.78157903667898
 20
43.50490822726499
 10
78.90508275344403
 20
43.46410811030964
 10
79.03043967142472
 20
43.42941717903445
 10
79.15734779482563
 20
43.40091900693143
 10
79.28550139086165
 20
43.37868224859332
 10
79.41459172629503
 20
43.36276047431867
 10
79.54430781120071
 20
43.35319204105629
 10
79.67433714816836
 20
43.349999999999994
 10
79.80436648513601
 20
43.35319204105629
 10
79.9340825700417
 20
43.36276047431867
 10
80.06317290547507
 20
43.37868224859332
 10
80.1913265015111
 20
43.40091900693143
 10
80.31823462491201
 20
43.42941717903445
 10
80.44359154289269
 20
43.46410811030964
 10
80.56709525965775
 20
43.50490822726499
 10
80.68844824393585
 20
43.55171923884508
 10
80.80735814575861
 20
43.604428373222866
 10
80.92353850075726
 20
43.662908649476854
 10
81.0367094202804
 20
43.72701918349927
 10
81.1465982656703
 20
43.79660552739825
 10
81.25294030507331
 20
43.87150004157628
 10
81.35547935120202
 20
43.95152229858874
 10
81.45396837851295
 20
44.036479517809354
 10
81.54817011831271
 20
44.126167029855644
 10
81.63785763035901
 20
44.220368769655394
 10
81.72281484957962
 20
44.318857796966334
 10
81.80283710659207
 20
44.421396843095046
 10
81.8777316207701
 20
44.52773888249805
 10
81.94731796466908
 20
44.63762772788795
 10
82.0114284986915
 20
44.7507986474111
 10
82.06990877494549
 20
44.86697900240974
 10
82.12261790932327
 20
44.9858889042325
 10
82.16942892090337
 20
45.10724188851061
 10
82.21022903785871
 20
45.230745605275665
 10
82.2449199691339
 20
45.35610252325635
 10
82.27341814123692
 20
45.483010646657256
 10
82.29565489957503
 20
45.611164242693285
 10
82.31157667384969
 20
45.74025457812666
 10
82.32114510711207
 20
45.86997066303233
 10
82.32433714816837
 20
45.99999999999999
 10
82.32114510711207
 20
46.13002933696765
 10
82.31157667384969
 20
46.259745421873326
 10
82.29565489957503
 20
46.3888357573067
 10
82.27341814123692
 20
46.51698935334274
 10
82.2449199691339
 20
46.643897476743646
 10
82.21022903785871
 20
46.76925439472432
 10
82.16942892090337
 20
46.89275811148938
  0
LWPOLYLINE
  5
90
330
17
100
AcDbEntity
  8
CORTE
100
AcDbPolyline
 90
129
 70
1
 10
-77.13844525847801
 20
46.76925439472432
 10
-77.17924537543335
 20
46.89275811148938
 10
-77.22605638701346
 20
47.01411109576748
 10
-77.27876552139124
 20
47.13302099759024
 10
-77.33724579764522
 20
47.24920135258889
 10
-77.40135633166764
 20
47.36237227211203
 10
-77.47094267556662
 20
47.47226111750194
 10
-77.54583718974466
 20
47.57860315690494
 10
-77.6258594467571
 20
47.68114220303365
 10
-77.71081666597772
 20
47.77963123034459
 10
-77.80050417802401
 20
47.87383297014434
 10
-77.89470591782377
 20
47.96352048219063
 10
-77.9931949451347
 20
48.048477701411244
 10
-78.09573399126342
 20
48.1284999584237
 10
-78.20207603066642
 20
48.20339447260174
 10
-78.31196487605632
 20
48.27298081650071
 10
-78.42513579557946
 20
48.33709135052313
 10
-78.54131615057811
 20
48.39557162677712
 10
-78.66022605240087
 20
48.448280761154905
 10
-78.78157903667898
 20
48.495091772734995
 10
-78.90508275344403
 20
48.53589188969035
 10
-79.03043967142472
 20
48.570582820965534
 10
-79.15734779482563
 20
48.599080993068554
 10
-79.28550139086165
 20
48.621317751406664
 10
-79.41459172629503
 20
48.637239525681316
 10
-79.54430781120071
 20
48.6468079589437
 10
-79.67433714816836
 20
48.64999999999999
 10
-79.80436648513601
 20
48.6468079589437
 10
-79.9340825700417
 20
48.637239525681316
 10
-80.06317290547507
 20
48.621317751406664
 10
-80.1913265015111
 20
48.599080993068554
 10
-80.31823462491201
 20
48.570582820965534
 10
-80.44359154289269
 20
48.53589188969035
 10
-80.56709525965775
 20
48.495091772734995
 10
-80.68844824393585
 20
48.448280761154905
 10
-80.80735814575861
 20
48.39557162677712
 10
-80.92353850075726
 20
48.33709135052313
 10
-81.0367094202804
 20
48.27298081650071
 10
-81.1465982656703
 20
48.20339447260174
 10
-81.25294030507331
 20
48.1284999584237
 10
-81.35547935120202
 20
48.048477701411244
 10
-81.45396837851297
 20
47.96352048219063
 10
-81.54817011831271
 20
47.87383297014434
 10
-81.63785763035901
 20
47.77963123034459
 10
-81.72281484957962
 20
47.68114220303365
 10
-81.80283710659207
 20
47.57860315690494
 10
-81.8777316207701
 20
47.47226111750194
 10
-81.94731796466908
 20
47.36237227211203
 10
-82.0114284986915
 20
47.249201352588884
 10
-82.06990877494549
 20
47.133020997590236
 10
-82.12261790932327
 20
47.01411109576748
 10
-82.16942892090337
 20
46.89275811148938
 10
-82.21022903785871
 20
46.76925439472432
 10
-82.2449199691339
 20
46.64389747674364
 10
-82.27341814123692
 20
46.51698935334273
 10
-82.29565489957503
 20
46.3888357573067
 10
-82.31157667384969
 20
46.259745421873326
 10
-82.32114510711207
 20
46.13002933696765
 10
-82.32433714816837
 20
45.99999999999999
 10
-82.32114510711207
 20
45.86997066303233
 10
-82.31157667384969
 20
45.74025457812666
 10
-82.29565489957503
 20
45.611164242693285
 10
-82.27341814123692
 20
45.48301064665725
 10
-82.2449199691339
 20
45.35610252325635
 10
-82.21022903785871
 20
45.230745605275665
 10
-82.16942892090337
 20
45.10724188851061
 10
-82.12261790932327
 20
44.9858889042325
 10
-82.06990877494549
 20
44.86697900240974
 10
-82.0114284986915
 20
44.7507986474111
 10
-81.94731796466908
 20
44.63762772788795
 10
-81.8777316207701
 20
44.52773888249805
 10
-81.80283710659207
 20
44.421396843095046
 10
-81.72281484957962
 20
44.318857796966334
 10
-81.63785763035901
 20
44.220368769655394
 10
-81.54817011831271
 20
44.126167029855644
 10
-81.45396837851297
 20
44.036479517809354
 10
-81.35547935120202
 20
43.95152229858874
 10
-81.25294030507331
 20
43.87150004157628
 10
-81.1465982656703
 20
43.79660552739825
 10
-81.0367094202804
 20
43.72701918349927
 10
-80.92353850075726
 20
43.662908649476854
 10
-80.80735814575861
 20
43.604428373222866
 10
-80.68844824393585
 20
43.55171923884508
 10
-80.56709525965775
 20
43.50490822726499
 10
-80.44359154289269
 20
43.46410811030964
 10
-80.31823462491201
 20
43.42941717903445
 10
-80.1913265015111
 20
43.40091900693143
 10
-80.06317290547507
 20
43.37868224859332
 10
-79.9340825700417
 20
43.36276047431867
 10
-79.80436648513601
 20
43.35319204105629
 10
-79.67433714816836
 20
43.349999999999994
 10
-79.54430781120071
 20
43.35319204105629
 10
-79.41459172629503
 20
43.36276047431867
 10
-79.28550139086165
 20
43.37868224859332
 10
-79.15734779482563
 20
43.40091900693143
 10
-79.03043967142472
 20
43.42941717903445
 10
-78.90508275344403
 20
43.46410811030964
 10
-78.78157903667898
 20
43.50490822726499
 10
-78.66022605240087
 20
43.55171923884508
 10
-78.54131615057811
 20
43.604428373222866
 10
-78.42513579557946
 20
43.662908649476854
 10
-78.31196487605632
 20
43.72701918349927
 10
-78.20207603066642
 20
43.79660552739825
 10
-78.09573399126342
 20
43.87150004157628
 10
-77.9931949451347
 20
43.95152229858874
 10
-77.89470591782377
 20
44.036479517809354
 10
-77.80050417802401
 20
44.126167029855644
 10
-77.71081666597772
 20
44.220368769655394
 10
-77.6258594467571
 20
44.318857796966334
 10
-77.54583718974466
 20
44.421396843095046
 10
-77.47094267556662
 20
44.52773888249805
 10
-77.40135633166764
 20
44.63762772788795
 10
-77.33724579764522
 20
44.7507986474111
 10
-77.27876552139124
 20
44.86697900240974
 10
-77.22605638701346
 20
44.9858889042325
 10
-77.17924537543335
 20
45.10724188851061
 10
-77.13844525847801
 20
45.230745605275665
 10
-77.10375432720282
 20
45.35610252325635
 10
-77.07525615509981
 20
45.483010646657256
 10
-77.0530193967617
 20
45.611164242693285
 10
-77.03709762248704
 20
45.74025457812666
 10
-77.02752918922465
 20
45.86997066303233
 10
-77.02433714816836
 20
45.99999999999999
 10
-77.02752918922465
 20
46.13002933696765
 10
-77.03709762248704
 20
46.259745421873326
 10
-77.0530193967617
 20
46.3888357573067
 10
-77.07525615509981
 20
46.51698935334274
 10
-77.10375432720282
 20
46.643897476743646
 10
-77.13844525847801
 20
46.76925439472432
  0
LWPOLYLINE
  5
91
330
17
100
AcDbEntity
  8
CORTE
100
AcDbPolyline
 90
129
 70
1
 10
-77.10375432720281
 20
-45.356102523256354
 10
-77.138445258478
 20
-45.23074560527568
 10
-77.17924537543334
 20
-45.10724188851062
 10
-77.22605638701344
 20
-44.98588890423252
 10
-77.27876552139122
 20
-44.86697900240976
 10
-77.33724579764521
 20
-44.75079864741111
 10
-77.40135633166763
 20
-44.63762772788797
 10
-77.4709426755666
 20
-44.52773888249806
 10
-77.54583718974465
 20
-44.42139684309506
 10
-77.62585944675709
 20
-44.31885779696635
 10
-77.7108166659777
 20
-44.22036876965541
 10
-77.800504178024
 20
-44.12616702985566
 10
-77.89470591782376
 20
-44.03647951780937
 10
-77.99319494513469
 20
-43.951522298588756
 10
-78.0957339912634
 20
-43.8715000415763
 10
-78.2020760306664
 20
-43.79660552739826
 10
-78.31196487605631
 20
-43.72701918349929
 10
-78.42513579557945
 20
-43.66290864947687
 10
-78.5413161505781
 20
-43.60442837322288
 10
-78.66022605240086
 20
-43.551719238845095
 10
-78.78157903667896
 20
-43.504908227265005
 10
-78.90508275344402
 20
-43.46410811030965
 10
-79.0304396714247
 20
-43.429417179034466
 10
-79.15734779482561
 20
-43.400919006931446
 10
-79.28550139086164
 20
-43.378682248593336
 10
-79.41459172629501
 20
-43.362760474318684
 10
-79.5443078112007
 20
-43.3531920410563
 10
-79.67433714816835
 20
-43.35000000000001
 10
-79.804366485136
 20
-43.3531920410563
 10
-79.93408257004168
 20
-43.362760474318684
 10
-80.06317290547506
 20
-43.378682248593336
 10
-80.19132650151109
 20
-43.400919006931446
 10
-80.318234624912
 20
-43.429417179034466
 10
-80.44359154289268
 20
-43.46410811030965
 10
-80.56709525965773
 20
-43.504908227265005
 10
-80.68844824393584
 20
-43.551719238845095
 10
-80.8073581457586
 20
-43.60442837322288
 10
-80.92353850075725
 20
-43.66290864947687
 10
-81.03670942028039
 20
-43.72701918349929
 10
-81.14659826567029
 20
-43.79660552739826
 10
-81.2529403050733
 20
-43.8715000415763
 10
-81.355479351202
 20
-43.951522298588756
 10
-81.45396837851295
 20
-44.03647951780937
 10
-81.5481701183127
 20
-44.12616702985566
 10
-81.637857630359
 20
-44.22036876965541
 10
-81.7228148495796
 20
-44.31885779696635
 10
-81.80283710659205
 20
-44.42139684309506
 10
-81.87773162077009
 20
-44.52773888249806
 10
-81.94731796466907
 20
-44.63762772788797
 10
-82.01142849869149
 20
-44.750798647411116
 10
-82.06990877494547
 20
-44.866979002409764
 10
-82.12261790932325
 20
-44.98588890423252
 10
-82.16942892090336
 20
-45.10724188851062
 10
-82.2102290378587
 20
-45.23074560527568
 10
-82.24491996913389
 20
-45.35610252325636
 10
-82.2734181412369
 20
-45.48301064665727
 10
-82.29565489957501
 20
-45.6111642426933
 10
-82.31157667384967
 20
-45.740254578126674
 10
-82.32114510711206
 20
-45.86997066303235
 10
-82.32433714816835
 20
-46.00000000000001
 10
-82.32114510711206
 20
-46.13002933696767
 10
-82.31157667384967
 20
-46.25974542187334
 10
-82.29565489957501
 20
-46.388835757306715
 10
-82.2734181412369
 20
-46.51698935334275
 10
-82.24491996913389
 20
-46.64389747674365
 10
-82.2102290378587
 20
-46.769254394724335
 10
-82.16942892090336
 20
-46.89275811148939
 10
-82.12261790932325
 20
-47.0141110957675
 10
-82.06990877494547
 20
-47.13302099759026
 10
-82.01142849869149
 20
-47.2492013525889
 10
-81.94731796466907
 20
-47.36237227211205
 10
-81.87773162077009
 20
-47.47226111750195
 10
-81.80283710659205
 20
-47.578603156904954
 10
-81.7228148495796
 20
-47.681142203033666
 10
-81.637857630359
 20
-47.779631230344606
 10
-81.5481701183127
 20
-47.873832970144356
 10
-81.45396837851295
 20
-47.963520482190646
 10
-81.355479351202
 20
-48.04847770141126
 10
-81.2529403050733
 20
-48.12849995842372
 10
-81.14659826567029
 20
-48.20339447260175
 10
-81.03670942028039
 20
-48.27298081650073
 10
-80.92353850075725
 20
-48.337091350523146
 10
-80.8073581457586
 20
-48.395571626777134
 10
-80.68844824393584
 20
-48.44828076115492
 10
-80.56709525965773
 20
-48.49509177273501
 10
-80.44359154289268
 20
-48.53589188969036
 10
-80.318234624912
 20
-48.57058282096555
 10
-80.19132650151109
 20
-48.59908099306857
 10
-80.06317290547506
 20
-48.62131775140668
 10
-79.93408257004168
 20
-48.63723952568133
 10
-79.804366485136
 20
-48.64680795894371
 10
-79.67433714816835
 20
-48.650000000000006
 10
-79.5443078112007
 20
-48.64680795894371
 10
-79.41459172629501
 20
-48.63723952568133
 10
-79.28550139086164
 20
-48.62131775140668
 10
-79.15734779482561
 20
-48.59908099306857
 10
-79.0304396714247
 20
-48.57058282096555
 10
-78.90508275344402
 20
-48.53589188969036
 10
-78.78157903667896
 20
-48.49509177273501
 10
-78.66022605240086
 20
-48.44828076115492
 10
-78.5413161505781
 20
-48.395571626777134
 10
-78.42513579557945
 20
-48.337091350523146
 10
-78.31196487605631
 20
-48.27298081650073
 10
-78.2020760306664
 20
-48.20339447260175
 10
-78.0957339912634
 20
-48.12849995842372
 10
-77.99319494513469
 20
-48.04847770141126
 10
-77.89470591782376
 20
-47.963520482190646
 10
-77.800504178024
 20
-47.873832970144356
 10
-77.7108166659777
 20
-47.779631230344606
 10
-77.62585944675709
 20
-47.681142203033666
 10
-77.54583718974465
 20
-47.578603156904954
 10
-77.4709426755666
 20
-47.47226111750195
 10
-77.40135633166763
 20
-47.36237227211205
 10
-77.33724579764521
 20
-47.2492013525889
 10
-77.27876552139122
 20
-47.13302099759026
 10
-77.22605638701344
 20
-47.0141110957675
 10
-77.17924537543334
 20
-46.89275811148939
 10
-77.138445258478
 20
-46.769254394724335
 10
-77.10375432720281
 20
-46.64389747674365
 10
-77.0752561550998
 20
-46.516989353342744
 10
-77.05301939676168
 20
-46.388835757306715
 10
-77.03709762248702
 20
-46.25974542187334
 10
-77.02752918922464
 20
-46.13002933696767
 10
-77.02433714816834
 20
-46.00000000000001
 10
-77.02752918922464
 20
-45.86997066303235
 10
-77.03709762248702
 20
-45.740254578126674
 10
-77.05301939676168
 20
-45.6111642426933
 10
-77.0752561550998
 20
-45.48301064665726
 10
-77.10375432720281
 20
-45.356102523256354
  0
LWPOLYLINE
  5
92
330
17
100
AcDbEntity
  8
CORTE
100
AcDbPolyline
 90
129
 70
1
 10
-106.81244783868951
 20
-109.36595645344758
 10
-106.84739842711774
 20
-109.21031441531439
 10
-106.88994390887032
 20
-109.056574798923
 10
-106.93998178815518
 20
-108.90510797647528
 10
-106.99739151933832
 20
-108.75627884481345
 10
-107.06203479734882
 20
-108.61044594635158
 10
-107.13375589086785
 20
-108.46796060531551
 10
-107.21238201749911
 20
-108.32916608137202
 10
-107.29772376001672
 20
-108.1943967426863
 10
-107.3895755226879
 20
-108.0639772603996
 10
-107.4877160265711
 20
-107.93822182646815
 10
-107.59190884259638
 20
-107.81743339674719
 10
-107.70190296114372
 20
-107.70190296114372
 10
-107.81743339674719
 20
-107.59190884259638
 10
-107.93822182646815
 20
-107.4877160265711
 10
-108.0639772603996
 20
-107.3895755226879
 10
-108.1943967426863
 20
-107.29772376001672
 10
-108.32916608137202
 20
-107.21238201749911
 10
-108.46796060531551
 20
-107.13375589086785
 10
-108.61044594635159
 20
-107.06203479734882
 10
-108.75627884481345
 20
-106.99739151933832
 10
-108.90510797647529
 20
-106.93998178815518
 10
-109.056574798923
 20
-106.88994390887032
 10
-109.21031441531439
 20
-106.84739842711774
 10
-109.36595645344758
 20
-106.81244783868951
 10
-109.52312595802007
 20
-106.78517634261446
 10
-109.68144429392893
 20
-106.76564963831537
 10
-109.84053005843589
 20
-106.75391476733319
 10
-110.0
 20
-106.75
 10
-110.15946994156411
 20
-106.75391476733319
 10
-110.31855570607107
 20
-106.76564963831537
 10
-110.47687404197993
 20
-106.78517634261446
 10
-110.63404354655242
 20
-106.81244783868951
 10
-110.78968558468561
 20
-106.84739842711774
 10
-110.943425201077
 20
-106.88994390887032
 10
-111.09489202352472
 20
-106.93998178815518
 10
-111.24372115518655
 20
-106.99739151933832
 10
-111.38955405364842
 20
-107.06203479734882
 10
-111.53203939468449
 20
-107.13375589086785
 10
-111.67083391862798
 20
-107.21238201749911
 10
-111.8056032573137
 20
-107.29772376001672
 10
-111.9360227396004
 20
-107.3895755226879
 10
-112.06177817353185
 20
-107.4877160265711
 10
-112.18256660325281
 20
-107.59190884259638
 10
-112.29809703885628
 20
-107.70190296114372
 10
-112.40809115740362
 20
-107.81743339674719
 10
-112.5122839734289
 20
-107.93822182646815
 10
-112.6104244773121
 20
-108.0639772603996
 10
-112.70227623998328
 20
-108.1943967426863
 10
-112.78761798250089
 20
-108.32916608137202
 10
-112.86624410913215
 20
-108.46796060531551
 10
-112.93796520265118
 20
-108.61044594635159
 10
-113.00260848066168
 20
-108.75627884481347
 10
-113.06001821184482
 20
-108.90510797647528
 10
-113.11005609112968
 20
-109.056574798923
 10
-113.15260157288226
 20
-109.21031441531439
 10
-113.18755216131049
 20
-109.36595645344758
 10
-113.21482365738554
 20
-109.52312595802007
 10
-113.23435036168463
 20
-109.68144429392893
 10
-113.24608523266681
 20
-109.84053005843589
 10
-113.25
 20
-110.0
 10
-113.24608523266681
 20
-110.15946994156411
 10
-113.23435036168463
 20
-110.31855570607107
 10
-113.21482365738554
 20
-110.47687404197993
 10
-113.18755216131049
 20
-110.63404354655242
 10
-113.15260157288226
 20
-110.78968558468561
 10
-113.11005609112968
 20
-110.943425201077
 10
-113.06001821184482
 20
-111.09489202352472
 10
-113.00260848066168
 20
-111.24372115518655
 10
-112.93796520265118
 20
-111.38955405364841
 10
-112.86624410913215
 20
-111.53203939468449
 10
-112.78761798250089
 20
-111.67083391862798
 10
-112.70227623998328
 20
-111.8056032573137
 10
-112.6104244773121
 20
-111.9360227396004
 10
-112.5122839734289
 20
-112.06177817353185
 10
-112.40809115740362
 20
-112.18256660325281
 10
-112.29809703885628
 20
-112.29809703885628
 10
-112.18256660325281
 20
-112.40809115740362
 10
-112.06177817353185
 20
-112.5122839734289
 10
-111.9360227396004
 20
-112.6104244773121
 10
-111.8056032573137
 20
-112.70227623998328
 10
-111.67083391862798
 20
-112.78761798250089
 10
-111.53203939468449
 20
-112.86624410913215
 10
-111.38955405364841
 20
-112.93796520265118
 10
-111.24372115518653
 20
-113.00260848066168
 10
-111.09489202352472
 20
-113.06001821184482
 10
-110.943425201077
 20
-113.11005609112968
 10
-110.78968558468561
 20
-113.15260157288226
 10
-110.63404354655242
 20
-113.18755216131049
 10
-110.47687404197993
 20
-113.21482365738554
 10
-110.31855570607107
 20
-113.23435036168463
 10
-110.15946994156411
 20
-113.24608523266681
 10
-110.0
 20
-113.25
 10
-109.84053005843589
 20
-113.24608523266681
 10
-109.68144429392893
 20
-113.23435036168463
 10
-109.52312595802007
 20
-113.21482365738554
 10
-109.36595645344758
 20
-113.18755216131049
 10
-109.21031441531439
 20
-113.15260157288226
 10
-109.056574798923
 20
-113.11005609112968
 10
-108.90510797647528
 20
-113.06001821184482
 10
-108.75627884481345
 20
-113.00260848066168
 10
-108.61044594635159
 20
-112.93796520265118
 10
-108.46796060531551
 20
-112.86624410913215
 10
-108.32916608137202
 20
-112.78761798250089
 10
-108.1943967426863
 20
-112.70227623998328
 10
-108.0639772603996
 20
-112.6104244773121
 10
-107.93822182646815
 20
-112.5122839734289
 10
-107.81743339674719
 20
-112.40809115740362
 10
-107.70190296114372
 20
-112.29809703885628
 10
-107.59190884259638
 20
-112.18256660325281
 10
-107.4877160265711
 20
-112.06177817353185
 10
-107.3895755226879
 20
-111.9360227396004
 10
-107.29772376001672
 20
-111.8056032573137
 10
-107.21238201749911
 20
-111.67083391862798
 10
-107.13375589086785
 20
-111.53203939468449
 10
-107.06203479734882
 20
-111.38955405364841
 10
-106.99739151933832
 20
-111.24372115518653
 10
-106.93998178815518
 20
-111.09489202352472
 10
-106.88994390887032
 20
-110.943425201077
 10
-106.84739842711774
 20
-110.78968558468561
 10
-106.81244783868951
 20
-110.63404354655242
 10
-106.78517634261446
 20
-110.47687404197993
 10
-106.76564963831537
 20
-110.31855570607107
 10
-106.75391476733319
 20
-110.15946994156411
 10
-106.75
 20
-110.0
 10
-106.75391476733319
 20
-109.84053005843589
 10
-106.76564963831537
 20
-109.68144429392893
 10
-106.78517634261446
 20
-109.52312595802007
 10
-106.81244783868951
 20
-109.36595645344758
  0
LWPOLYLINE
  5
93
330
17
100
AcDbEntity
  8
CORTE
100
AcDbPolyline
 90
129
 70
1
 10
-106.78517634261446
 20
110.47687404197993
 10
-106.81244783868951
 20
110.63404354655242
 10
-106.84739842711774
 20
110.78968558468561
 10
-106.88994390887032
 20
110.943425201077
 10
-106.93998178815518
 20
111.09489202352472
 10
-106.99739151933832
 20
111.24372115518655
 10
-107.06203479734882
 20
111.38955405364842
 10
-107.13375589086785
 20
111.53203939468449
 10
-107.21238201749911
 20
111.67083391862798
 10
-107.29772376001672
 20
111.8056032573137
 10
-107.3895755226879
 20
111.9360227396004
 10
-107.4877160265711
 20
112.06177817353185
 10
-107.59190884259638
 20
112.18256660325281
 10
-107.70190296114372
 20
112.29809703885628
 10
-107.81743339674719
 20
112.40809115740362
 10
-107.93822182646815
 20
112.5122839734289
 10
-108.0639772603996
 20
112.6104244773121
 10
-108.1943967426863
 20
112.70227623998328
 10
-108.32916608137202
 20
112.78761798250089
 10
-108.46796060531551
 20
112.86624410913215
 10
-108.61044594635159
 20
112.93796520265118
 10
-108.75627884481345
 20
113.00260848066168
 10
-108.90510797647529
 20
113.06001821184482
 10
-109.056574798923
 20
113.11005609112968
 10
-109.21031441531439
 20
113.15260157288226
 10
-109.36595645344758
 20
113.18755216131049
 10
-109.52312595802007
 20
113.21482365738554
 10
-109.68144429392893
 20
113.23435036168463
 10
-109.84053005843589
 20
113.24608523266681
 10
-110.0
 20
113.25
 10
-110.15946994156411
 20
113.24608523266681
 10
-110.31855570607107
 20
113.23435036168463
 10
-110.47687404197993
 20
113.21482365738554
 10
-110.63404354655242
 20
113.18755216131049
 10
-110.78968558468561
 20
113.15260157288226
 10
-110.943425201077
 20
113.11005609112968
 10
-111.09489202352472
 20
113.06001821184482
 10
-111.24372115518655
 20
113.00260848066168
 10
-111.38955405364842
 20
112.93796520265118
 10
-111.53203939468449
 20
112.86624410913215
 10
-111.67083391862798
 20
112.78761798250089
 10
-111.8056032573137
 20
112.70227623998328
 10
-111.9360227396004
 20
112.6104244773121
 10
-112.06177817353185
 20
112.5122839734289
 10
-112.18256660325281
 20
112.40809115740362
 10
-112.29809703885628
 20
112.29809703885628
 10
-112.40809115740362
 20
112.18256660325281
 10
-112.5122839734289
 20
112.06177817353185
 10
-112.6104244773121
 20
111.9360227396004
 10
-112.70227623998328
 20
111.8056032573137
 10
-112.78761798250089
 20
111.67083391862798
 10
-112.86624410913215
 20
111.53203939468449
 10
-112.93796520265118
 20
111.38955405364841
 10
-113.00260848066168
 20
111.24372115518653
 10
-113.06001821184482
 20
111.09489202352472
 10
-113.11005609112968
 20
110.943425201077
 10
-113.15260157288226
 20
110.78968558468561
 10
-113.18755216131049
 20
110.63404354655242
 10
-113.21482365738554
 20
110.47687404197993
 10
-113.23435036168463
 20
110.31855570607107
 10
-113.24608523266681
 20
110.15946994156411
 10
-113.25
 20
110.0
 10
-113.24608523266681
 20
109.84053005843589
 10
-113.23435036168463
 20
109.68144429392893
 10
-113.21482365738554
 20
109.52312595802007
 10
-113.18755216131049
 20
109.36595645344758
 10
-113.15260157288226
 20
109.21031441531439
 10
-113.11005609112968
 20
109.056574798923
 10
-113.06001821184482
 20
108.90510797647528
 10
-113.00260848066168
 20
108.75627884481345
 10
-112.93796520265118
 20
108.61044594635159
 10
-112.86624410913215
 20
108.46796060531551
 10
-112.78761798250089
 20
108.32916608137202
 10
-112.70227623998328
 20
108.1943967426863
 10
-112.6104244773121
 20
108.0639772603996
 10
-112.5122839734289
 20
107.93822182646815
 10
-112.40809115740362
 20
107.81743339674719
 10
-112.29809703885628
 20
107.70190296114372
 10
-112.18256660325281
 20
107.59190884259638
 10
-112.06177817353185
 20
107.4877160265711
 10
-111.9360227396004
 20
107.3895755226879
 10
-111.8056032573137
 20
107.29772376001672
 10
-111.67083391862798
 20
107.21238201749911
 10
-111.53203939468449
 20
107.13375589086785
 10
-111.38955405364841
 20
107.06203479734882
 10
-111.24372115518653
 20
106.99739151933832
 10
-111.09489202352472
 20
106.93998178815518
 10
-110.943425201077
 20
106.88994390887032
 10
-110.78968558468561
 20
106.84739842711774
 10
-110.63404354655242
 20
106.81244783868951
 10
-110.47687404197993
 20
106.78517634261446
 10
-110.31855570607107
 20
106.76564963831537
 10
-110.15946994156411
 20
106.75391476733319
 10
-110.0
 20
106.75
 10
-109.84053005843589
 20
106.75391476733319
 10
-109.68144429392893
 20
106.76564963831537
 10
-109.52312595802007
 20
106.78517634261446
 10
-109.36595645344758
 20
106.81244783868951
 10
-109.21031441531439
 20
106.84739842711774
 10
-109.056574798923
 20
106.88994390887032
 10
-108.90510797647528
 20
106.93998178815518
 10
-108.75627884481345
 20
106.99739151933832
 10
-108.61044594635159
 20
107.06203479734882
 10
-108.46796060531551
 20
107.13375589086785
 10
-108.32916608137202
 20
107.21238201749911
 10
-108.1943967426863
 20
107.29772376001672
 10
-108.0639772603996
 20
107.3895755226879
 10
-107.93822182646815
 20
107.4877160265711
 10
-107.81743339674719
 20
107.59190884259638
 10
-107.70190296114372
 20
107.70190296114372
 10
-107.59190884259638
 20
107.81743339674719
 10
-107.4877160265711
 20
107.93822182646815
 10
-107.3895755226879
 20
108.0639772603996
 10
-107.29772376001672
 20
108.1943967426863
 10
-107.21238201749911
 20
108.32916608137202
 10
-107.13375589086785
 20
108.46796060531551
 10
-107.06203479734882
 20
108.61044594635159
 10
-106.99739151933832
 20
108.75627884481347
 10
-106.93998178815518
 20
108.90510797647528
 10
-106.88994390887032
 20
109.056574798923
 10
-106.84739842711774
 20
109.21031441531439
 10
-106.81244783868951
 20
109.36595645344758
 10
-106.78517634261446
 20
109.52312595802007
 10
-106.76564963831537
 20
109.68144429392893
 10
-106.75391476733319
 20
109.84053005843589
 10
-106.75
 20
110.0
 10
-106.75391476733319
 20
110.15946994156411
 10
-106.76564963831537
 20
110.31855570607107
 10
-106.78517634261446
 20
110.47687404197993
  0
LWPOLYLINE
  5
94
330
17
100
AcDbEntity
  8
CORTE
100
AcDbPolyline
 90
129
 70
1
 10
113.23435036168463
 20
-109.68144429392893
 10
113.21482365738554
 20
-109.52312595802007
 10
113.18755216131049
 20
-109.36595645344758
 10
113.15260157288226
 20
-109.21031441531439
 10
113.11005609112968
 20
-109.056574798923
 10
113.06001821184482
 20
-108.90510797647528
 10
113.00260848066168
 20
-108.75627884481345
 10
112.93796520265118
 20
-108.61044594635158
 10
112.86624410913215
 20
-108.46796060531551
 10
112.78761798250089
 20
-108.32916608137202
 10
112.70227623998328
 20
-108.1943967426863
 10
112.6104244773121
 20
-108.0639772603996
 10
112.5122839734289
 20
-107.93822182646815
 10
112.40809115740362
 20
-107.81743339674719
 10
112.29809703885628
 20
-107.70190296114372
 10
112.18256660325281
 20
-107.59190884259638
 10
112.06177817353185
 20
-107.4877160265711
 10
111.9360227396004
 20
-107.3895755226879
 10
111.8056032573137
 20
-107.29772376001672
 10
111.67083391862798
 20
-107.21238201749911
 10
111.53203939468449
 20
-107.13375589086785
 10
111.38955405364841
 20
-107.06203479734882
 10
111.24372115518655
 20
-106.99739151933832
 10
111.09489202352471
 20
-106.93998178815518
 10
110.943425201077
 20
-106.88994390887032
 10
110.78968558468561
 20
-106.84739842711774
 10
110.63404354655242
 20
-106.81244783868951
 10
110.47687404197993
 20
-106.78517634261446
 10
110.31855570607107
 20
-106.76564963831537
 10
110.15946994156411
 20
-106.75391476733319
 10
110.0
 20
-106.75
 10
109.84053005843589
 20
-106.75391476733319
 10
109.68144429392893
 20
-106.76564963831537
 10
109.52312595802007
 20
-106.78517634261446
 10
109.36595645344758
 20
-106.81244783868951
 10
109.21031441531439
 20
-106.84739842711774
 10
109.056574798923
 20
-106.88994390887032
 10
108.90510797647528
 20
-106.93998178815518
 10
108.75627884481345
 20
-106.99739151933832
 10
108.61044594635158
 20
-107.06203479734882
 10
108.46796060531551
 20
-107.13375589086785
 10
108.32916608137202
 20
-107.21238201749911
 10
108.1943967426863
 20
-107.29772376001672
 10
108.0639772603996
 20
-107.3895755226879
 10
107.93822182646815
 20
-107.4877160265711
 10
107.81743339674719
 20
-107.59190884259638
 10
107.70190296114372
 20
-107.70190296114372
 10
107.59190884259638
 20
-107.81743339674719
 10
107.4877160265711
 20
-107.93822182646815
 10
107.3895755226879
 20
-108.0639772603996
 10
107.29772376001672
 20
-108.1943967426863
 10
107.21238201749911
 20
-108.32916608137202
 10
107.13375589086785
 20
-108.46796060531551
 10
107.06203479734882
 20
-108.61044594635159
 10
106.99739151933832
 20
-108.75627884481347
 10
106.93998178815518
 20
-108.90510797647528
 10
106.88994390887032
 20
-109.056574798923
 10
106.84739842711774
 20
-109.21031441531439
 10
106.81244783868951
 20
-109.36595645344758
 10
106.78517634261446
 20
-109.52312595802007
 10
106.76564963831537
 20
-109.68144429392893
 10
106.75391476733319
 20
-109.84053005843589
 10
106.75
 20
-110.0
 10
106.75391476733319
 20
-110.15946994156411
 10
106.76564963831537
 20
-110.31855570607107
 10
106.78517634261446
 20
-110.47687404197993
 10
106.81244783868951
 20
-110.63404354655242
 10
106.84739842711774
 20
-110.78968558468561
 10
106.88994390887032
 20
-110.943425201077
 10
106.93998178815518
 20
-111.09489202352472
 10
106.99739151933832
 20
-111.24372115518655
 10
107.06203479734882
 20
-111.38955405364841
 10
107.13375589086785
 20
-111.53203939468449
 10
107.21238201749911
 20
-111.67083391862798
 10
107.29772376001672
 20
-111.8056032573137
 10
107.3895755226879
 20
-111.9360227396004
 10
107.4877160265711
 20
-112.06177817353185
 10
107.59190884259638
 20
-112.18256660325281
 10
107.70190296114372
 20
-112.29809703885628
 10
107.81743339674719
 20
-112.40809115740362
 10
107.93822182646815
 20
-112.5122839734289
 10
108.0639772603996
 20
-112.6104244773121
 10
108.1943967426863
 20
-112.70227623998328
 10
108.32916608137202
 20
-112.78761798250089
 10
108.46796060531551
 20
-112.86624410913215
 10
108.61044594635159
 20
-112.93796520265118
 10
108.75627884481347
 20
-113.00260848066168
 10
108.90510797647528
 20
-113.06001821184482
 10
109.056574798923
 20
-113.11005609112968
 10
109.21031441531439
 20
-113.15260157288226
 10
109.36595645344758
 20
-113.18755216131049
 10
109.52312595802007
 20
-113.21482365738554
 10
109.68144429392893
 20
-113.23435036168463
 10
109.84053005843589
 20
-113.24608523266681
 10
110.0
 20
-113.25
 10
110.15946994156411
 20
-113.24608523266681
 10
110.31855570607107
 20
-113.23435036168463
 10
110.47687404197993
 20
-113.21482365738554
 10
110.63404354655242
 20
-113.18755216131049
 10
110.78968558468561
 20
-113.15260157288226
 10
110.943425201077
 20
-113.11005609112968
 10
111.09489202352472
 20
-113.06001821184482
 10
111.24372115518655
 20
-113.00260848066168
 10
111.38955405364841
 20
-112.93796520265118
 10
111.53203939468449
 20
-112.86624410913215
 10
111.67083391862798
 20
-112.78761798250089
 10
111.8056032573137
 20
-112.70227623998328
 10
111.9360227396004
 20
-112.6104244773121
 10
112.06177817353185
 20
-112.5122839734289
 10
112.18256660325281
 20
-112.40809115740362
 10
112.29809703885628
 20
-112.29809703885628
 10
112.40809115740362
 20
-112.18256660325281
 10
112.5122839734289
 20
-112.06177817353185
 10
112.6104244773121
 20
-111.9360227396004
 10
112.70227623998328
 20
-111.8056032573137
 10
112.78761798250089
 20
-111.67083391862798
 10
112.86624410913215
 20
-111.53203939468449
 10
112.93796520265118
 20
-111.38955405364841
 10
113.00260848066168
 20
-111.24372115518653
 10
113.06001821184482
 20
-111.09489202352472
 10
113.11005609112968
 20
-110.943425201077
 10
113.15260157288226
 20
-110.78968558468561
 10
113.18755216131049
 20
-110.63404354655242
 10
113.21482365738554
 20
-110.47687404197993
 10
113.23435036168463
 20
-110.31855570607107
 10
113.24608523266681
 20
-110.15946994156411
 10
113.25
 20
-110.0
 10
113.24608523266681
 20
-109.84053005843589
 10
113.23435036168463
 20
-109.68144429392893
  0
LWPOLYLINE
  5
95
330
17
100
AcDbEntity
  8
CORTE
100
AcDbPolyline
 90
129
 70
1
 10
113.24608523266681
 20
110.15946994156411
 10
113.23435036168463
 20
110.31855570607107
 10
113.21482365738554
 20
110.47687404197993
 10
113.18755216131049
 20
110.63404354655242
 10
113.15260157288226
 20
110.78968558468561
 10
113.11005609112968
 20
110.943425201077
 10
113.06001821184482
 20
111.09489202352472
 10
113.00260848066168
 20
111.24372115518655
 10
112.93796520265118
 20
111.38955405364842
 10
112.86624410913215
 20
111.53203939468449
 10
112.78761798250089
 20
111.67083391862798
 10
112.70227623998328
 20
111.8056032573137
 10
112.6104244773121
 20
111.9360227396004
 10
112.5122839734289
 20
112.06177817353185
 10
112.40809115740362
 20
112.18256660325281
 10
112.29809703885628
 20
112.29809703885628
 10
112.18256660325281
 20
112.40809115740362
 10
112.06177817353185
 20
112.5122839734289
 10
111.9360227396004
 20
112.6104244773121
 10
111.8056032573137
 20
112.70227623998328
 10
111.67083391862798
 20
112.78761798250089
 10
111.53203939468449
 20
112.86624410913215
 10
111.38955405364841
 20
112.93796520265118
 10
111.24372115518655
 20
113.00260848066168
 10
111.09489202352471
 20
113.06001821184482
 10
110.943425201077
 20
113.11005609112968
 10
110.78968558468561
 20
113.15260157288226
 10
110.63404354655242
 20
113.18755216131049
 10
110.47687404197993
 20
113.21482365738554
 10
110.31855570607107
 20
113.23435036168463
 10
110.15946994156411
 20
113.24608523266681
 10
110.0
 20
113.25
 10
109.84053005843589
 20
113.24608523266681
 10
109.68144429392893
 20
113.23435036168463
 10
109.52312595802007
 20
113.21482365738554
 10
109.36595645344758
 20
113.18755216131049
 10
109.21031441531439
 20
113.15260157288226
 10
109.056574798923
 20
113.11005609112968
 10
108.90510797647528
 20
113.06001821184482
 10
108.75627884481345
 20
113.00260848066168
 10
108.61044594635158
 20
112.93796520265118
 10
108.46796060531551
 20
112.86624410913215
 10
108.32916608137202
 20
112.78761798250089
 10
108.1943967426863
 20
112.70227623998328
 10
108.0639772603996
 20
112.6104244773121
 10
107.93822182646815
 20
112.5122839734289
 10
107.81743339674719
 20
112.40809115740362
 10
107.70190296114372
 20
112.29809703885628
 10
107.59190884259638
 20
112.18256660325281
 10
107.4877160265711
 20
112.06177817353185
 10
107.3895755226879
 20
111.9360227396004
 10
107.29772376001672
 20
111.8056032573137
 10
107.21238201749911
 20
111.67083391862798
 10
107.13375589086785
 20
111.53203939468449
 10
107.06203479734882
 20
111.38955405364841
 10
106.99739151933832
 20
111.24372115518653
 10
106.93998178815518
 20
111.09489202352472
 10
106.88994390887032
 20
110.943425201077
 10
106.84739842711774
 20
110.78968558468561
 10
106.81244783868951
 20
110.63404354655242
 10
106.78517634261446
 20
110.47687404197993
 10
106.76564963831537
 20
110.31855570607107
 10
106.75391476733319
 20
110.15946994156411
 10
106.75
 20
110.0
 10
106.75391476733319
 20
109.84053005843589
 10
106.76564963831537
 20
109.68144429392893
 10
106.78517634261446
 20
109.52312595802007
 10
106.81244783868951
 20
109.36595645344758
 10
106.84739842711774
 20
109.21031441531439
 10
106.88994390887032
 20
109.056574798923
 10
106.93998178815518
 20
108.90510797647528
 10
106.99739151933832
 20
108.75627884481345
 10
107.06203479734882
 20
108.61044594635159
 10
107.13375589086785
 20
108.46796060531551
 10
107.21238201749911
 20
108.32916608137202
 10
107.29772376001672
 20
108.1943967426863
 10
107.3895755226879
 20
108.0639772603996
 10
107.4877160265711
 20
107.93822182646815
 10
107.59190884259638
 20
107.81743339674719
 10
107.70190296114372
 20
107.70190296114372
 10
107.81743339674719
 20
107.59190884259638
 10
107.93822182646815
 20
107.4877160265711
 10
108.0639772603996
 20
107.3895755226879
 10
108.1943967426863
 20
107.29772376001672
 10
108.32916608137202
 20
107.21238201749911
 10
108.46796060531551
 20
107.13375589086785
 10
108.61044594635159
 20
107.06203479734882
 10
108.75627884481347
 20
106.99739151933832
 10
108.90510797647528
 20
106.93998178815518
 10
109.056574798923
 20
106.88994390887032
 10
109.21031441531439
 20
106.84739842711774
 10
109.36595645344758
 20
106.81244783868951
 10
109.52312595802007
 20
106.78517634261446
 10
109.68144429392893
 20
106.76564963831537
 10
109.84053005843589
 20
106.75391476733319
 10
110.0
 20
106.75
 10
110.15946994156411
 20
106.75391476733319
 10
110.31855570607107
 20
106.76564963831537
 10
110.47687404197993
 20
106.78517634261446
 10
110.63404354655242
 20
106.81244783868951
 10
110.78968558468561
 20
106.84739842711774
 10
110.943425201077
 20
106.88994390887032
 10
111.09489202352472
 20
106.93998178815518
 10
111.24372115518655
 20
106.99739151933832
 10
111.38955405364841
 20
107.06203479734882
 10
111.53203939468449
 20
107.13375589086785
 10
111.67083391862798
 20
107.21238201749911
 10
111.8056032573137
 20
107.29772376001672
 10
111.9360227396004
 20
107.3895755226879
 10
112.06177817353185
 20
107.4877160265711
 10
112.18256660325281
 20
107.59190884259638
 10
112.29809703885628
 20
107.70190296114372
 10
112.40809115740362
 20
107.81743339674719
 10
112.5122839734289
 20
107.93822182646815
 10
112.6104244773121
 20
108.0639772603996
 10
112.70227623998328
 20
108.1943967426863
 10
112.78761798250089
 20
108.32916608137202
 10
112.86624410913215
 20
108.46796060531551
 10
112.93796520265118
 20
108.61044594635159
 10
113.00260848066168
 20
108.75627884481347
 10
113.06001821184482
 20
108.90510797647528
 10
113.11005609112968
 20
109.056574798923
 10
113.15260157288226
 20
109.21031441531439
 10
113.18755216131049
 20
109.36595645344758
 10
113.21482365738554
 20
109.52312595802007
 10
113.23435036168463
 20
109.68144429392893
 10
113.24608523266681
 20
109.84053005843589
 10
113.25
 20
110.0
 10
113.24608523266681
 20
110.15946994156411
  0
TEXT
  5
96
330
17
100
AcDbEntity
  8
NOTAS
100
AcDbText
 10
-120.0
 20
-130.0
 30
0.0
 40
3.5
  1
TAPA / PLACA FINAL - policarbonato o metacrilato 8-10 mm (2 uds)
 11
-120.0
 21
-130.0
 31
0.0
100
AcDbText
  0
TEXT
  5
97
330
17
100
AcDbEntity
  8
NOTAS
100
AcDbText
 10
-120.0
 20
-136.0
 30
0.0
 40
3.5
  1
Centro 16,1 mm (rodamiento 625ZZ, eje M5) / varillas 5,3 / tirantes 6,5
 11
-120.0
 21
-136.0
 31
0.0
100
AcDbText
  0
ENDSEC
  0
SECTION
  2
OBJECTS
  0
DICTIONARY
  5
A
330
0
100
AcDbDictionary
281
1
  3
ACAD_COLOR
350
B
  3
ACAD_GROUP
350
C
  3
ACAD_LAYOUT
350
D
  3
ACAD_MATERIAL
350
E
  3
ACAD_MLEADERSTYLE
350
F
  3
ACAD_MLINESTYLE
350
10
  3
ACAD_PLOTSETTINGS
350
11
  3
ACAD_PLOTSTYLENAME
350
12
  3
ACAD_SCALELIST
350
14
  3
ACAD_TABLESTYLE
350
15
  3
ACAD_VISUALSTYLE
350
16
  3
EZDXF_META
350
2D
  0
DICTIONARY
  5
B
330
A
100
AcDbDictionary
281
1
  0
DICTIONARY
  5
C
330
A
100
AcDbDictionary
281
1
  0
DICTIONARY
  5
D
330
A
100
AcDbDictionary
281
1
  3
Model
350
1A
  3
Layout1
350
1E
  0
DICTIONARY
  5
E
330
A
100
AcDbDictionary
281
1
  3
ByBlock
350
1F
  3
ByLayer
350
20
  3
Global
350
21
  0
DICTIONARY
  5
F
330
A
100
AcDbDictionary
281
1
  3
Standard
350
2C
  0
DICTIONARY
  5
10
330
A
100
AcDbDictionary
281
1
  3
Standard
350
22
  0
DICTIONARY
  5
11
330
A
100
AcDbDictionary
281
1
  0
ACDBDICTIONARYWDFLT
  5
12
330
A
100
AcDbDictionary
281
1
  3
Normal
350
13
100
AcDbDictionaryWithDefault
340
13
  0
ACDBPLACEHOLDER
  5
13
330
12
  0
DICTIONARY
  5
14
330
A
100
AcDbDictionary
281
1
  0
DICTIONARY
  5
15
330
A
100
AcDbDictionary
281
1
  0
DICTIONARY
  5
16
330
A
100
AcDbDictionary
281
1
  3
2dWireframe
350
5A
  3
Basic
350
5B
  3
Brighten
350
5C
  3
ColorChange
350
5D
  3
Conceptual
350
5E
  3
Dim
350
5F
  3
EdgeColorOff
350
60
  3
Facepattern
350
61
  3
Flat
350
62
  3
FlatWithEdges
350
63
  3
Gouraud
350
64
  3
GouraudWithEdges
350
65
  3
Hidden
350
66
  3
JitterOff
350
67
  3
Linepattern
350
68
  3
Modeling
350
69
  3
OverhangOff
350
6A
  3
Realistic
350
6B
  3
Shaded
350
6C
  3
Shaded with edges
350
6D
  3
Shades of Gray
350
6E
  3
Sketchy
350
6F
  3
Thicken
350
70
  3
Wireframe
350
71
  3
X-Ray
350
72
  0
LAYOUT
  5
1A
330
D
100
AcDbPlotSettings
  1

  4
A3
  6

 40
7.5
 41
20.0
 42
7.5
 43
20.0
 44
420.0
 45
297.0
 46
0.0
 47
0.0
 48
0.0
 49
0.0
140
0.0
141
0.0
142
1.0
143
1.0
 70
1024
 72
1
 73
0
 74
5
  7

 75
16
 76
0
 77
2
 78
300
147
1.0
148
0.0
149
0.0
100
AcDbLayout
  1
Model
 70
1
 71
0
 10
0.0
 20
0.0
 11
420.0
 21
297.0
 12
0.0
 22
0.0
 32
0.0
 14
1e+20
 24
1e+20
 34
1e+20
 15
-1e+20
 25
-1e+20
 35
-1e+20
146
0.0
 13
0.0
 23
0.0
 33
0.0
 16
1.0
 26
0.0
 36
0.0
 17
0.0
 27
1.0
 37
0.0
 76
1
330
17
  0
LAYOUT
  5
1E
330
D
100
AcDbPlotSettings
  1

  4
A3
  6

 40
7.5
 41
20.0
 42
7.5
 43
20.0
 44
420.0
 45
297.0
 46
0.0
 47
0.0
 48
0.0
 49
0.0
140
0.0
141
0.0
142
1.0
143
1.0
 70
0
 72
1
 73
0
 74
5
  7

 75
16
 76
0
 77
2
 78
300
147
1.0
148
0.0
149
0.0
100
AcDbLayout
  1
Layout1
 70
1
 71
1
 10
0.0
 20
0.0
 11
420.0
 21
297.0
 12
0.0
 22
0.0
 32
0.0
 14
1e+20
 24
1e+20
 34
1e+20
 15
-1e+20
 25
-1e+20
 35
-1e+20
146
0.0
 13
0.0
 23
0.0
 33
0.0
 16
1.0
 26
0.0
 36
0.0
 17
0.0
 27
1.0
 37
0.0
 76
1
330
1B
  0
MATERIAL
  5
1F
102
{ACAD_REACTORS
330
E
102
}
330
E
100
AcDbMaterial
  1
ByBlock
  2

 70
0
 40
1.0
 71
1
 41
1.0
 91
-1023410177
 42
1.0
 72
1
  3

 73
1
 74
1
 75
1
 44
0.5
 73
0
 45
1.0
 46
1.0
 77
1
  4

 78
1
 79
1
170
1
 48
1.0
171
1
  6

172
1
173
1
174
1
140
1.0
141
1.0
175
1
  7

176
1
177
1
178
1
143
1.0
179
1
  8

270
1
271
1
272
1
145
1.0
146
1.0
273
1
  9

274
1
275
1
276
1
 42
1.0
 72
1
  3

 73
1
 74
1
 75
1
 94
63
  0
MATERIAL
  5
20
102
{ACAD_REACTORS
330
E
102
}
330
E
100
AcDbMaterial
  1
ByLayer
  2

 70
0
 40
1.0
 71
1
 41
1.0
 91
-1023410177
 42
1.0
 72
1
  3

 73
1
 74
1
 75
1
 44
0.5
 73
0
 45
1.0
 46
1.0
 77
1
  4

 78
1
 79
1
170
1
 48
1.0
171
1
  6

172
1
173
1
174
1
140
1.0
141
1.0
175
1
  7

176
1
177
1
178
1
143
1.0
179
1
  8

270
1
271
1
272
1
145
1.0
146
1.0
273
1
  9

274
1
275
1
276
1
 42
1.0
 72
1
  3

 73
1
 74
1
 75
1
 94
63
  0
MATERIAL
  5
21
102
{ACAD_REACTORS
330
E
102
}
330
E
100
AcDbMaterial
  1
Global
  2

 70
0
 40
1.0
 71
1
 41
1.0
 91
-1023410177
 42
1.0
 72
1
  3

 73
1
 74
1
 75
1
 44
0.5
 73
0
 45
1.0
 46
1.0
 77
1
  4

 78
1
 79
1
170
1
 48
1.0
171
1
  6

172
1
173
1
174
1
140
1.0
141
1.0
175
1
  7

176
1
177
1
178
1
143
1.0
179
1
  8

270
1
271
1
272
1
145
1.0
146
1.0
273
1
  9

274
1
275
1
276
1
 42
1.0
 72
1
  3

 73
1
 74
1
 75
1
 94
63
  0
MLINESTYLE
  5
22
102
{ACAD_REACTORS
330
10
102
}
330
10
100
AcDbMlineStyle
  2
Standard
 70
0
  3

 62
256
 51
90.0
 52
90.0
 71
2
 49
0.5
 62
256
  6
BYLAYER
 49
-0.5
 62
256
  6
BYLAYER
  0
MLEADERSTYLE
  5
2C
102
{ACAD_REACTORS
330
F
102
}
330
F
100
AcDbMLeaderStyle
179
2
170
2
171
1
172
0
 90
2
 40
0.0
 41
0.0
173
1
 91
-1056964608
 92
-2
290
1
 42
2.0
291
1
 43
8.0
  3
Standard
 44
4.0
300

342
29
174
1
175
1
176
0
178
1
 93
-1056964608
 45
4.0
292
0
297
0
 46
4.0
 94
-1056964608
 47
1.0
 49
1.0
140
1.0
294
1
141
0.0
177
0
142
1.0
295
0
296
0
143
3.75
271
0
272
9
273
9
  0
DICTIONARY
  5
2D
330
A
100
AcDbDictionary
280
1
281
1
  3
CREATED_BY_EZDXF
350
2E
  3
WRITTEN_BY_EZDXF
350
9A
  0
DICTIONARYVAR
  5
2E
330
2D
100
DictionaryVariables
280
0
  1
1.4.4 @ 2026-09-30T09:29:39.486983+00:00
  0
VISUALSTYLE
  5
5A
102
{ACAD_REACTORS
330
16
102
}
330
16
100
AcDbVisualStyle
  2
2dWireframe
 70
4
 90
0
 40
0.6
 62
7
290
0
291
0
  0
VISUALSTYLE
  5
5B
102
{ACAD_REACTORS
330
16
102
}
330
16
100
AcDbVisualStyle
  2
Basic
 70
7
 90
1
 40
0.6
 62
7
290
0
291
1
  0
VISUALSTYLE
  5
5C
102
{ACAD_REACTORS
330
16
102
}
330
16
100
AcDbVisualStyle
  2
Brighten
 70
12
 90
2
 40
0.6
 62
7
290
0
291
1
  0
VISUALSTYLE
  5
5D
102
{ACAD_REACTORS
330
16
102
}
330
16
100
AcDbVisualStyle
  2
ColorChange
 70
16
 90
2
 40
0.6
 62
8
290
0
291
1
  0
VISUALSTYLE
  5
5E
102
{ACAD_REACTORS
330
16
102
}
330
16
100
AcDbVisualStyle
  2
Conceptual
 70
9
 90
3
 40
0.6
 62
7
290
0
291
0
  0
VISUALSTYLE
  5
5F
102
{ACAD_REACTORS
330
16
102
}
330
16
100
AcDbVisualStyle
  2
Dim
 70
11
 90
2
 40
0.6
 62
7
290
0
291
1
  0
VISUALSTYLE
  5
60
102
{ACAD_REACTORS
330
16
102
}
330
16
100
AcDbVisualStyle
  2
EdgeColorOff
 70
22
 90
2
 40
0.6
 62
7
290
0
291
1
  0
VISUALSTYLE
  5
61
102
{ACAD_REACTORS
330
16
102
}
330
16
100
AcDbVisualStyle
  2
Facepattern
 70
15
 90
2
 40
0.6
 62
7
290
0
291
1
  0
VISUALSTYLE
  5
62
102
{ACAD_REACTORS
330
16
102
}
330
16
100
AcDbVisualStyle
  2
Flat
 70
0
 90
2
 40
0.6
 62
7
290
0
291
1
  0
VISUALSTYLE
  5
63
102
{ACAD_REACTORS
330
16
102
}
330
16
100
AcDbVisualStyle
  2
FlatWithEdges
 70
1
 90
2
 40
0.6
 62
7
290
0
291
1
  0
VISUALSTYLE
  5
64
102
{ACAD_REACTORS
330
16
102
}
330
16
100
AcDbVisualStyle
  2
Gouraud
 70
2
 90
2
 40
0.6
 62
7
290
0
291
1
  0
VISUALSTYLE
  5
65
102
{ACAD_REACTORS
330
16
102
}
330
16
100
AcDbVisualStyle
  2
GouraudWithEdges
 70
3
 90
2
 40
0.6
 62
7
290
0
291
1
  0
VISUALSTYLE
  5
66
102
{ACAD_REACTORS
330
16
102
}
330
16
100
AcDbVisualStyle
  2
Hidden
 70
6
 90
1
 40
0.6
 62
7
290
0
291
0
  0
VISUALSTYLE
  5
67
102
{ACAD_REACTORS
330
16
102
}
330
16
100
AcDbVisualStyle
  2
JitterOff
 70
20
 90
2
 40
0.6
 62
7
290
0
291
1
  0
VISUALSTYLE
  5
68
102
{ACAD_REACTORS
330
16
102
}
330
16
100
AcDbVisualStyle
  2
Linepattern
 70
14
 90
2
 40
0.6
 62
7
290
0
291
1
  0
VISUALSTYLE
  5
69
102
{ACAD_REACTORS
330
16
102
}
330
16
100
AcDbVisualStyle
  2
Modeling
 70
10
 90
2
 40
0.6
 62
7
290
0
291
0
  0
VISUALSTYLE
  5
6A
102
{ACAD_REACTORS
330
16
102
}
330
16
100
AcDbVisualStyle
  2
OverhangOff
 70
21
 90
2
 40
0.6
 62
7
290
0
291
1
  0
VISUALSTYLE
  5
6B
102
{ACAD_REACTORS
330
16
102
}
330
16
100
AcDbVisualStyle
  2
Realistic
 70
8
 90
2
 40
0.6
 62
7
290
0
291
0
  0
VISUALSTYLE
  5
6C
102
{ACAD_REACTORS
330
16
102
}
330
16
100
AcDbVisualStyle
  2
Shaded
 70
27
 90
2
 40
0.6
 62
7
290
0
291
0
  0
VISUALSTYLE
  5
6D
102
{ACAD_REACTORS
330
16
102
}
330
16
100
AcDbVisualStyle
  2
Shaded with edges
 70
26
 90
2
 40
0.6
 62
7
290
0
291
0
  0
VISUALSTYLE
  5
6E
102
{ACAD_REACTORS
330
16
102
}
330
16
100
AcDbVisualStyle
  2
Shades of Gray
 70
23
 90
2
 40
0.6
 62
7
290
0
291
0
  0
VISUALSTYLE
  5
6F
102
{ACAD_REACTORS
330
16
102
}
330
16
100
AcDbVisualStyle
  2
Sketchy
 70
24
 90
1
 40
0.6
 62
7
290
0
291
0
  0
VISUALSTYLE
  5
70
102
{ACAD_REACTORS
330
16
102
}
330
16
100
AcDbVisualStyle
  2
Thicken
 70
13
 90
2
 40
0.6
 62
7
290
0
291
1
  0
VISUALSTYLE
  5
71
102
{ACAD_REACTORS
330
16
102
}
330
16
100
AcDbVisualStyle
  2
Wireframe
 70
5
 90
0
 40
0.6
 62
7
290
0
291
0
  0
VISUALSTYLE
  5
72
102
{ACAD_REACTORS
330
16
102
}
330
16
100
AcDbVisualStyle
  2
X-Ray
 70
25
 90
2
 40
0.5
 62
7
290
0
291
0
  0
DICTIONARYVAR
  5
9A
330
2D
100
DictionaryVariables
280
0
  1
1.4.4 @ 2026-09-30T09:29:39.495411+00:00
  0
ENDSEC
  0
EOF
